  0
SECTION
  2
HEADER
  9
$ACADVER
  1
AC1027
  9
$ACADMAINTVER
 70
   105
  9
$DWGCODEPAGE
  3
ANSI_1252
  9
$LASTSAVEDBY
  1
panz
  9
$REQUIREDVERSIONS
160
                 0
  9
$INSBASE
 10
0.0
 20
0.0
 30
0.0
  9
$EXTMIN
 10
0.6440538102760911
 20
-1.837318933801726
 30
0.0
  9
$EXTMAX
 10
26.18723635413967
 20
16.33962517417967
 30
20.98492494458333
  9
$LIMMIN
 10
0.0
 20
0.0
  9
$LIMMAX
 10
12.0
 20
9.0
  9
$ORTHOMODE
 70
     0
  9
$REGENMODE
 70
     1
  9
$FILLMODE
 70
     1
  9
$QTEXTMODE
 70
     0
  9
$MIRRTEXT
 70
     0
  9
$LTSCALE
 40
1.0
  9
$ATTMODE
 70
     1
  9
$TEXTSIZE
 40
0.2
  9
$TRACEWID
 40
0.05
  9
$TEXTSTYLE
  7
Standard
  9
$CLAYER
  8
Layer 06$areas
  9
$CELTYPE
  6
ByLayer
  9
$CECOLOR
 62
   256
  9
$CELTSCALE
 40
1.0
  9
$DISPSILH
 70
     0
  9
$DIMSCALE
 40
1.0
  9
$DIMASZ
 40
0.18
  9
$DIMEXO
 40
0.0625
  9
$DIMDLI
 40
0.38
  9
$DIMRND
 40
0.0
  9
$DIMDLE
 40
0.0
  9
$DIMEXE
 40
0.18
  9
$DIMTP
 40
0.0
  9
$DIMTM
 40
0.0
  9
$DIMTXT
 40
0.18
  9
$DIMCEN
 40
0.09
  9
$DIMTSZ
 40
0.0
  9
$DIMTOL
 70
     0
  9
$DIMLIM
 70
     0
  9
$DIMTIH
 70
     1
  9
$DIMTOH
 70
     1
  9
$DIMSE1
 70
     0
  9
$DIMSE2
 70
     0
  9
$DIMTAD
 70
     0
  9
$DIMZIN
 70
     0
  9
$DIMBLK
  1

  9
$DIMASO
 70
     1
  9
$DIMSHO
 70
     1
  9
$DIMPOST
  1

  9
$DIMAPOST
  1

  9
$DIMALT
 70
     0
  9
$DIMALTD
 70
     2
  9
$DIMALTF
 40
25.4
  9
$DIMLFAC
 40
1.0
  9
$DIMTOFL
 70
     0
  9
$DIMTVP
 40
0.0
  9
$DIMTIX
 70
     0
  9
$DIMSOXD
 70
     0
  9
$DIMSAH
 70
     0
  9
$DIMBLK1
  1

  9
$DIMBLK2
  1

  9
$DIMSTYLE
  2
STANDARD_ACAD
  9
$DIMCLRD
 70
     0
  9
$DIMCLRE
 70
     0
  9
$DIMCLRT
 70
     0
  9
$DIMTFAC
 40
1.0
  9
$DIMGAP
 40
0.09
  9
$DIMJUST
 70
     0
  9
$DIMSD1
 70
     0
  9
$DIMSD2
 70
     0
  9
$DIMTOLJ
 70
     1
  9
$DIMTZIN
 70
     0
  9
$DIMALTZ
 70
     0
  9
$DIMALTTZ
 70
     0
  9
$DIMUPT
 70
     0
  9
$DIMDEC
 70
     4
  9
$DIMTDEC
 70
     4
  9
$DIMALTU
 70
     2
  9
$DIMALTTD
 70
     2
  9
$DIMTXSTY
  7
Standard
  9
$DIMAUNIT
 70
     0
  9
$DIMADEC
 70
     0
  9
$DIMALTRND
 40
0.0
  9
$DIMAZIN
 70
     0
  9
$DIMDSEP
 70
    46
  9
$DIMATFIT
 70
     3
  9
$DIMFRAC
 70
     0
  9
$DIMLDRBLK
  1

  9
$DIMLUNIT
 70
     2
  9
$DIMLWD
 70
    -2
  9
$DIMLWE
 70
    -2
  9
$DIMTMOVE
 70
     2
  9
$DIMFXL
 40
1.0
  9
$DIMFXLON
 70
     0
  9
$DIMJOGANG
 40
0.7853981633974483
  9
$DIMTFILL
 70
     0
  9
$DIMTFILLCLR
 70
     0
  9
$DIMARCSYM
 70
     0
  9
$DIMLTYPE
  6

  9
$DIMLTEX1
  6

  9
$DIMLTEX2
  6

  9
$DIMTXTDIRECTION
 70
     0
  9
$LUNITS
 70
     2
  9
$LUPREC
 70
     2
  9
$SKETCHINC
 40
0.1
  9
$FILLETRAD
 40
0.0
  9
$AUNITS
 70
     0
  9
$AUPREC
 70
     0
  9
$MENU
  1
.
  9
$ELEVATION
 40
0.0
  9
$PELEVATION
 40
0.0
  9
$THICKNESS
 40
0.0
  9
$LIMCHECK
 70
     0
  9
$CHAMFERA
 40
0.0
  9
$CHAMFERB
 40
0.0
  9
$CHAMFERC
 40
0.0
  9
$CHAMFERD
 40
0.0
  9
$SKPOLY
 70
     0
  9
$TDCREATE
 40
2461054.613430255
  9
$TDUCREATE
 40
2461054.571763588
  9
$TDUPDATE
 40
2461054.613543021
  9
$TDUUPDATE
 40
2461054.571876354
  9
$TDINDWG
 40
0.0000000116
  9
$TDUSRTIMER
 40
0.0000000116
  9
$USRTIMER
 70
     1
  9
$ANGBASE
 50
0.0
  9
$ANGDIR
 70
     0
  9
$PDMODE
 70
     0
  9
$PDSIZE
 40
0.0
  9
$PLINEWID
 40
0.0
  9
$SPLFRAME
 70
     0
  9
$SPLINETYPE
 70
     6
  9
$SPLINESEGS
 70
     8
  9
$HANDSEED
  5
3B7
  9
$SURFTAB1
 70
     6
  9
$SURFTAB2
 70
     6
  9
$SURFTYPE
 70
     6
  9
$SURFU
 70
     6
  9
$SURFV
 70
     6
  9
$UCSBASE
  2

  9
$UCSNAME
  2

  9
$UCSORG
 10
0.0
 20
0.0
 30
0.0
  9
$UCSXDIR
 10
1.0
 20
0.0
 30
0.0
  9
$UCSYDIR
 10
0.0
 20
1.0
 30
0.0
  9
$UCSORTHOREF
  2

  9
$UCSORTHOVIEW
 70
     0
  9
$UCSORGTOP
 10
0.0
 20
0.0
 30
0.0
  9
$UCSORGBOTTOM
 10
0.0
 20
0.0
 30
0.0
  9
$UCSORGLEFT
 10
0.0
 20
0.0
 30
0.0
  9
$UCSORGRIGHT
 10
0.0
 20
0.0
 30
0.0
  9
$UCSORGFRONT
 10
0.0
 20
0.0
 30
0.0
  9
$UCSORGBACK
 10
0.0
 20
0.0
 30
0.0
  9
$PUCSBASE
  2

  9
$PUCSNAME
  2

  9
$PUCSORG
 10
0.0
 20
0.0
 30
0.0
  9
$PUCSXDIR
 10
1.0
 20
0.0
 30
0.0
  9
$PUCSYDIR
 10
0.0
 20
1.0
 30
0.0
  9
$PUCSORTHOREF
  2

  9
$PUCSORTHOVIEW
 70
     0
  9
$PUCSORGTOP
 10
0.0
 20
0.0
 30
0.0
  9
$PUCSORGBOTTOM
 10
0.0
 20
0.0
 30
0.0
  9
$PUCSORGLEFT
 10
0.0
 20
0.0
 30
0.0
  9
$PUCSORGRIGHT
 10
0.0
 20
0.0
 30
0.0
  9
$PUCSORGFRONT
 10
0.0
 20
0.0
 30
0.0
  9
$PUCSORGBACK
 10
0.0
 20
0.0
 30
0.0
  9
$USERI1
 70
     0
  9
$USERI2
 70
     0
  9
$USERI3
 70
     0
  9
$USERI4
 70
     0
  9
$USERI5
 70
     0
  9
$USERR1
 40
0.0
  9
$USERR2
 40
0.0
  9
$USERR3
 40
0.0
  9
$USERR4
 40
0.0
  9
$USERR5
 40
0.0
  9
$WORLDVIEW
 70
     1
  9
$SHADEDGE
 70
     3
  9
$SHADEDIF
 70
    70
  9
$TILEMODE
 70
     1
  9
$MAXACTVP
 70
    64
  9
$PINSBASE
 10
0.0
 20
0.0
 30
0.0
  9
$PLIMCHECK
 70
     0
  9
$PEXTMIN
 10
1.000000000000000E+20
 20
1.000000000000000E+20
 30
1.000000000000000E+20
  9
$PEXTMAX
 10
-1.000000000000000E+20
 20
-1.000000000000000E+20
 30
-1.000000000000000E+20
  9
$PLIMMIN
 10
0.0
 20
0.0
  9
$PLIMMAX
 10
12.0
 20
9.0
  9
$UNITMODE
 70
     0
  9
$VISRETAIN
 70
     1
  9
$PLINEGEN
 70
     0
  9
$PSLTSCALE
 70
     1
  9
$TREEDEPTH
 70
  3020
  9
$CMLSTYLE
  2
Standard
  9
$CMLJUST
 70
     0
  9
$CMLSCALE
 40
1.0
  9
$PROXYGRAPHICS
 70
     1
  9
$MEASUREMENT
 70
     1
  9
$CELWEIGHT
370
    -1
  9
$ENDCAPS
280
     0
  9
$JOINSTYLE
280
     0
  9
$LWDISPLAY
290
     0
  9
$INSUNITS
 70
     6
  9
$HYPERLINKBASE
  1

  9
$STYLESHEET
  1

  9
$XEDIT
290
     1
  9
$CEPSNTYPE
380
     0
  9
$PSTYLEMODE
290
     1
  9
$FINGERPRINTGUID
  2
{33fb14d2-b49f-475e-b690-446eed804589}
  9
$VERSIONGUID
  2
{FAEB1C32-E019-11D5-929B-00C0DF256EC4}
  9
$EXTNAMES
290
     1
  9
$PSVPSCALE
 40
0.0
  9
$OLESTARTUP
290
     0
  9
$SORTENTS
280
   127
  9
$INDEXCTL
280
     0
  9
$HIDETEXT
280
     1
  9
$XCLIPFRAME
280
     2
  9
$HALOGAP
280
     0
  9
$OBSCOLOR
 70
   257
  9
$OBSLTYPE
280
     0
  9
$INTERSECTIONDISPLAY
280
     0
  9
$INTERSECTIONCOLOR
 70
   257
  9
$DIMASSOC
280
     2
  9
$PROJECTNAME
  1

  9
$CAMERADISPLAY
290
     0
  9
$LENSLENGTH
 40
50.0
  9
$CAMERAHEIGHT
 40
0.0
  9
$STEPSPERSEC
 40
2.0
  9
$STEPSIZE
 40
6.0
  9
$3DDWFPREC
 40
2.0
  9
$PSOLWIDTH
 40
0.25
  9
$PSOLHEIGHT
 40
4.0
  9
$LOFTANG1
 40
1.570796326794897
  9
$LOFTANG2
 40
1.570796326794897
  9
$LOFTMAG1
 40
0.0
  9
$LOFTMAG2
 40
0.0
  9
$LOFTPARAM
 70
     7
  9
$LOFTNORMALS
280
     1
  9
$LATITUDE
 40
37.795
  9
$LONGITUDE
 40
-122.394
  9
$NORTHDIRECTION
 40
0.0
  9
$TIMEZONE
 70
 -8000
  9
$LIGHTGLYPHDISPLAY
280
     1
  9
$TILEMODELIGHTSYNCH
280
     1
  9
$CMATERIAL
347
44
  9
$SOLIDHIST
280
     0
  9
$SHOWHIST
280
     1
  9
$DWFFRAME
280
     2
  9
$DGNFRAME
280
     2
  9
$REALWORLDSCALE
290
     1
  9
$INTERFERECOLOR
 62
   256
  9
$CSHADOW
280
     0
  9
$SHADOWPLANELOCATION
 40
0.0
  0
ENDSEC
  0
SECTION
  2
CLASSES
  0
CLASS
  1
ACDBDICTIONARYWDFLT
  2
AcDbDictionaryWithDefault
  3
ObjectDBX Classes
 90
        0
 91
        3
280
     0
281
     0
  0
CLASS
  1
VISUALSTYLE
  2
AcDbVisualStyle
  3
ObjectDBX Classes
 90
     4095
 91
        3
280
     0
281
     0
  0
CLASS
  1
MATERIAL
  2
AcDbMaterial
  3
ObjectDBX Classes
 90
     1153
 91
        3
280
     0
281
     0
  0
CLASS
  1
SCALE
  2
AcDbScale
  3
ObjectDBX Classes
 90
     1153
 91
        3
280
     0
281
     0
  0
CLASS
  1
TABLESTYLE
  2
AcDbTableStyle
  3
ObjectDBX Classes
 90
     4095
 91
        3
280
     0
281
     0
  0
CLASS
  1
MLEADERSTYLE
  2
AcDbMLeaderStyle
  3
ACDB_MLEADERSTYLE_CLASS
 90
     4095
 91
        3
280
     0
281
     0
  0
CLASS
  1
SUN
  2
AcDbSun
  3
SCENEOE
 90
     1153
 91
        3
280
     0
281
     0
  0
CLASS
  1
DICTIONARYVAR
  2
AcDbDictionaryVar
  3
ObjectDBX Classes
 90
        0
 91
        3
280
     0
281
     0
  0
CLASS
  1
CELLSTYLEMAP
  2
AcDbCellStyleMap
  3
ObjectDBX Classes
 90
     1152
 91
        3
280
     0
281
     0
  0
ENDSEC
  0
SECTION
  2
TABLES
  0
TABLE
  2
VPORT
  5
8
330
0
100
AcDbSymbolTable
 70
     1
  0
VPORT
  5
29
330
8
100
AcDbSymbolTableRecord
100
AcDbViewportTableRecord
  2
*Active
 70
     0
 10
0.0
 20
0.0
 11
1.0
 21
1.0
 12
10.42990654205607
 22
4.5
 13
0.0
 23
0.0
 14
0.5
 24
0.5
 15
0.5
 25
0.5
 16
0.0
 26
0.0
 36
1.0
 17
0.0
 27
0.0
 37
0.0
 40
9.0
 41
1.972972972850329
 42
50.0
 43
0.0
 44
0.0
 50
0.0
 51
0.0
 71
     0
 72
   100
 73
     1
 74
     3
 75
     0
 76
     0
 77
     0
 78
     0
281
     0
 65
     1
110
0.0
120
0.0
130
0.0
111
1.0
121
0.0
131
0.0
112
0.0
122
1.0
132
0.0
 79
     0
146
0.0
348
2F
 60
     3
 61
     5
292
     1
282
     1
141
0.0
142
0.0
 63
   250
361
5D
  0
ENDTAB
  0
TABLE
  2
LTYPE
  5
5
330
0
100
AcDbSymbolTable
 70
     1
  0
LTYPE
  5
14
330
5
100
AcDbSymbolTableRecord
100
AcDbLinetypeTableRecord
  2
ByBlock
 70
     0
  3

 72
    65
 73
     0
 40
0.0
  0
LTYPE
  5
15
330
5
100
AcDbSymbolTableRecord
100
AcDbLinetypeTableRecord
  2
ByLayer
 70
     0
  3

 72
    65
 73
     0
 40
0.0
  0
LTYPE
  5
16
330
5
100
AcDbSymbolTableRecord
100
AcDbLinetypeTableRecord
  2
Continuous
 70
     0
  3
Solid line
 72
    65
 73
     0
 40
0.0
  0
ENDTAB
  0
TABLE
  2
LAYER
  5
2
330
0
100
AcDbSymbolTable
 70
     6
  0
LAYER
  5
10
330
2
100
AcDbSymbolTableRecord
100
AcDbLayerTableRecord
  2
0
 70
     0
 62
     7
  6
Continuous
370
    -3
390
F
347
46
348
0
  0
LAYER
  5
5F
330
2
100
AcDbSymbolTableRecord
100
AcDbLayerTableRecord
  2
Layer 06$areas
 70
     0
 62
   200
420
 14221567
  6
Continuous
370
    -3
390
F
347
46
348
0
  0
LAYER
  5
70
330
2
100
AcDbSymbolTableRecord
100
AcDbLayerTableRecord
  2
Layer 06$textTags1
 70
     0
 62
     7
  6
Continuous
370
    -3
390
F
347
46
348
0
  0
LAYER
  5
12F
330
2
100
AcDbSymbolTableRecord
100
AcDbLayerTableRecord
  2
Layer 06$walls
 70
     0
 62
     7
  6
Continuous
370
    -3
390
F
347
46
348
0
  0
LAYER
  5
1F4
330
2
100
AcDbSymbolTableRecord
100
AcDbLayerTableRecord
  2
Layer 06$doors
 70
     0
 62
     1
420
 16711680
  6
Continuous
370
    -3
390
F
347
46
348
0
  0
LAYER
  5
323
330
2
100
AcDbSymbolTableRecord
100
AcDbLayerTableRecord
  2
Layer 06$windows
 70
     0
 62
     4
420
    57343
  6
Continuous
370
    -3
390
F
347
46
348
0
  0
ENDTAB
  0
TABLE
  2
STYLE
  5
3
330
0
100
AcDbSymbolTable
 70
     2
  0
STYLE
  5
11
330
3
100
AcDbSymbolTableRecord
100
AcDbTextStyleTableRecord
  2
Standard
 70
     0
 40
0.0
 41
1.0
 50
0.0
 71
     0
 42
0.2
  3
txt
  4

  0
STYLE
  5
71
330
3
100
AcDbSymbolTableRecord
100
AcDbTextStyleTableRecord
  2
ERSTELLTER_STIL_1
 70
     0
 40
0.0
 41
1.0
 50
0.0
 71
     0
 42
0.2
  3

  4

1001
ACAD
1000
apercu light
1071
      256
  0
ENDTAB
  0
TABLE
  2
VIEW
  5
6
330
0
100
AcDbSymbolTable
 70
     0
  0
ENDTAB
  0
TABLE
  2
UCS
  5
7
330
0
100
AcDbSymbolTable
 70
     0
  0
ENDTAB
  0
TABLE
  2
APPID
  5
9
330
0
100
AcDbSymbolTable
 70
     2
  0
APPID
  5
12
330
9
100
AcDbSymbolTableRecord
100
AcDbRegAppTableRecord
  2
ACAD
 70
     0
  0
APPID
  5
5E
330
9
100
AcDbSymbolTableRecord
100
AcDbRegAppTableRecord
  2
Rhino
 70
     0
  0
ENDTAB
  0
TABLE
  2
DIMSTYLE
  5
A
330
0
100
AcDbSymbolTable
 70
     1
100
AcDbDimStyleTable
  0
DIMSTYLE
105
27
330
A
100
AcDbSymbolTableRecord
100
AcDbDimStyleTableRecord
  2
STANDARD_ACAD
 70
     0
178
     0
340
11
  0
ENDTAB
  0
TABLE
  2
BLOCK_RECORD
  5
1
330
0
100
AcDbSymbolTable
 70
     1
  0
BLOCK_RECORD
  5
1F
330
1
100
AcDbSymbolTableRecord
100
AcDbBlockTableRecord
  2
*Model_Space
340
22
 70
     0
280
     1
281
     0
  0
BLOCK_RECORD
  5
1B
330
1
100
AcDbSymbolTableRecord
100
AcDbBlockTableRecord
  2
*Paper_Space
340
1E
 70
     0
280
     1
281
     0
  0
BLOCK_RECORD
  5
23
330
1
100
AcDbSymbolTableRecord
100
AcDbBlockTableRecord
  2
*Paper_Space0
340
26
 70
     0
280
     1
281
     0
  0
ENDTAB
  0
ENDSEC
  0
SECTION
  2
BLOCKS
  0
BLOCK
  5
20
330
1F
100
AcDbEntity
  8
0
100
AcDbBlockBegin
  2
*Model_Space
 70
     0
 10
0.0
 20
0.0
 30
0.0
  3
*Model_Space
  1

  0
ENDBLK
  5
21
330
1F
100
AcDbEntity
  8
0
100
AcDbBlockEnd
  0
BLOCK
  5
1C
330
1B
100
AcDbEntity
 67
     1
  8
0
100
AcDbBlockBegin
  2
*Paper_Space
 70
     0
 10
0.0
 20
0.0
 30
0.0
  3
*Paper_Space
  1

  0
ENDBLK
  5
1D
330
1B
100
AcDbEntity
 67
     1
  8
0
100
AcDbBlockEnd
  0
BLOCK
  5
24
330
23
100
AcDbEntity
  8
0
100
AcDbBlockBegin
  2
*Paper_Space0
 70
     0
 10
0.0
 20
0.0
 30
0.0
  3
*Paper_Space0
  1

  0
ENDBLK
  5
25
330
23
100
AcDbEntity
  8
0
100
AcDbBlockEnd
  0
ENDSEC
  0
SECTION
  2
ENTITIES
  0
POLYLINE
  5
60
330
1F
100
AcDbEntity
  8
Layer 06$areas
100
AcDb2dPolyline
 66
     1
 10
0.0
 20
0.0
 30
0.0
 70
     1
  0
VERTEX
  5
61
330
60
100
AcDbEntity
  8
Layer 06$areas
100
AcDbVertex
100
AcDb2dVertex
 10
18.54879435012117
 20
6.948838246753439
 30
0.0
  0
VERTEX
  5
62
330
60
100
AcDbEntity
  8
Layer 06$areas
100
AcDbVertex
100
AcDb2dVertex
 10
20.55005334783345
 20
6.948838246753439
 30
0.0
  0
VERTEX
  5
63
330
60
100
AcDbEntity
  8
Layer 06$areas
100
AcDbVertex
100
AcDb2dVertex
 10
20.55005334783345
 20
5.205744133796543
 30
0.0
  0
VERTEX
  5
64
330
60
100
AcDbEntity
  8
Layer 06$areas
100
AcDbVertex
100
AcDb2dVertex
 10
18.54879435012117
 20
5.205744133796543
 30
0.0
  0
SEQEND
  5
65
330
60
100
AcDbEntity
  8
Layer 06$areas
  0
POLYLINE
  5
66
330
1F
100
AcDbEntity
  8
Layer 06$areas
100
AcDb2dPolyline
 66
     1
 10
0.0
 20
0.0
 30
0.0
  0
VERTEX
  5
67
330
66
100
AcDbEntity
  8
Layer 06$areas
100
AcDbVertex
100
AcDb2dVertex
 10
18.22221220331267
 20
7.403090538922697
 30
0.0
  0
VERTEX
  5
68
330
66
100
AcDbEntity
  8
Layer 06$areas
100
AcDbVertex
100
AcDb2dVertex
 10
18.22221007896587
 20
7.101939969463274
 30
0.0
  0
SEQEND
  5
69
330
66
100
AcDbEntity
  8
Layer 06$areas
  0
POLYLINE
  5
6A
330
1F
100
AcDbEntity
  8
Layer 06$areas
100
AcDb2dPolyline
 66
     1
 10
0.0
 20
0.0
 30
20.98492494458333
 70
     1
  0
VERTEX
  5
6B
330
6A
100
AcDbEntity
  8
Layer 06$areas
100
AcDbVertex
100
AcDb2dVertex
 10
1.143979709129781
 20
7.404339057859033
 30
20.98492494458333
  0
VERTEX
  5
6C
330
6A
100
AcDbEntity
  8
Layer 06$areas
100
AcDbVertex
100
AcDb2dVertex
 10
4.245614346582443
 20
7.404339057859033
 30
20.98492494458333
  0
VERTEX
  5
6D
330
6A
100
AcDbEntity
  8
Layer 06$areas
100
AcDbVertex
100
AcDb2dVertex
 10
4.245614346582443
 20
9.758203314384446
 30
20.98492494458333
  0
VERTEX
  5
6E
330
6A
100
AcDbEntity
  8
Layer 06$areas
100
AcDbVertex
100
AcDb2dVertex
 10
1.143979709129781
 20
9.758203314384446
 30
20.98492494458333
  0
SEQEND
  5
6F
330
6A
100
AcDbEntity
  8
Layer 06$areas
  0
MTEXT
  5
72
330
1F
100
AcDbEntity
  8
Layer 06$textTags1
370
    13
100
AcDbMText
 10
8.136700024362653
 20
8.92139374022372
 30
0.0
 40
0.3
 41
2.703260869565217
 46
0.1314130434782609
 71
     7
 72
     1
  1
Stairs
  7
ERSTELLTER_STIL_1
 73
     1
 44
1.0
1001
ACAD
1000
ACAD_MTEXT_DEFINED_HEIGHT_BEGIN
1070
    46
1040
0.1314130434782609
1000
ACAD_MTEXT_DEFINED_HEIGHT_END
  0
MTEXT
  5
73
330
1F
100
AcDbEntity
  8
Layer 06$textTags1
370
    13
100
AcDbMText
 10
1.502741255797446
 20
2.717325506033376
 30
0.0
 40
0.3
 41
3.326086956521739
 46
0.1248913043478261
 71
     7
 72
     1
  1
Kitchen
  7
ERSTELLTER_STIL_1
 73
     1
 44
1.0
1001
ACAD
1000
ACAD_MTEXT_DEFINED_HEIGHT_BEGIN
1070
    46
1040
0.1248913043478261
1000
ACAD_MTEXT_DEFINED_HEIGHT_END
  0
POLYLINE
  5
74
330
1F
100
AcDbEntity
  8
Layer 06$areas
100
AcDb3dPolyline
 66
     1
 10
0.0
 20
0.0
 30
0.0
 70
     8
  0
VERTEX
  5
75
330
74
100
AcDbEntity
  8
Layer 06$areas
100
AcDbVertex
100
AcDb3dPolylineVertex
 10
4.345801945310086
 20
0.6654765328858048
 30
0.0
 70
    32
  0
VERTEX
  5
76
330
74
100
AcDbEntity
  8
Layer 06$areas
100
AcDbVertex
100
AcDb3dPolylineVertex
 10
8.721754796802998
 20
0.6654456614051014
 30
0.0
 70
    32
  0
VERTEX
  5
77
330
74
100
AcDbEntity
  8
Layer 06$areas
100
AcDbVertex
100
AcDb3dPolylineVertex
 10
8.721783675719053
 20
4.761718079913408
 30
0.0
 70
    32
  0
VERTEX
  5
78
330
74
100
AcDbEntity
  8
Layer 06$areas
100
AcDbVertex
100
AcDb3dPolylineVertex
 10
6.148080889135599
 20
4.761720291571692
 30
0.0
 70
    32
  0
VERTEX
  5
79
330
74
100
AcDbEntity
  8
Layer 06$areas
100
AcDbVertex
100
AcDb3dPolylineVertex
 10
6.148097639903426
 20
7.097886776085943
 30
0.0
 70
    32
  0
VERTEX
  5
7A
330
74
100
AcDbEntity
  8
Layer 06$areas
100
AcDbVertex
100
AcDb3dPolylineVertex
 10
4.345669244881719
 20
7.096543923253193
 30
20.98492494458333
 70
    32
  0
VERTEX
  5
7B
330
74
100
AcDbEntity
  8
Layer 06$areas
100
AcDbVertex
100
AcDb3dPolylineVertex
 10
4.345828709192574
 20
4.459246730664745
 30
20.98492494458333
 70
    32
  0
SEQEND
  5
7C
330
74
100
AcDbEntity
  8
Layer 06$areas
  0
POLYLINE
  5
7D
330
1F
100
AcDbEntity
  8
Layer 06$areas
100
AcDb2dPolyline
 66
     1
 10
0.0
 20
0.0
 30
4.345801796723075
210
0.9999999999992125
220
-2.232739724872470E-7
230
-1.235021445807893E-6
  0
VERTEX
  5
7E
330
7D
100
AcDbEntity
  8
Layer 06$areas
100
AcDbVertex
100
AcDb2dVertex
 10
4.459247700975074
 20
20.98493031175775
 30
4.345801796723075
  0
VERTEX
  5
7F
330
7D
100
AcDbEntity
  8
Layer 06$areas
100
AcDbVertex
100
AcDb2dVertex
 10
0.6654775031902522
 20
0.0000053671584182
 30
4.345801796723075
  0
SEQEND
  5
80
330
7D
100
AcDbEntity
  8
Layer 06$areas
  0
POLYLINE
  5
81
330
1F
100
AcDbEntity
  8
Layer 06$areas
100
AcDb3dPolyline
 66
     1
 10
0.0
 20
0.0
 30
0.0
 70
     8
  0
VERTEX
  5
82
330
81
100
AcDbEntity
  8
Layer 06$areas
100
AcDbVertex
100
AcDb3dPolylineVertex
 10
4.345828709192574
 20
4.459246730664745
 30
20.98492494458333
 70
    32
  0
VERTEX
  5
83
330
81
100
AcDbEntity
  8
Layer 06$areas
100
AcDbVertex
100
AcDb3dPolylineVertex
 10
3.785684990696609
 20
4.459223370999098
 30
20.98492494458333
 70
    32
  0
VERTEX
  5
84
330
81
100
AcDbEntity
  8
Layer 06$areas
100
AcDbVertex
100
AcDb3dPolylineVertex
 10
3.785642533563077
 20
4.639295002212748
 30
20.98492494458333
 70
    32
  0
VERTEX
  5
85
330
81
100
AcDbEntity
  8
Layer 06$areas
100
AcDbVertex
100
AcDb3dPolylineVertex
 10
1.144691331777722
 20
4.639313633786514
 30
0.0
 70
    32
  0
VERTEX
  5
86
330
81
100
AcDbEntity
  8
Layer 06$areas
100
AcDbVertex
100
AcDb3dPolylineVertex
 10
1.144663297105581
 20
0.665499116294086
 30
0.0
 70
    32
  0
VERTEX
  5
87
330
81
100
AcDbEntity
  8
Layer 06$areas
100
AcDbVertex
100
AcDb3dPolylineVertex
 10
4.345801945310086
 20
0.6654765328858048
 30
0.0
 70
    32
  0
SEQEND
  5
88
330
81
100
AcDbEntity
  8
Layer 06$areas
  0
POLYLINE
  5
89
330
1F
100
AcDbEntity
  8
Layer 06$areas
100
AcDb2dPolyline
 66
     1
 10
0.0
 20
0.0
 30
4.345801796723075
210
0.9999999999992125
220
-2.232739724872470E-7
230
-1.235021445807893E-6
  0
VERTEX
  5
8A
330
89
100
AcDbEntity
  8
Layer 06$areas
100
AcDbVertex
100
AcDb2dVertex
 10
0.6654775031902522
 20
0.0000053671584182
 30
4.345801796723075
  0
VERTEX
  5
8B
330
89
100
AcDbEntity
  8
Layer 06$areas
100
AcDbVertex
100
AcDb2dVertex
 10
4.459247700975074
 20
20.98493031175775
 30
4.345801796723075
  0
SEQEND
  5
8C
330
89
100
AcDbEntity
  8
Layer 06$areas
  0
POLYLINE
  5
8D
330
1F
100
AcDbEntity
  8
Layer 06$areas
100
AcDb2dPolyline
 66
     1
 10
0.0
 20
0.0
 30
4.345801796723075
210
0.9999999999992125
220
-2.232739724872470E-7
230
-1.235021445807893E-6
  0
VERTEX
  5
8E
330
8D
100
AcDbEntity
  8
Layer 06$areas
100
AcDbVertex
100
AcDb2dVertex
 10
4.459247700975074
 20
20.98493031175775
 30
4.345801796723075
  0
VERTEX
  5
8F
330
8D
100
AcDbEntity
  8
Layer 06$areas
100
AcDbVertex
100
AcDb2dVertex
 10
0.6654775031902522
 20
0.0000053671584182
 30
4.345801796723075
  0
SEQEND
  5
90
330
8D
100
AcDbEntity
  8
Layer 06$areas
  0
POLYLINE
  5
91
330
1F
100
AcDbEntity
  8
Layer 06$areas
100
AcDb3dPolyline
 66
     1
 10
0.0
 20
0.0
 30
0.0
 70
     8
  0
VERTEX
  5
92
330
91
100
AcDbEntity
  8
Layer 06$areas
100
AcDbVertex
100
AcDb3dPolylineVertex
 10
4.345801945775747
 20
13.83945785299875
 30
0.0
 70
    32
  0
VERTEX
  5
93
330
91
100
AcDbEntity
  8
Layer 06$areas
100
AcDbVertex
100
AcDb3dPolylineVertex
 10
8.721754796802998
 20
13.83948872447945
 30
0.0
 70
    32
  0
VERTEX
  5
94
330
91
100
AcDbEntity
  8
Layer 06$areas
100
AcDbVertex
100
AcDb3dPolylineVertex
 10
8.721783675719053
 20
9.743216305971146
 30
0.0
 70
    32
  0
VERTEX
  5
95
330
91
100
AcDbEntity
  8
Layer 06$areas
100
AcDbVertex
100
AcDb3dPolylineVertex
 10
6.148080889135599
 20
9.743214094312862
 30
0.0
 70
    32
  0
VERTEX
  5
96
330
91
100
AcDbEntity
  8
Layer 06$areas
100
AcDbVertex
100
AcDb3dPolylineVertex
 10
6.148097639903426
 20
7.40704760979861
 30
0.0
 70
    32
  0
VERTEX
  5
97
330
91
100
AcDbEntity
  8
Layer 06$areas
100
AcDbVertex
100
AcDb3dPolylineVertex
 10
4.345669244881719
 20
7.40839046263136
 30
20.98492494458333
 70
    32
  0
VERTEX
  5
98
330
91
100
AcDbEntity
  8
Layer 06$areas
100
AcDbVertex
100
AcDb3dPolylineVertex
 10
4.345828709192574
 20
10.04568765521981
 30
20.98492494458333
 70
    32
  0
SEQEND
  5
99
330
91
100
AcDbEntity
  8
Layer 06$areas
  0
POLYLINE
  5
9A
330
1F
100
AcDbEntity
  8
Layer 06$areas
100
AcDb2dPolyline
 66
     1
 10
0.0
 20
0.0
 30
4.345805035709295
210
0.9999999999992125
220
2.232700877726322E-7
230
-1.234999957831454E-6
  0
VERTEX
  5
9B
330
9A
100
AcDbEntity
  8
Layer 06$areas
100
AcDbVertex
100
AcDb2dVertex
 10
10.045686684926
 20
20.98493031166837
 30
4.345805035709295
  0
VERTEX
  5
9C
330
9A
100
AcDbEntity
  8
Layer 06$areas
100
AcDbVertex
100
AcDb2dVertex
 10
13.83945688271082
 20
0.0000053670690358
 30
4.345805035709295
  0
SEQEND
  5
9D
330
9A
100
AcDbEntity
  8
Layer 06$areas
  0
POLYLINE
  5
9E
330
1F
100
AcDbEntity
  8
Layer 06$areas
100
AcDb3dPolyline
 66
     1
 10
0.0
 20
0.0
 30
0.0
 70
     8
  0
VERTEX
  5
9F
330
9E
100
AcDbEntity
  8
Layer 06$areas
100
AcDbVertex
100
AcDb3dPolylineVertex
 10
4.345828709192574
 20
10.04568765521981
 30
20.98492494458333
 70
    32
  0
VERTEX
  5
A0
330
9E
100
AcDbEntity
  8
Layer 06$areas
100
AcDbVertex
100
AcDb3dPolylineVertex
 10
3.785684990696609
 20
10.04571101488546
 30
20.98492494458333
 70
    32
  0
VERTEX
  5
A1
330
9E
100
AcDbEntity
  8
Layer 06$areas
100
AcDbVertex
100
AcDb3dPolylineVertex
 10
3.785642533563077
 20
9.865639383671805
 30
20.98492494458333
 70
    32
  0
VERTEX
  5
A2
330
9E
100
AcDbEntity
  8
Layer 06$areas
100
AcDbVertex
100
AcDb3dPolylineVertex
 10
1.144691331777722
 20
9.865620752098039
 30
0.0
 70
    32
  0
VERTEX
  5
A3
330
9E
100
AcDbEntity
  8
Layer 06$areas
100
AcDbVertex
100
AcDb3dPolylineVertex
 10
1.144663297105581
 20
13.83943526959047
 30
0.0
 70
    32
  0
VERTEX
  5
A4
330
9E
100
AcDbEntity
  8
Layer 06$areas
100
AcDbVertex
100
AcDb3dPolylineVertex
 10
4.345801945775747
 20
13.83945785299875
 30
0.0
 70
    32
  0
SEQEND
  5
A5
330
9E
100
AcDbEntity
  8
Layer 06$areas
  0
POLYLINE
  5
A6
330
1F
100
AcDbEntity
  8
Layer 06$areas
100
AcDb2dPolyline
 66
     1
 10
0.0
 20
0.0
 30
4.345805035709295
210
0.9999999999992125
220
2.232700877726322E-7
230
-1.234999957831454E-6
  0
VERTEX
  5
A7
330
A6
100
AcDbEntity
  8
Layer 06$areas
100
AcDbVertex
100
AcDb2dVertex
 10
13.83945688271082
 20
0.0000053670690358
 30
4.345805035709295
  0
VERTEX
  5
A8
330
A6
100
AcDbEntity
  8
Layer 06$areas
100
AcDbVertex
100
AcDb2dVertex
 10
10.045686684926
 20
20.98493031166837
 30
4.345805035709295
  0
SEQEND
  5
A9
330
A6
100
AcDbEntity
  8
Layer 06$areas
  0
POLYLINE
  5
AA
330
1F
100
AcDbEntity
  8
Layer 06$areas
100
AcDb2dPolyline
 66
     1
 10
0.0
 20
0.0
 30
0.0
 70
     1
  0
VERTEX
  5
AB
330
AA
100
AcDbEntity
  8
Layer 06$areas
100
AcDbVertex
100
AcDb2dVertex
 10
17.57579391123727
 20
4.201793349115178
 30
0.0
  0
VERTEX
  5
AC
330
AA
100
AcDbEntity
  8
Layer 06$areas
100
AcDbVertex
100
AcDb2dVertex
 10
18.22218961874023
 20
4.201793349115178
 30
0.0
  0
VERTEX
  5
AD
330
AA
100
AcDbEntity
  8
Layer 06$areas
100
AcDbVertex
100
AcDb2dVertex
 10
18.22218961874023
 20
7.10194452968426
 30
0.0
  0
VERTEX
  5
AE
330
AA
100
AcDbEntity
  8
Layer 06$areas
100
AcDbVertex
100
AcDb2dVertex
 10
17.57579391123727
 20
7.10194452968426
 30
0.0
  0
SEQEND
  5
AF
330
AA
100
AcDbEntity
  8
Layer 06$areas
  0
POLYLINE
  5
B0
330
1F
100
AcDbEntity
  8
Layer 06$areas
100
AcDb2dPolyline
 66
     1
 10
0.0
 20
0.0
 30
0.0
 70
     1
  0
VERTEX
  5
B1
330
B0
100
AcDbEntity
  8
Layer 06$areas
100
AcDbVertex
100
AcDb2dVertex
 10
18.54879435012117
 20
7.556192261865363
 30
0.0
  0
VERTEX
  5
B2
330
B0
100
AcDbEntity
  8
Layer 06$areas
100
AcDbVertex
100
AcDb2dVertex
 10
20.55005334783345
 20
7.556192261865363
 30
0.0
  0
VERTEX
  5
B3
330
B0
100
AcDbEntity
  8
Layer 06$areas
100
AcDbVertex
100
AcDb2dVertex
 10
20.55005334783345
 20
9.299286374822259
 30
0.0
  0
VERTEX
  5
B4
330
B0
100
AcDbEntity
  8
Layer 06$areas
100
AcDbVertex
100
AcDb2dVertex
 10
18.54879435012117
 20
9.299286374822259
 30
0.0
  0
SEQEND
  5
B5
330
B0
100
AcDbEntity
  8
Layer 06$areas
  0
POLYLINE
  5
B6
330
1F
100
AcDbEntity
  8
Layer 06$areas
100
AcDb2dPolyline
 66
     1
 10
0.0
 20
0.0
 30
0.0
  0
VERTEX
  5
B7
330
B6
100
AcDbEntity
  8
Layer 06$areas
100
AcDbVertex
100
AcDb2dVertex
 10
18.22221007896587
 20
7.101939969463274
 30
0.0
  0
VERTEX
  5
B8
330
B6
100
AcDbEntity
  8
Layer 06$areas
100
AcDbVertex
100
AcDb2dVertex
 10
15.57579391123727
 20
7.101958639221266
 30
0.0
  0
SEQEND
  5
B9
330
B6
100
AcDbEntity
  8
Layer 06$areas
  0
POLYLINE
  5
BA
330
1F
100
AcDbEntity
  8
Layer 06$areas
100
AcDb2dPolyline
 66
     1
 10
0.0
 20
0.0
 30
0.0
  0
VERTEX
  5
BB
330
BA
100
AcDbEntity
  8
Layer 06$areas
100
AcDbVertex
100
AcDb2dVertex
 10
15.57579391123727
 20
7.101958639221266
 30
0.0
  0
VERTEX
  5
BC
330
BA
100
AcDbEntity
  8
Layer 06$areas
100
AcDbVertex
100
AcDb2dVertex
 10
15.57577740028501
 20
4.761661174008623
 30
0.0
  0
SEQEND
  5
BD
330
BA
100
AcDbEntity
  8
Layer 06$areas
  0
POLYLINE
  5
BE
330
1F
100
AcDbEntity
  8
Layer 06$areas
100
AcDb2dPolyline
 66
     1
 10
0.0
 20
0.0
 30
0.0
  0
VERTEX
  5
BF
330
BE
100
AcDbEntity
  8
Layer 06$areas
100
AcDbVertex
100
AcDb2dVertex
 10
15.57577740028501
 20
4.761661174008623
 30
0.0
  0
VERTEX
  5
C0
330
BE
100
AcDbEntity
  8
Layer 06$areas
100
AcDbVertex
100
AcDb2dVertex
 10
13.58233171282336
 20
4.761675237445161
 30
0.0
  0
SEQEND
  5
C1
330
BE
100
AcDbEntity
  8
Layer 06$areas
  0
POLYLINE
  5
C2
330
1F
100
AcDbEntity
  8
Layer 06$areas
100
AcDb2dPolyline
 66
     1
 10
0.0
 20
0.0
 30
0.0
  0
VERTEX
  5
C3
330
C2
100
AcDbEntity
  8
Layer 06$areas
100
AcDbVertex
100
AcDb2dVertex
 10
13.58233171282336
 20
4.761675237445161
 30
0.0
  0
VERTEX
  5
C4
330
C2
100
AcDbEntity
  8
Layer 06$areas
100
AcDbVertex
100
AcDb2dVertex
 10
13.58234822330996
 20
7.101972772739828
 30
0.0
  0
SEQEND
  5
C5
330
C2
100
AcDbEntity
  8
Layer 06$areas
  0
POLYLINE
  5
C6
330
1F
100
AcDbEntity
  8
Layer 06$areas
100
AcDb2dPolyline
 66
     1
 10
0.0
 20
0.0
 30
0.0
  0
VERTEX
  5
C7
330
C6
100
AcDbEntity
  8
Layer 06$areas
100
AcDbVertex
100
AcDb2dVertex
 10
13.58234822330996
 20
7.101972772739828
 30
0.0
  0
VERTEX
  5
C8
330
C6
100
AcDbEntity
  8
Layer 06$areas
100
AcDbVertex
100
AcDb2dVertex
 10
11.78269972046837
 20
7.101985485525802
 30
0.0
  0
SEQEND
  5
C9
330
C6
100
AcDbEntity
  8
Layer 06$areas
  0
POLYLINE
  5
CA
330
1F
100
AcDbEntity
  8
Layer 06$areas
100
AcDb2dPolyline
 66
     1
 10
0.0
 20
0.0
 30
0.0
  0
VERTEX
  5
CB
330
CA
100
AcDbEntity
  8
Layer 06$areas
100
AcDbVertex
100
AcDb2dVertex
 10
11.78269972046837
 20
7.101985485525802
 30
0.0
  0
VERTEX
  5
CC
330
CA
100
AcDbEntity
  8
Layer 06$areas
100
AcDbVertex
100
AcDb2dVertex
 10
11.78268804121763
 20
4.761687950463966
 30
0.0
  0
SEQEND
  5
CD
330
CA
100
AcDbEntity
  8
Layer 06$areas
  0
POLYLINE
  5
CE
330
1F
100
AcDbEntity
  8
Layer 06$areas
100
AcDb2dPolyline
 66
     1
 10
0.0
 20
0.0
 30
0.0
  0
VERTEX
  5
CF
330
CE
100
AcDbEntity
  8
Layer 06$areas
100
AcDbVertex
100
AcDb2dVertex
 10
11.78268804121763
 20
4.761687950463966
 30
0.0
  0
VERTEX
  5
D0
330
CE
100
AcDbEntity
  8
Layer 06$areas
100
AcDbVertex
100
AcDb2dVertex
 10
9.008677812293172
 20
4.76170777878724
 30
0.0
  0
SEQEND
  5
D1
330
CE
100
AcDbEntity
  8
Layer 06$areas
  0
POLYLINE
  5
D2
330
1F
100
AcDbEntity
  8
Layer 06$areas
100
AcDb2dPolyline
 66
     1
 10
0.0
 20
0.0
 30
0.0
  0
VERTEX
  5
D3
330
D2
100
AcDbEntity
  8
Layer 06$areas
100
AcDbVertex
100
AcDb2dVertex
 10
9.008677812293172
 20
4.76170777878724
 30
0.0
  0
VERTEX
  5
D4
330
D2
100
AcDbEntity
  8
Layer 06$areas
100
AcDbVertex
100
AcDb2dVertex
 10
9.00864889472723
 20
0.6654435235541314
 30
0.0
  0
SEQEND
  5
D5
330
D2
100
AcDbEntity
  8
Layer 06$areas
  0
POLYLINE
  5
D6
330
1F
100
AcDbEntity
  8
Layer 06$areas
100
AcDb2dPolyline
 66
     1
 10
0.0
 20
0.0
 30
0.0
  0
VERTEX
  5
D7
330
D6
100
AcDbEntity
  8
Layer 06$areas
100
AcDbVertex
100
AcDb2dVertex
 10
9.00864889472723
 20
0.6654435235541314
 30
0.0
  0
VERTEX
  5
D8
330
D6
100
AcDbEntity
  8
Layer 06$areas
100
AcDbVertex
100
AcDb2dVertex
 10
17.57574850227684
 20
0.6653831980656832
 30
0.0
  0
SEQEND
  5
D9
330
D6
100
AcDbEntity
  8
Layer 06$areas
  0
POLYLINE
  5
DA
330
1F
100
AcDbEntity
  8
Layer 06$areas
100
AcDb2dPolyline
 66
     1
 10
0.0
 20
0.0
 30
0.0
  0
VERTEX
  5
DB
330
DA
100
AcDbEntity
  8
Layer 06$areas
100
AcDbVertex
100
AcDb2dVertex
 10
17.57574850227684
 20
0.6653831980656832
 30
0.0
  0
VERTEX
  5
DC
330
DA
100
AcDbEntity
  8
Layer 06$areas
100
AcDbVertex
100
AcDb2dVertex
 10
17.57576509052888
 20
3.001797831850126
 30
0.0
  0
SEQEND
  5
DD
330
DA
100
AcDbEntity
  8
Layer 06$areas
  0
POLYLINE
  5
DE
330
1F
100
AcDbEntity
  8
Layer 06$areas
100
AcDb2dPolyline
 66
     1
 10
0.0
 20
0.0
 30
0.0
  0
VERTEX
  5
DF
330
DE
100
AcDbEntity
  8
Layer 06$areas
100
AcDbVertex
100
AcDb2dVertex
 10
17.57576509052888
 20
3.001797831850126
 30
0.0
  0
VERTEX
  5
E0
330
DE
100
AcDbEntity
  8
Layer 06$areas
100
AcDbVertex
100
AcDb2dVertex
 10
18.22218961874023
 20
3.001779433107004
 30
0.0
  0
SEQEND
  5
E1
330
DE
100
AcDbEntity
  8
Layer 06$areas
  0
POLYLINE
  5
E2
330
1F
100
AcDbEntity
  8
Layer 06$areas
100
AcDb2dPolyline
 66
     1
 10
0.0
 20
0.0
 30
0.0
  0
VERTEX
  5
E3
330
E2
100
AcDbEntity
  8
Layer 06$areas
100
AcDbVertex
100
AcDb2dVertex
 10
18.22218961874023
 20
3.001779433107004
 30
0.0
  0
VERTEX
  5
E4
330
E2
100
AcDbEntity
  8
Layer 06$areas
100
AcDbVertex
100
AcDb2dVertex
 10
18.22221007896587
 20
7.101939969463274
 30
0.0
  0
SEQEND
  5
E5
330
E2
100
AcDbEntity
  8
Layer 06$areas
  0
POLYLINE
  5
E6
330
1F
100
AcDbEntity
  8
Layer 06$areas
100
AcDb2dPolyline
 66
     1
 10
0.0
 20
0.0
 30
0.0
  0
VERTEX
  5
E7
330
E6
100
AcDbEntity
  8
Layer 06$areas
100
AcDbVertex
100
AcDb2dVertex
 10
15.57579391123727
 20
7.402975746663287
 30
0.0
  0
VERTEX
  5
E8
330
E6
100
AcDbEntity
  8
Layer 06$areas
100
AcDbVertex
100
AcDb2dVertex
 10
15.57577740028501
 20
9.74327321187593
 30
0.0
  0
SEQEND
  5
E9
330
E6
100
AcDbEntity
  8
Layer 06$areas
  0
POLYLINE
  5
EA
330
1F
100
AcDbEntity
  8
Layer 06$areas
100
AcDb2dPolyline
 66
     1
 10
0.0
 20
0.0
 30
0.0
  0
VERTEX
  5
EB
330
EA
100
AcDbEntity
  8
Layer 06$areas
100
AcDbVertex
100
AcDb2dVertex
 10
15.57577740028501
 20
9.74327321187593
 30
0.0
  0
VERTEX
  5
EC
330
EA
100
AcDbEntity
  8
Layer 06$areas
100
AcDbVertex
100
AcDb2dVertex
 10
13.58233171282336
 20
9.743259148439392
 30
0.0
  0
SEQEND
  5
ED
330
EA
100
AcDbEntity
  8
Layer 06$areas
  0
POLYLINE
  5
EE
330
1F
100
AcDbEntity
  8
Layer 06$areas
100
AcDb2dPolyline
 66
     1
 10
0.0
 20
0.0
 30
0.0
  0
VERTEX
  5
EF
330
EE
100
AcDbEntity
  8
Layer 06$areas
100
AcDbVertex
100
AcDb2dVertex
 10
13.58233171282336
 20
9.743259148439392
 30
0.0
  0
VERTEX
  5
F0
330
EE
100
AcDbEntity
  8
Layer 06$areas
100
AcDbVertex
100
AcDb2dVertex
 10
13.58234822330996
 20
7.402961613144726
 30
0.0
  0
SEQEND
  5
F1
330
EE
100
AcDbEntity
  8
Layer 06$areas
  0
POLYLINE
  5
F2
330
1F
100
AcDbEntity
  8
Layer 06$areas
100
AcDb2dPolyline
 66
     1
 10
0.0
 20
0.0
 30
0.0
  0
VERTEX
  5
F3
330
F2
100
AcDbEntity
  8
Layer 06$areas
100
AcDbVertex
100
AcDb2dVertex
 10
13.58234822330996
 20
7.402961613144726
 30
0.0
  0
VERTEX
  5
F4
330
F2
100
AcDbEntity
  8
Layer 06$areas
100
AcDbVertex
100
AcDb2dVertex
 10
11.78269972046837
 20
7.402948900358751
 30
0.0
  0
SEQEND
  5
F5
330
F2
100
AcDbEntity
  8
Layer 06$areas
  0
POLYLINE
  5
F6
330
1F
100
AcDbEntity
  8
Layer 06$areas
100
AcDb2dPolyline
 66
     1
 10
0.0
 20
0.0
 30
0.0
  0
VERTEX
  5
F7
330
F6
100
AcDbEntity
  8
Layer 06$areas
100
AcDbVertex
100
AcDb2dVertex
 10
11.78269972046837
 20
7.402948900358751
 30
0.0
  0
VERTEX
  5
F8
330
F6
100
AcDbEntity
  8
Layer 06$areas
100
AcDbVertex
100
AcDb2dVertex
 10
11.78268804121763
 20
9.743246435420588
 30
0.0
  0
SEQEND
  5
F9
330
F6
100
AcDbEntity
  8
Layer 06$areas
  0
POLYLINE
  5
FA
330
1F
100
AcDbEntity
  8
Layer 06$areas
100
AcDb2dPolyline
 66
     1
 10
0.0
 20
0.0
 30
0.0
  0
VERTEX
  5
FB
330
FA
100
AcDbEntity
  8
Layer 06$areas
100
AcDbVertex
100
AcDb2dVertex
 10
11.78268804121763
 20
9.743246435420588
 30
0.0
  0
VERTEX
  5
FC
330
FA
100
AcDbEntity
  8
Layer 06$areas
100
AcDbVertex
100
AcDb2dVertex
 10
9.008677812293172
 20
9.743226607097313
 30
0.0
  0
SEQEND
  5
FD
330
FA
100
AcDbEntity
  8
Layer 06$areas
  0
POLYLINE
  5
FE
330
1F
100
AcDbEntity
  8
Layer 06$areas
100
AcDb2dPolyline
 66
     1
 10
0.0
 20
0.0
 30
0.0
  0
VERTEX
  5
FF
330
FE
100
AcDbEntity
  8
Layer 06$areas
100
AcDbVertex
100
AcDb2dVertex
 10
9.008677812293172
 20
9.743226607097313
 30
0.0
  0
VERTEX
  5
100
330
FE
100
AcDbEntity
  8
Layer 06$areas
100
AcDbVertex
100
AcDb2dVertex
 10
9.00864889472723
 20
13.83949086233042
 30
0.0
  0
SEQEND
  5
101
330
FE
100
AcDbEntity
  8
Layer 06$areas
  0
POLYLINE
  5
102
330
1F
100
AcDbEntity
  8
Layer 06$areas
100
AcDb2dPolyline
 66
     1
 10
0.0
 20
0.0
 30
0.0
  0
VERTEX
  5
103
330
102
100
AcDbEntity
  8
Layer 06$areas
100
AcDbVertex
100
AcDb2dVertex
 10
9.00864889472723
 20
13.83949086233042
 30
0.0
  0
VERTEX
  5
104
330
102
100
AcDbEntity
  8
Layer 06$areas
100
AcDbVertex
100
AcDb2dVertex
 10
17.57574850227684
 20
13.83955118781887
 30
0.0
  0
SEQEND
  5
105
330
102
100
AcDbEntity
  8
Layer 06$areas
  0
POLYLINE
  5
106
330
1F
100
AcDbEntity
  8
Layer 06$areas
100
AcDb2dPolyline
 66
     1
 10
0.0
 20
0.0
 30
0.0
  0
VERTEX
  5
107
330
106
100
AcDbEntity
  8
Layer 06$areas
100
AcDbVertex
100
AcDb2dVertex
 10
17.57574850227684
 20
13.83955118781887
 30
0.0
  0
VERTEX
  5
108
330
106
100
AcDbEntity
  8
Layer 06$areas
100
AcDbVertex
100
AcDb2dVertex
 10
17.57576509052888
 20
11.50313655403443
 30
0.0
  0
SEQEND
  5
109
330
106
100
AcDbEntity
  8
Layer 06$areas
  0
POLYLINE
  5
10A
330
1F
100
AcDbEntity
  8
Layer 06$areas
100
AcDb2dPolyline
 66
     1
 10
0.0
 20
0.0
 30
0.0
  0
VERTEX
  5
10B
330
10A
100
AcDbEntity
  8
Layer 06$areas
100
AcDbVertex
100
AcDb2dVertex
 10
17.57576509052888
 20
11.50313655403443
 30
0.0
  0
VERTEX
  5
10C
330
10A
100
AcDbEntity
  8
Layer 06$areas
100
AcDbVertex
100
AcDb2dVertex
 10
17.57579603558406
 20
7.403095099376515
 30
0.0
  0
SEQEND
  5
10D
330
10A
100
AcDbEntity
  8
Layer 06$areas
  0
POLYLINE
  5
10E
330
1F
100
AcDbEntity
  8
Layer 06$areas
100
AcDb2dPolyline
 66
     1
 10
0.0
 20
0.0
 30
0.0
  0
VERTEX
  5
10F
330
10E
100
AcDbEntity
  8
Layer 06$areas
100
AcDbVertex
100
AcDb2dVertex
 10
17.57579603558406
 20
7.403095099376515
 30
0.0
  0
VERTEX
  5
110
330
10E
100
AcDbEntity
  8
Layer 06$areas
100
AcDbVertex
100
AcDb2dVertex
 10
15.57579391123727
 20
7.402975746663287
 30
0.0
  0
SEQEND
  5
111
330
10E
100
AcDbEntity
  8
Layer 06$areas
  0
POLYLINE
  5
112
330
1F
100
AcDbEntity
  8
Layer 06$areas
100
AcDb2dPolyline
 66
     1
 10
0.0
 20
0.0
 30
0.0
 70
     1
  0
VERTEX
  5
113
330
112
100
AcDbEntity
  8
Layer 06$areas
100
AcDbVertex
100
AcDb2dVertex
 10
17.57581648230553
 20
7.403090538922697
 30
0.0
  0
VERTEX
  5
114
330
112
100
AcDbEntity
  8
Layer 06$areas
100
AcDbVertex
100
AcDb2dVertex
 10
18.22221220331267
 20
7.403090538922697
 30
0.0
  0
VERTEX
  5
115
330
112
100
AcDbEntity
  8
Layer 06$areas
100
AcDbVertex
100
AcDb2dVertex
 10
18.22221220331267
 20
10.30133459717035
 30
0.0
  0
VERTEX
  5
116
330
112
100
AcDbEntity
  8
Layer 06$areas
100
AcDbVertex
100
AcDb2dVertex
 10
17.57581648230553
 20
10.30133459717035
 30
0.0
  0
SEQEND
  5
117
330
112
100
AcDbEntity
  8
Layer 06$areas
  0
MTEXT
  5
118
330
1F
100
AcDbEntity
  8
Layer 06$textTags1
370
    13
100
AcDbMText
 10
12.15950528951362
 20
12.01122419792227
 30
0.0
 40
0.3
 41
4.949999999999999
 46
0.2080434782608695
 71
     7
 72
     1
  1
LivingRoom
  7
ERSTELLTER_STIL_1
 73
     1
 44
1.0
1001
ACAD
1000
ACAD_MTEXT_DEFINED_HEIGHT_BEGIN
1070
    46
1040
0.2080434782608695
1000
ACAD_MTEXT_DEFINED_HEIGHT_END
  0
MTEXT
  5
119
330
1F
100
AcDbEntity
  8
Layer 06$textTags1
370
    13
100
AcDbMText
 10
5.135732769034803
 20
2.373643201775849
 30
0.0
 40
0.3
 41
4.949999999999999
 46
0.2080434782608695
 71
     7
 72
     1
  1
LivingRoom
  7
ERSTELLTER_STIL_1
 73
     1
 44
1.0
1001
ACAD
1000
ACAD_MTEXT_DEFINED_HEIGHT_BEGIN
1070
    46
1040
0.2080434782608695
1000
ACAD_MTEXT_DEFINED_HEIGHT_END
  0
MTEXT
  5
11A
330
1F
100
AcDbEntity
  8
Layer 06$textTags1
370
    13
100
AcDbMText
 10
5.135732769034803
 20
12.01122419792227
 30
0.0
 40
0.3
 41
4.949999999999999
 46
0.2080434782608695
 71
     7
 72
     1
  1
LivingRoom
  7
ERSTELLTER_STIL_1
 73
     1
 44
1.0
1001
ACAD
1000
ACAD_MTEXT_DEFINED_HEIGHT_BEGIN
1070
    46
1040
0.2080434782608695
1000
ACAD_MTEXT_DEFINED_HEIGHT_END
  0
MTEXT
  5
11B
330
1F
100
AcDbEntity
  8
Layer 06$textTags1
370
    13
100
AcDbMText
 10
1.502741255797446
 20
12.01122419792227
 30
0.0
 40
0.3
 41
3.326086956521739
 46
0.1248913043478261
 71
     7
 72
     1
  1
Kitchen
  7
ERSTELLTER_STIL_1
 73
     1
 44
1.0
1001
ACAD
1000
ACAD_MTEXT_DEFINED_HEIGHT_BEGIN
1070
    46
1040
0.1248913043478261
1000
ACAD_MTEXT_DEFINED_HEIGHT_END
  0
MTEXT
  5
11C
330
1F
100
AcDbEntity
  8
Layer 06$textTags1
370
    13
100
AcDbMText
 10
17.98148104129359
 20
12.63274496025406
 30
0.0
 40
0.3
 41
4.160869565217391
 46
0.1248913043478261
 71
     7
 72
     1
  1
Bathroom
  7
ERSTELLTER_STIL_1
 73
     1
 44
1.0
1001
ACAD
1000
ACAD_MTEXT_DEFINED_HEIGHT_BEGIN
1070
    46
1040
0.1248913043478261
1000
ACAD_MTEXT_DEFINED_HEIGHT_END
  0
MTEXT
  5
11D
330
1F
100
AcDbEntity
  8
Layer 06$textTags1
370
    13
100
AcDbMText
 10
1.946150789968669
 20
5.827172951307148
 30
0.0
 40
0.3
 41
4.160869565217391
 46
0.1248913043478261
 71
     7
 72
     1
  1
Bathroom
  7
ERSTELLTER_STIL_1
 73
     1
 44
1.0
1001
ACAD
1000
ACAD_MTEXT_DEFINED_HEIGHT_BEGIN
1070
    46
1040
0.1248913043478261
1000
ACAD_MTEXT_DEFINED_HEIGHT_END
  0
MTEXT
  5
11E
330
1F
100
AcDbEntity
  8
Layer 06$textTags1
370
    13
100
AcDbMText
 10
1.946150789968669
 20
8.113732606172562
 30
0.0
 40
0.3
 41
4.160869565217391
 46
0.1248913043478261
 71
     7
 72
     1
  1
Bathroom
  7
ERSTELLTER_STIL_1
 73
     1
 44
1.0
1001
ACAD
1000
ACAD_MTEXT_DEFINED_HEIGHT_BEGIN
1070
    46
1040
0.1248913043478261
1000
ACAD_MTEXT_DEFINED_HEIGHT_END
  0
MTEXT
  5
11F
330
1F
100
AcDbEntity
  8
Layer 06$textTags1
370
    13
100
AcDbMText
 10
8.136700024362653
 20
5.271692752838135
 30
0.0
 40
0.3
 41
2.703260869565217
 46
0.1314130434782609
 71
     7
 72
     1
  1
Stairs
  7
ERSTELLTER_STIL_1
 73
     1
 44
1.0
1001
ACAD
1000
ACAD_MTEXT_DEFINED_HEIGHT_BEGIN
1070
    46
1040
0.1314130434782609
1000
ACAD_MTEXT_DEFINED_HEIGHT_END
  0
MTEXT
  5
120
330
1F
100
AcDbEntity
  8
Layer 06$textTags1
370
    13
100
AcDbMText
 10
8.136700024362653
 20
7.26944667706266
 30
0.0
 40
0.3
 41
3.671739130434783
 46
0.1248913043478261
 71
     7
 72
     1
  1
Elevator
  7
ERSTELLTER_STIL_1
 73
     1
 44
1.0
1001
ACAD
1000
ACAD_MTEXT_DEFINED_HEIGHT_BEGIN
1070
    46
1040
0.1248913043478261
1000
ACAD_MTEXT_DEFINED_HEIGHT_END
  0
MTEXT
  5
121
330
1F
100
AcDbEntity
  8
Layer 06$textTags1
370
    13
100
AcDbMText
 10
13.22696367837489
 20
-1.253221366787329
 30
0.0
 40
0.3
 41
3.560869565217391
 46
0.2080434782608695
 71
     7
 72
     1
  1
Balcony
  7
ERSTELLTER_STIL_1
 73
     1
 44
1.0
1001
ACAD
1000
ACAD_MTEXT_DEFINED_HEIGHT_BEGIN
1070
    46
1040
0.2080434782608695
1000
ACAD_MTEXT_DEFINED_HEIGHT_END
  0
MTEXT
  5
122
330
1F
100
AcDbEntity
  8
Layer 06$textTags1
370
    13
100
AcDbMText
 10
17.98148104129359
 20
1.440283024683595
 30
0.0
 40
0.3
 41
4.160869565217391
 46
0.1248913043478261
 71
     7
 72
     1
  1
Bathroom
  7
ERSTELLTER_STIL_1
 73
     1
 44
1.0
1001
ACAD
1000
ACAD_MTEXT_DEFINED_HEIGHT_BEGIN
1070
    46
1040
0.1248913043478261
1000
ACAD_MTEXT_DEFINED_HEIGHT_END
  0
MTEXT
  5
123
330
1F
100
AcDbEntity
  8
Layer 06$textTags1
370
    13
100
AcDbMText
 10
18.69551965501159
 20
3.626288226107135
 30
0.0
 40
0.3
 41
3.622826086956522
 46
0.1314130434782609
 71
     7
 72
     1
  1
Corridor
  7
ERSTELLTER_STIL_1
 73
     1
 44
1.0
1001
ACAD
1000
ACAD_MTEXT_DEFINED_HEIGHT_BEGIN
1070
    46
1040
0.1314130434782609
1000
ACAD_MTEXT_DEFINED_HEIGHT_END
  0
MTEXT
  5
124
330
1F
100
AcDbEntity
  8
Layer 06$textTags1
370
    13
100
AcDbMText
 10
18.69551965501159
 20
5.937598079675809
 30
0.0
 40
0.3
 41
1.959782608695652
 46
0.1314130434782609
 71
     7
 72
     1
  1
WC
  7
ERSTELLTER_STIL_1
 73
     1
 44
1.0
1001
ACAD
1000
ACAD_MTEXT_DEFINED_HEIGHT_BEGIN
1070
    46
1040
0.1314130434782609
1000
ACAD_MTEXT_DEFINED_HEIGHT_END
  0
MTEXT
  5
125
330
1F
100
AcDbEntity
  8
Layer 06$textTags1
370
    13
100
AcDbMText
 10
12.15950528951362
 20
2.522001630626619
 30
0.0
 40
0.3
 41
5.413043478260869
 46
0.2080434782608695
 71
     7
 72
     1
  1
LinvingRoom
  7
ERSTELLTER_STIL_1
 73
     1
 44
1.0
1001
ACAD
1000
ACAD_MTEXT_DEFINED_HEIGHT_BEGIN
1070
    46
1040
0.2080434782608695
1000
ACAD_MTEXT_DEFINED_HEIGHT_END
  0
MTEXT
  5
126
330
1F
100
AcDbEntity
  8
Layer 06$textTags1
370
    13
100
AcDbMText
 10
13.91206664778292
 20
5.271692752838135
 30
0.0
 40
0.3
 41
3.485869565217391
 46
0.2129347826086956
 71
     7
 72
     1
  1
Storage
  7
ERSTELLTER_STIL_1
 73
     1
 44
1.0
1001
ACAD
1000
ACAD_MTEXT_DEFINED_HEIGHT_BEGIN
1070
    46
1040
0.2129347826086956
1000
ACAD_MTEXT_DEFINED_HEIGHT_END
  0
MTEXT
  5
127
330
1F
100
AcDbEntity
  8
Layer 06$textTags1
370
    13
100
AcDbMText
 10
22.25788852805272
 20
1.691218336578459
 30
0.0
 40
0.3
 41
3.929347826086957
 46
0.1248913043478261
 71
     7
 72
     1
  1
Bedroom
  7
ERSTELLTER_STIL_1
 73
     1
 44
1.0
1001
ACAD
1000
ACAD_MTEXT_DEFINED_HEIGHT_BEGIN
1070
    46
1040
0.1248913043478261
1000
ACAD_MTEXT_DEFINED_HEIGHT_END
  0
MTEXT
  5
128
330
1F
100
AcDbEntity
  8
Layer 06$textTags1
370
    13
100
AcDbMText
 10
22.25788852805272
 20
4.905300347600132
 30
0.0
 40
0.3
 41
3.929347826086957
 46
0.1248913043478261
 71
     7
 72
     1
  1
Bedroom
  7
ERSTELLTER_STIL_1
 73
     1
 44
1.0
1001
ACAD
1000
ACAD_MTEXT_DEFINED_HEIGHT_BEGIN
1070
    46
1040
0.1248913043478261
1000
ACAD_MTEXT_DEFINED_HEIGHT_END
  0
MTEXT
  5
129
330
1F
100
AcDbEntity
  8
Layer 06$textTags1
370
    13
100
AcDbMText
 10
13.91206664778292
 20
8.393726127687842
 30
0.0
 40
0.3
 41
3.485869565217391
 46
0.2129347826086956
 71
     7
 72
     1
  1
Storage
  7
ERSTELLTER_STIL_1
 73
     1
 44
1.0
1001
ACAD
1000
ACAD_MTEXT_DEFINED_HEIGHT_BEGIN
1070
    46
1040
0.2129347826086956
1000
ACAD_MTEXT_DEFINED_HEIGHT_END
  0
MTEXT
  5
12A
330
1F
100
AcDbEntity
  8
Layer 06$textTags1
370
    13
100
AcDbMText
 10
13.22696367837489
 20
15.72136335424148
 30
0.0
 40
0.3
 41
3.560869565217391
 46
0.2080434782608695
 71
     7
 72
     1
  1
Balcony
  7
ERSTELLTER_STIL_1
 73
     1
 44
1.0
1001
ACAD
1000
ACAD_MTEXT_DEFINED_HEIGHT_BEGIN
1070
    46
1040
0.2080434782608695
1000
ACAD_MTEXT_DEFINED_HEIGHT_END
  0
MTEXT
  5
12B
330
1F
100
AcDbEntity
  8
Layer 06$textTags1
370
    13
100
AcDbMText
 10
22.25788852805272
 20
12.01122419792227
 30
0.0
 40
0.3
 41
3.929347826086957
 46
0.1248913043478261
 71
     7
 72
     1
  1
Bedroom
  7
ERSTELLTER_STIL_1
 73
     1
 44
1.0
1001
ACAD
1000
ACAD_MTEXT_DEFINED_HEIGHT_BEGIN
1070
    46
1040
0.1248913043478261
1000
ACAD_MTEXT_DEFINED_HEIGHT_END
  0
MTEXT
  5
12C
330
1F
100
AcDbEntity
  8
Layer 06$textTags1
370
    13
100
AcDbMText
 10
22.25788852805272
 20
8.7971421869006
 30
0.0
 40
0.3
 41
3.929347826086957
 46
0.1248913043478261
 71
     7
 72
     1
  1
Bedroom
  7
ERSTELLTER_STIL_1
 73
     1
 44
1.0
1001
ACAD
1000
ACAD_MTEXT_DEFINED_HEIGHT_BEGIN
1070
    46
1040
0.1248913043478261
1000
ACAD_MTEXT_DEFINED_HEIGHT_END
  0
MTEXT
  5
12D
330
1F
100
AcDbEntity
  8
Layer 06$textTags1
370
    13
100
AcDbMText
 10
18.69551965501159
 20
8.206568814115599
 30
0.0
 40
0.3
 41
1.959782608695652
 46
0.1314130434782609
 71
     7
 72
     1
  1
WC
  7
ERSTELLTER_STIL_1
 73
     1
 44
1.0
1001
ACAD
1000
ACAD_MTEXT_DEFINED_HEIGHT_BEGIN
1070
    46
1040
0.1314130434782609
1000
ACAD_MTEXT_DEFINED_HEIGHT_END
  0
MTEXT
  5
12E
330
1F
100
AcDbEntity
  8
Layer 06$textTags1
370
    13
100
AcDbMText
 10
18.69551965501159
 20
10.90810128045268
 30
0.0
 40
0.3
 41
3.622826086956522
 46
0.1314130434782609
 71
     7
 72
     1
  1
Corridor
  7
ERSTELLTER_STIL_1
 73
     1
 44
1.0
1001
ACAD
1000
ACAD_MTEXT_DEFINED_HEIGHT_BEGIN
1070
    46
1040
0.1314130434782609
1000
ACAD_MTEXT_DEFINED_HEIGHT_END
  0
POLYLINE
  5
130
330
1F
100
AcDbEntity
  8
Layer 06$walls
  6
Continuous
370
    13
100
AcDb2dPolyline
 66
     1
 10
0.0
 20
0.0
 30
20.98492494458333
 70
     1
  0
VERTEX
  5
131
330
130
100
AcDbEntity
  8
Layer 06$walls
  6
Continuous
370
    13
100
AcDbVertex
100
AcDb2dVertex
 10
4.345669244881719
 20
7.096543923253193
 30
20.98492494458333
  0
VERTEX
  5
132
330
130
100
AcDbEntity
  8
Layer 06$walls
  6
Continuous
370
    13
100
AcDbVertex
100
AcDb2dVertex
 10
4.345781395211816
 20
4.739318369654939
 30
20.98492494458333
  0
VERTEX
  5
133
330
130
100
AcDbEntity
  8
Layer 06$walls
  6
Continuous
370
    13
100
AcDbVertex
100
AcDb2dVertex
 10
4.245781395118684
 20
4.739313633646816
 30
20.98492494458333
  0
VERTEX
  5
134
330
130
100
AcDbEntity
  8
Layer 06$walls
  6
Continuous
370
    13
100
AcDbVertex
100
AcDb2dVertex
 10
4.245668251998723
 20
7.096469417447224
 30
20.98492494458333
  0
SEQEND
  5
135
330
130
100
AcDbEntity
  8
Layer 06$walls
  6
Continuous
370
    13
  0
POLYLINE
  5
136
330
1F
100
AcDbEntity
  8
Layer 06$walls
  6
Continuous
370
    13
100
AcDb2dPolyline
 66
     1
 10
0.0
 20
0.0
 30
20.98492494458333
 70
     1
  0
VERTEX
  5
137
330
136
100
AcDbEntity
  8
Layer 06$walls
  6
Continuous
370
    13
100
AcDbVertex
100
AcDb2dVertex
 10
3.785637677181512
 20
4.73929500230588
 30
20.98492494458333
  0
VERTEX
  5
138
330
136
100
AcDbEntity
  8
Layer 06$walls
  6
Continuous
370
    13
100
AcDbVertex
100
AcDb2dVertex
 10
1.144692036788911
 20
4.739166782004759
 30
20.98492494458333
  0
VERTEX
  5
139
330
136
100
AcDbEntity
  8
Layer 06$walls
  6
Continuous
370
    13
100
AcDbVertex
100
AcDb2dVertex
 10
1.144691330846399
 20
4.639166782377288
 30
20.98492494458333
  0
VERTEX
  5
13A
330
136
100
AcDbEntity
  8
Layer 06$walls
  6
Continuous
370
    13
100
AcDbVertex
100
AcDb2dVertex
 10
3.785642533563077
 20
4.639295002212748
 30
20.98492494458333
  0
SEQEND
  5
13B
330
136
100
AcDbEntity
  8
Layer 06$walls
  6
Continuous
370
    13
  0
POLYLINE
  5
13C
330
1F
100
AcDbEntity
  8
Layer 06$walls
  6
Continuous
370
    13
100
AcDb2dPolyline
 66
     1
 10
0.0
 20
0.0
 30
20.98492494458333
 70
     1
  0
VERTEX
  5
13D
330
13C
100
AcDbEntity
  8
Layer 06$walls
  6
Continuous
370
    13
100
AcDbVertex
100
AcDb2dVertex
 10
4.345614339690655
 20
7.40437542903237
 30
20.98492494458333
  0
VERTEX
  5
13E
330
13C
100
AcDbEntity
  8
Layer 06$walls
  6
Continuous
370
    13
100
AcDbVertex
100
AcDb2dVertex
 10
4.344757802318782
 20
9.759367471328005
 30
20.98492494458333
  0
VERTEX
  5
13F
330
13C
100
AcDbEntity
  8
Layer 06$walls
  6
Continuous
370
    13
100
AcDbVertex
100
AcDb2dVertex
 10
4.244757809210569
 20
9.759331100387499
 30
20.98492494458333
  0
VERTEX
  5
140
330
13C
100
AcDbEntity
  8
Layer 06$walls
  6
Continuous
370
    13
100
AcDbVertex
100
AcDb2dVertex
 10
4.245614346582443
 20
7.404339057859033
 30
20.98492494458333
  0
SEQEND
  5
141
330
13C
100
AcDbEntity
  8
Layer 06$walls
  6
Continuous
370
    13
  0
POLYLINE
  5
142
330
1F
100
AcDbEntity
  8
Layer 06$walls
  6
Continuous
370
    13
100
AcDb2dPolyline
 66
     1
 10
0.0
 20
0.0
 30
20.98492494458333
 70
     1
  0
VERTEX
  5
143
330
142
100
AcDbEntity
  8
Layer 06$walls
  6
Continuous
370
    13
100
AcDbVertex
100
AcDb2dVertex
 10
3.784614122007042
 20
9.7591605798807
 30
20.98492494458333
  0
VERTEX
  5
144
330
142
100
AcDbEntity
  8
Layer 06$walls
  6
Continuous
370
    13
100
AcDbVertex
100
AcDb2dVertex
 10
1.143979709129781
 20
9.758203314384446
 30
20.98492494458333
  0
VERTEX
  5
145
330
142
100
AcDbEntity
  8
Layer 06$walls
  6
Continuous
370
    13
100
AcDbVertex
100
AcDb2dVertex
 10
1.143943457864225
 20
9.85820330795832
 30
20.98492494458333
  0
VERTEX
  5
146
330
142
100
AcDbEntity
  8
Layer 06$walls
  6
Continuous
370
    13
100
AcDbVertex
100
AcDb2dVertex
 10
3.784577870741487
 20
9.859160573454574
 30
20.98492494458333
  0
SEQEND
  5
147
330
142
100
AcDbEntity
  8
Layer 06$walls
  6
Continuous
370
    13
  0
POLYLINE
  5
148
330
1F
100
AcDbEntity
  8
Layer 06$walls
  6
Continuous
370
    13
100
AcDb2dPolyline
 66
     1
 10
0.0
 20
0.0
 30
20.98492494458333
 70
     1
  0
VERTEX
  5
149
330
148
100
AcDbEntity
  8
Layer 06$walls
  6
Continuous
370
    13
100
AcDbVertex
100
AcDb2dVertex
 10
15.47579603595659
 20
7.40310991439037
 30
20.98492494458333
  0
VERTEX
  5
14A
330
148
100
AcDbEntity
  8
Layer 06$walls
  6
Continuous
370
    13
100
AcDbVertex
100
AcDb2dVertex
 10
15.47581183025613
 20
9.641928388737142
 30
20.98492494458333
  0
VERTEX
  5
14B
330
148
100
AcDbEntity
  8
Layer 06$walls
  6
Continuous
370
    13
100
AcDbVertex
100
AcDb2dVertex
 10
13.68236614204943
 20
9.641940971137956
 30
20.98492494458333
  0
VERTEX
  5
14C
330
148
100
AcDbEntity
  8
Layer 06$walls
  6
Continuous
370
    13
100
AcDbVertex
100
AcDb2dVertex
 10
13.68235034774989
 20
7.403122566640377
 30
20.98492494458333
  0
VERTEX
  5
14D
330
148
100
AcDbEntity
  8
Layer 06$walls
  6
Continuous
370
    13
100
AcDbVertex
100
AcDb2dVertex
 10
13.58235034765676
 20
7.403123271884397
 30
20.98492494458333
  0
VERTEX
  5
14E
330
148
100
AcDbEntity
  8
Layer 06$walls
  6
Continuous
370
    13
100
AcDbVertex
100
AcDb2dVertex
 10
13.58236684743315
 20
9.741914415033534
 30
20.98492494458333
  0
VERTEX
  5
14F
330
148
100
AcDbEntity
  8
Layer 06$walls
  6
Continuous
370
    13
100
AcDbVertex
100
AcDb2dVertex
 10
15.57581254420802
 20
9.741900351829827
 30
20.98492494458333
  0
VERTEX
  5
150
330
148
100
AcDbEntity
  8
Layer 06$walls
  6
Continuous
370
    13
100
AcDbVertex
100
AcDb2dVertex
 10
15.57579600997269
 20
7.403109208680689
 30
20.98492494458333
  0
SEQEND
  5
151
330
148
100
AcDbEntity
  8
Layer 06$walls
  6
Continuous
370
    13
  0
POLYLINE
  5
152
330
1F
100
AcDbEntity
  8
Layer 06$walls
  6
Continuous
370
    13
100
AcDb2dPolyline
 66
     1
 10
0.0
 20
0.0
 30
20.98492494458333
 70
     1
  0
VERTEX
  5
153
330
152
100
AcDbEntity
  8
Layer 06$walls
  6
Continuous
370
    13
100
AcDbVertex
100
AcDb2dVertex
 10
4.345828709192574
 20
4.459246730664745
 30
20.98492494458333
  0
VERTEX
  5
154
330
152
100
AcDbEntity
  8
Layer 06$walls
  6
Continuous
370
    13
100
AcDbVertex
100
AcDb2dVertex
 10
3.785684990696609
 20
4.459223370999098
 30
20.98492494458333
  0
VERTEX
  5
155
330
152
100
AcDbEntity
  8
Layer 06$walls
  6
Continuous
370
    13
100
AcDbVertex
100
AcDb2dVertex
 10
3.785673311911523
 20
4.739295231411234
 30
20.98492494458333
  0
VERTEX
  5
156
330
152
100
AcDbEntity
  8
Layer 06$walls
  6
Continuous
370
    13
100
AcDbVertex
100
AcDb2dVertex
 10
4.345817029476166
 20
4.739318589679897
 30
20.98492494458333
  0
SEQEND
  5
157
330
152
100
AcDbEntity
  8
Layer 06$walls
  6
Continuous
370
    13
  0
POLYLINE
  5
158
330
1F
100
AcDbEntity
  8
Layer 06$walls
  6
Continuous
370
    13
100
AcDb2dPolyline
 66
     1
 10
0.0
 20
0.0
 30
20.98492494458333
 70
     1
  0
VERTEX
  5
159
330
158
100
AcDbEntity
  8
Layer 06$walls
  6
Continuous
370
    13
100
AcDbVertex
100
AcDb2dVertex
 10
4.344689986668527
 20
10.03943910636008
 30
20.98492494458333
  0
VERTEX
  5
15A
330
158
100
AcDbEntity
  8
Layer 06$walls
  6
Continuous
370
    13
100
AcDbVertex
100
AcDb2dVertex
 10
3.784546305891126
 20
10.03923220722936
 30
20.98492494458333
  0
VERTEX
  5
15B
330
158
100
AcDbEntity
  8
Layer 06$walls
  6
Continuous
370
    13
100
AcDbVertex
100
AcDb2dVertex
 10
3.784649756737053
 20
9.759160365676507
 30
20.98492494458333
  0
VERTEX
  5
15C
330
158
100
AcDbEntity
  8
Layer 06$walls
  6
Continuous
370
    13
100
AcDbVertex
100
AcDb2dVertex
 10
4.344793437048793
 20
9.759367265738547
 30
20.98492494458333
  0
SEQEND
  5
15D
330
158
100
AcDbEntity
  8
Layer 06$walls
  6
Continuous
370
    13
  0
POLYLINE
  5
15E
330
1F
100
AcDbEntity
  8
Layer 06$walls
  6
Continuous
370
    13
100
AcDb2dPolyline
 66
     1
 10
0.0
 20
0.0
 30
0.0
 70
     1
  0
VERTEX
  5
15F
330
15E
100
AcDbEntity
  8
Layer 06$walls
  6
Continuous
370
    13
100
AcDbVertex
100
AcDb2dVertex
 10
15.47579391114414
 20
7.101959344698116
 30
0.0
  0
VERTEX
  5
160
330
15E
100
AcDbEntity
  8
Layer 06$walls
  6
Continuous
370
    13
100
AcDbVertex
100
AcDb2dVertex
 10
15.47577810660005
 20
4.861677651992068
 30
0.0
  0
VERTEX
  5
161
330
15E
100
AcDbEntity
  8
Layer 06$walls
  6
Continuous
370
    13
100
AcDbVertex
100
AcDb2dVertex
 10
13.68233241839334
 20
4.861690304474905
 30
0.0
  0
VERTEX
  5
162
330
15E
100
AcDbEntity
  8
Layer 06$walls
  6
Continuous
370
    13
100
AcDbVertex
100
AcDb2dVertex
 10
13.68234822293743
 20
7.101971997180954
 30
0.0
  0
VERTEX
  5
163
330
15E
100
AcDbEntity
  8
Layer 06$walls
  6
Continuous
370
    13
100
AcDbVertex
100
AcDb2dVertex
 10
13.58234822330996
 20
7.101972772739828
 30
0.0
  0
VERTEX
  5
164
330
15E
100
AcDbEntity
  8
Layer 06$walls
  6
Continuous
370
    13
100
AcDbVertex
100
AcDb2dVertex
 10
13.58233171282336
 20
4.761675237445161
 30
0.0
  0
VERTEX
  5
165
330
15E
100
AcDbEntity
  8
Layer 06$walls
  6
Continuous
370
    13
100
AcDbVertex
100
AcDb2dVertex
 10
15.57577740028501
 20
4.761661174008623
 30
0.0
  0
VERTEX
  5
166
330
15E
100
AcDbEntity
  8
Layer 06$walls
  6
Continuous
370
    13
100
AcDbVertex
100
AcDb2dVertex
 10
15.57579391123727
 20
7.101958639221266
 30
0.0
  0
SEQEND
  5
167
330
15E
100
AcDbEntity
  8
Layer 06$walls
  6
Continuous
370
    13
  0
POLYLINE
  5
168
330
1F
100
AcDbEntity
  8
Layer 06$walls
  6
Continuous
370
    13
100
AcDb2dPolyline
 66
     1
 10
0.0
 20
0.0
 30
0.0
 70
     1
  0
VERTEX
  5
169
330
168
100
AcDbEntity
  8
Layer 06$walls
  6
Continuous
370
    13
100
AcDbVertex
100
AcDb2dVertex
 10
20.67582727968693
 20
11.78253399557434
 30
0.0
  0
VERTEX
  5
16A
330
168
100
AcDbEntity
  8
Layer 06$walls
  6
Continuous
370
    13
100
AcDbVertex
100
AcDb2dVertex
 10
20.77455618325621
 20
11.78256990155205
 30
0.0
  0
VERTEX
  5
16B
330
168
100
AcDbEntity
  8
Layer 06$walls
  6
Continuous
370
    13
100
AcDbVertex
100
AcDb2dVertex
 10
20.77409867104143
 20
13.06936159194447
 30
0.0
  0
VERTEX
  5
16C
330
168
100
AcDbEntity
  8
Layer 06$walls
  6
Continuous
370
    13
100
AcDbVertex
100
AcDb2dVertex
 10
20.77584144333377
 20
13.83948328578845
 30
0.0
  0
VERTEX
  5
16D
330
168
100
AcDbEntity
  8
Layer 06$walls
  6
Continuous
370
    13
100
AcDbVertex
100
AcDb2dVertex
 10
20.67584179155529
 20
13.83948399103247
 30
0.0
  0
SEQEND
  5
16E
330
168
100
AcDbEntity
  8
Layer 06$walls
  6
Continuous
370
    13
  0
POLYLINE
  5
16F
330
1F
100
AcDbEntity
  8
Layer 06$walls
  6
Continuous
370
    13
100
AcDb2dPolyline
 66
     1
 10
0.0
 20
0.0
 30
0.0
 70
     1
  0
VERTEX
  5
170
330
16F
100
AcDbEntity
  8
Layer 06$walls
  6
Continuous
370
    13
100
AcDbVertex
100
AcDb2dVertex
 10
17.57582692382857
 20
11.78140656254254
 30
0.0
  0
VERTEX
  5
171
330
16F
100
AcDbEntity
  8
Layer 06$walls
  6
Continuous
370
    13
100
AcDbVertex
100
AcDb2dVertex
 10
17.57584144361317
 20
13.83950586081482
 30
0.0
  0
VERTEX
  5
172
330
16F
100
AcDbEntity
  8
Layer 06$walls
  6
Continuous
370
    13
100
AcDbVertex
100
AcDb2dVertex
 10
17.6758414437063
 20
13.83950515557081
 30
0.0
  0
VERTEX
  5
173
330
16F
100
AcDbEntity
  8
Layer 06$walls
  6
Continuous
370
    13
100
AcDbVertex
100
AcDb2dVertex
 10
17.67582692438737
 20
11.78144294559024
 30
0.0
  0
SEQEND
  5
174
330
16F
100
AcDbEntity
  8
Layer 06$walls
  6
Continuous
370
    13
  0
POLYLINE
  5
175
330
1F
100
AcDbEntity
  8
Layer 06$walls
  6
Continuous
370
    13
100
AcDb2dPolyline
 66
     1
 10
0.0
 20
0.0
 30
0.0
 70
     1
  0
VERTEX
  5
176
330
175
100
AcDbEntity
  8
Layer 06$walls
  6
Continuous
370
    13
100
AcDbVertex
100
AcDb2dVertex
 10
18.1338712926954
 20
11.78160952893086
 30
0.0
  0
VERTEX
  5
177
330
175
100
AcDbEntity
  8
Layer 06$walls
  6
Continuous
370
    13
100
AcDbVertex
100
AcDb2dVertex
 10
20.2144049666822
 20
11.78236618428491
 30
0.0
  0
VERTEX
  5
178
330
175
100
AcDbEntity
  8
Layer 06$walls
  6
Continuous
370
    13
100
AcDbVertex
100
AcDb2dVertex
 10
20.2144413352944
 20
11.68236619047821
 30
0.0
  0
VERTEX
  5
179
330
175
100
AcDbEntity
  8
Layer 06$walls
  6
Continuous
370
    13
100
AcDbVertex
100
AcDb2dVertex
 10
18.13390766084194
 20
11.68160953535698
 30
0.0
  0
SEQEND
  5
17A
330
175
100
AcDbEntity
  8
Layer 06$walls
  6
Continuous
370
    13
  0
POLYLINE
  5
17B
330
1F
100
AcDbEntity
  8
Layer 06$walls
  6
Continuous
370
    13
100
AcDb2dPolyline
 66
     1
 10
0.0
 20
0.0
 30
0.0
 70
     1
  0
VERTEX
  5
17C
330
17B
100
AcDbEntity
  8
Layer 06$walls
  6
Continuous
370
    13
100
AcDbVertex
100
AcDb2dVertex
 10
18.13397315051407
 20
11.50153767480515
 30
0.0
  0
VERTEX
  5
17D
330
17B
100
AcDbEntity
  8
Layer 06$walls
  6
Continuous
370
    13
100
AcDbVertex
100
AcDb2dVertex
 10
17.57582494802773
 20
11.50133468280546
 30
0.0
  0
VERTEX
  5
17E
330
17B
100
AcDbEntity
  8
Layer 06$walls
  6
Continuous
370
    13
100
AcDbVertex
100
AcDb2dVertex
 10
17.57582692382857
 20
11.78140656254254
 30
0.0
  0
VERTEX
  5
17F
330
17B
100
AcDbEntity
  8
Layer 06$walls
  6
Continuous
370
    13
100
AcDbVertex
100
AcDb2dVertex
 10
18.13387129222974
 20
11.78160951659083
 30
0.0
  0
SEQEND
  5
180
330
17B
100
AcDbEntity
  8
Layer 06$walls
  6
Continuous
370
    13
  0
POLYLINE
  5
181
330
1F
100
AcDbEntity
  8
Layer 06$walls
  6
Continuous
370
    13
100
AcDb2dPolyline
 66
     1
 10
0.0
 20
0.0
 30
0.0
 70
     1
  0
VERTEX
  5
182
330
181
100
AcDbEntity
  8
Layer 06$walls
  6
Continuous
370
    13
100
AcDbVertex
100
AcDb2dVertex
 10
20.7758249565959
 20
11.50249805417843
 30
0.0
  0
VERTEX
  5
183
330
181
100
AcDbEntity
  8
Layer 06$walls
  6
Continuous
370
    13
100
AcDbVertex
100
AcDb2dVertex
 10
20.21450682543218
 20
11.50229434389621
 30
0.0
  0
VERTEX
  5
184
330
181
100
AcDbEntity
  8
Layer 06$walls
  6
Continuous
370
    13
100
AcDbVertex
100
AcDb2dVertex
 10
20.2144049666822
 20
11.78236618428491
 30
0.0
  0
VERTEX
  5
185
330
181
100
AcDbEntity
  8
Layer 06$walls
  6
Continuous
370
    13
100
AcDbVertex
100
AcDb2dVertex
 10
20.7745486497879
 20
11.78256990178488
 30
0.0
  0
SEQEND
  5
186
330
181
100
AcDbEntity
  8
Layer 06$walls
  6
Continuous
370
    13
  0
POLYLINE
  5
187
330
1F
100
AcDbEntity
  8
Layer 06$walls
  6
Continuous
370
    13
100
AcDb2dPolyline
 66
     1
 10
0.0
 20
0.0
 30
0.0
 70
     1
  0
VERTEX
  5
188
330
187
100
AcDbEntity
  8
Layer 06$walls
  6
Continuous
370
    13
100
AcDbVertex
100
AcDb2dVertex
 10
20.6757633574307
 20
2.721704373834655
 30
0.0
  0
VERTEX
  5
189
330
187
100
AcDbEntity
  8
Layer 06$walls
  6
Continuous
370
    13
100
AcDbVertex
100
AcDb2dVertex
 10
20.67574885021895
 20
0.6653613280504942
 30
0.0
  0
VERTEX
  5
18A
330
187
100
AcDbEntity
  8
Layer 06$walls
  6
Continuous
370
    13
100
AcDbVertex
100
AcDb2dVertex
 10
20.7757485024631
 20
0.6653606223408133
 30
0.0
  0
VERTEX
  5
18B
330
187
100
AcDbEntity
  8
Layer 06$walls
  6
Continuous
370
    13
100
AcDbVertex
100
AcDb2dVertex
 10
20.77576300967485
 20
2.72170367767103
 30
0.0
  0
SEQEND
  5
18C
330
187
100
AcDbEntity
  8
Layer 06$walls
  6
Continuous
370
    13
  0
POLYLINE
  5
18D
330
1F
100
AcDbEntity
  8
Layer 06$walls
  6
Continuous
370
    13
100
AcDb2dPolyline
 66
     1
 10
0.0
 20
0.0
 30
0.0
 70
     1
  0
VERTEX
  5
18E
330
18D
100
AcDbEntity
  8
Layer 06$walls
  6
Continuous
370
    13
100
AcDbVertex
100
AcDb2dVertex
 10
17.57576300948858
 20
2.72172597120516
 30
0.0
  0
VERTEX
  5
18F
330
18D
100
AcDbEntity
  8
Layer 06$walls
  6
Continuous
370
    13
100
AcDbVertex
100
AcDb2dVertex
 10
17.57574850227684
 20
0.6653831980656832
 30
0.0
  0
VERTEX
  5
190
330
18D
100
AcDbEntity
  8
Layer 06$walls
  6
Continuous
370
    13
100
AcDbVertex
100
AcDb2dVertex
 10
17.67574850236997
 20
0.665382492588833
 30
0.0
  0
VERTEX
  5
191
330
18D
100
AcDbEntity
  8
Layer 06$walls
  6
Continuous
370
    13
100
AcDbVertex
100
AcDb2dVertex
 10
17.67576301004738
 20
2.721725260140374
 30
0.0
  0
SEQEND
  5
192
330
18D
100
AcDbEntity
  8
Layer 06$walls
  6
Continuous
370
    13
  0
POLYLINE
  5
193
330
1F
100
AcDbEntity
  8
Layer 06$walls
  6
Continuous
370
    13
100
AcDb2dPolyline
 66
     1
 10
0.0
 20
0.0
 30
0.0
 70
     1
  0
VERTEX
  5
194
330
193
100
AcDbEntity
  8
Layer 06$walls
  6
Continuous
370
    13
100
AcDbVertex
100
AcDb2dVertex
 10
18.13548721838742
 20
2.721722059417516
 30
0.0
  0
VERTEX
  5
195
330
193
100
AcDbEntity
  8
Layer 06$walls
  6
Continuous
370
    13
100
AcDbVertex
100
AcDb2dVertex
 10
20.21602103020996
 20
2.721707574790344
 30
0.0
  0
VERTEX
  5
196
330
193
100
AcDbEntity
  8
Layer 06$walls
  6
Continuous
370
    13
100
AcDbVertex
100
AcDb2dVertex
 10
20.21602172637358
 20
2.821707574417815
 30
0.0
  0
VERTEX
  5
197
330
193
100
AcDbEntity
  8
Layer 06$walls
  6
Continuous
370
    13
100
AcDbVertex
100
AcDb2dVertex
 10
18.13548791455105
 20
2.821722059743479
 30
0.0
  0
SEQEND
  5
198
330
193
100
AcDbEntity
  8
Layer 06$walls
  6
Continuous
370
    13
  0
POLYLINE
  5
199
330
1F
100
AcDbEntity
  8
Layer 06$walls
  6
Continuous
370
    25
100
AcDb2dPolyline
 66
     1
 10
0.0
 20
0.0
 30
0.0
 70
     1
  0
VERTEX
  5
19A
330
199
100
AcDbEntity
  8
Layer 06$walls
  6
Continuous
370
    25
100
AcDbVertex
100
AcDb2dVertex
 10
1.144663297105581
 20
0.665499116294086
 30
0.0
  0
VERTEX
  5
19B
330
199
100
AcDbEntity
  8
Layer 06$walls
  6
Continuous
370
    25
100
AcDbVertex
100
AcDb2dVertex
 10
8.721754796802998
 20
0.6654456614051014
 30
0.0
  0
VERTEX
  5
19C
330
199
100
AcDbEntity
  8
Layer 06$walls
  6
Continuous
370
    25
100
AcDbVertex
100
AcDb2dVertex
 10
11.78266206895933
 20
0.6654240672942251
 30
0.0
  0
VERTEX
  5
19D
330
199
100
AcDbEntity
  8
Layer 06$walls
  6
Continuous
370
    25
100
AcDbVertex
100
AcDb2dVertex
 10
25.04060927312821
 20
0.6653305350337178
 30
0.0
  0
VERTEX
  5
19E
330
199
100
AcDbEntity
  8
Layer 06$walls
  6
Continuous
370
    25
100
AcDbVertex
100
AcDb2dVertex
 10
25.04070221399888
 20
13.83945319778286
 30
0.0
  0
VERTEX
  5
19F
330
199
100
AcDbEntity
  8
Layer 06$walls
  6
Continuous
370
    25
100
AcDbVertex
100
AcDb2dVertex
 10
1.144756238441914
 20
13.83962177927606
 30
0.0
  0
SEQEND
  5
1A0
330
199
100
AcDbEntity
  8
Layer 06$walls
  6
Continuous
370
    25
  0
POLYLINE
  5
1A1
330
1F
100
AcDbEntity
  8
Layer 06$walls
  6
Continuous
370
    25
100
AcDb2dPolyline
 66
     1
 10
0.0
 20
0.0
 30
0.0
 70
     1
  0
VERTEX
  5
1A2
330
1A1
100
AcDbEntity
  8
Layer 06$walls
  6
Continuous
370
    25
100
AcDbVertex
100
AcDb2dVertex
 10
0.6446632975712419
 20
14.33962530712597
 30
0.0
  0
VERTEX
  5
1A3
330
1A1
100
AcDbEntity
  8
Layer 06$walls
  6
Continuous
370
    25
100
AcDbVertex
100
AcDb2dVertex
 10
25.54070574138314
 20
14.33944967039861
 30
0.0
  0
VERTEX
  5
1A4
330
1A1
100
AcDbEntity
  8
Layer 06$walls
  6
Continuous
370
    25
100
AcDbVertex
100
AcDb2dVertex
 10
25.5406057452783
 20
0.1653268232475966
 30
0.0
  0
VERTEX
  5
1A5
330
1A1
100
AcDbEntity
  8
Layer 06$walls
  6
Continuous
370
    25
100
AcDbVertex
100
AcDb2dVertex
 10
0.6446632975712419
 20
0.1655024595092982
 30
0.0
  0
SEQEND
  5
1A6
330
1A1
100
AcDbEntity
  8
Layer 06$walls
  6
Continuous
370
    25
  0
POLYLINE
  5
1A7
330
1F
100
AcDbEntity
  8
Layer 06$walls
  6
Continuous
370
    13
100
AcDb2dPolyline
 66
     1
 10
0.0
 20
0.0
 30
0.0
 70
     1
  0
VERTEX
  5
1A8
330
1A7
100
AcDbEntity
  8
Layer 06$walls
  6
Continuous
370
    13
100
AcDbVertex
100
AcDb2dVertex
 10
18.13548916950822
 20
3.001793931936845
 30
0.0
  0
VERTEX
  5
1A9
330
1A7
100
AcDbEntity
  8
Layer 06$walls
  6
Continuous
370
    13
100
AcDbVertex
100
AcDb2dVertex
 10
17.57576509052888
 20
3.001797831850126
 30
0.0
  0
VERTEX
  5
1AA
330
1A7
100
AcDbEntity
  8
Layer 06$walls
  6
Continuous
370
    13
100
AcDbVertex
100
AcDb2dVertex
 10
17.57576300948858
 20
2.72172597120516
 30
0.0
  0
VERTEX
  5
1AB
330
1A7
100
AcDbEntity
  8
Layer 06$walls
  6
Continuous
370
    13
100
AcDbVertex
100
AcDb2dVertex
 10
18.13548721885309
 20
2.72172207175754
 30
0.0
  0
SEQEND
  5
1AC
330
1A7
100
AcDbEntity
  8
Layer 06$walls
  6
Continuous
370
    13
  0
POLYLINE
  5
1AD
330
1F
100
AcDbEntity
  8
Layer 06$walls
  6
Continuous
370
    13
100
AcDb2dPolyline
 66
     1
 10
0.0
 20
0.0
 30
0.0
 70
     1
  0
VERTEX
  5
1AE
330
1AD
100
AcDbEntity
  8
Layer 06$walls
  6
Continuous
370
    13
100
AcDbVertex
100
AcDb2dVertex
 10
20.77573966188356
 20
3.00177553249523
 30
0.0
  0
VERTEX
  5
1AF
330
1AD
100
AcDbEntity
  8
Layer 06$walls
  6
Continuous
370
    13
100
AcDbVertex
100
AcDb2dVertex
 10
20.21602298179641
 20
3.001779433107004
 30
0.0
  0
VERTEX
  5
1B0
330
1AD
100
AcDbEntity
  8
Layer 06$walls
  6
Continuous
370
    13
100
AcDbVertex
100
AcDb2dVertex
 10
20.21602103020996
 20
2.721707574790344
 30
0.0
  0
VERTEX
  5
1B1
330
1AD
100
AcDbEntity
  8
Layer 06$walls
  6
Continuous
370
    13
100
AcDbVertex
100
AcDb2dVertex
 10
20.77576300967485
 20
2.72170367767103
 30
0.0
  0
SEQEND
  5
1B2
330
1AD
100
AcDbEntity
  8
Layer 06$walls
  6
Continuous
370
    13
  0
POLYLINE
  5
1B3
330
1F
100
AcDbEntity
  8
Layer 06$walls
  6
Continuous
370
    13
100
AcDb2dPolyline
 66
     1
 10
0.0
 20
0.0
 30
0.0
 70
     1
  0
VERTEX
  5
1B4
330
1B3
100
AcDbEntity
  8
Layer 06$walls
  6
Continuous
370
    13
100
AcDbVertex
100
AcDb2dVertex
 10
1.144710785709321
 20
7.40321096056141
 30
0.0
  0
VERTEX
  5
1B5
330
1B3
100
AcDbEntity
  8
Layer 06$walls
  6
Continuous
370
    13
100
AcDbVertex
100
AcDb2dVertex
 10
6.148099944926798
 20
7.406667471164837
 30
0.0
  0
VERTEX
  5
1B6
330
1B3
100
AcDbEntity
  8
Layer 06$walls
  6
Continuous
370
    13
100
AcDbVertex
100
AcDb2dVertex
 10
6.148116100113839
 20
9.74198175757192
 30
0.0
  0
VERTEX
  5
1B7
330
1B3
100
AcDbEntity
  8
Layer 06$walls
  6
Continuous
370
    13
100
AcDbVertex
100
AcDb2dVertex
 10
8.721812246832997
 20
9.741948828333989
 30
0.0
  0
VERTEX
  5
1B8
330
1B3
100
AcDbEntity
  8
Layer 06$walls
  6
Continuous
370
    13
100
AcDbVertex
100
AcDb2dVertex
 10
8.72665397124365
 20
13.84049553889781
 30
0.0
  0
VERTEX
  5
1B9
330
1B3
100
AcDbEntity
  8
Layer 06$walls
  6
Continuous
370
    13
100
AcDbVertex
100
AcDb2dVertex
 10
9.00663418136537
 20
13.84049596940167
 30
0.0
  0
VERTEX
  5
1BA
330
1B3
100
AcDbEntity
  8
Layer 06$walls
  6
Continuous
370
    13
100
AcDbVertex
100
AcDb2dVertex
 10
9.008712855633348
 20
9.741946721682325
 30
0.0
  0
VERTEX
  5
1BB
330
1B3
100
AcDbEntity
  8
Layer 06$walls
  6
Continuous
370
    13
100
AcDbVertex
100
AcDb2dVertex
 10
11.78271823422983
 20
9.741927127586678
 30
0.0
  0
VERTEX
  5
1BC
330
1B3
100
AcDbEntity
  8
Layer 06$walls
  6
Continuous
370
    13
100
AcDbVertex
100
AcDb2dVertex
 10
11.78270166367292
 20
7.403135964414105
 30
0.0
  0
VERTEX
  5
1BD
330
1B3
100
AcDbEntity
  8
Layer 06$walls
  6
Continuous
370
    13
100
AcDbVertex
100
AcDb2dVertex
 10
25.0406566937454
 20
7.403042432619259
 30
0.0
  0
VERTEX
  5
1BE
330
1B3
100
AcDbEntity
  8
Layer 06$walls
  6
Continuous
370
    13
100
AcDbVertex
100
AcDb2dVertex
 10
25.04065475054085
 20
7.101891953265294
 30
0.0
  0
VERTEX
  5
1BF
330
1B3
100
AcDbEntity
  8
Layer 06$walls
  6
Continuous
370
    13
100
AcDbVertex
100
AcDb2dVertex
 10
11.78269972046837
 20
7.101985485525802
 30
0.0
  0
VERTEX
  5
1C0
330
1B3
100
AcDbEntity
  8
Layer 06$walls
  6
Continuous
370
    13
100
AcDbVertex
100
AcDb2dVertex
 10
11.78268804121763
 20
4.761687950463966
 30
0.0
  0
VERTEX
  5
1C1
330
1B3
100
AcDbEntity
  8
Layer 06$walls
  6
Continuous
370
    13
100
AcDbVertex
100
AcDb2dVertex
 10
9.008677812293172
 20
4.76170777878724
 30
0.0
  0
VERTEX
  5
1C2
330
1B3
100
AcDbEntity
  8
Layer 06$walls
  6
Continuous
370
    13
100
AcDbVertex
100
AcDb2dVertex
 10
9.00864889472723
 20
0.6654435235541314
 30
0.0
  0
VERTEX
  5
1C3
330
1B3
100
AcDbEntity
  8
Layer 06$walls
  6
Continuous
370
    13
100
AcDbVertex
100
AcDb2dVertex
 10
8.721832865849137
 20
0.6654457163531333
 30
0.0
  0
VERTEX
  5
1C4
330
1B3
100
AcDbEntity
  8
Layer 06$walls
  6
Continuous
370
    13
100
AcDbVertex
100
AcDb2dVertex
 10
8.721783675719053
 20
4.761718079913408
 30
0.0
  0
VERTEX
  5
1C5
330
1B3
100
AcDbEntity
  8
Layer 06$walls
  6
Continuous
370
    13
100
AcDbVertex
100
AcDb2dVertex
 10
6.148080889135599
 20
4.761720291571692
 30
0.0
  0
VERTEX
  5
1C6
330
1B3
100
AcDbEntity
  8
Layer 06$walls
  6
Continuous
370
    13
100
AcDbVertex
100
AcDb2dVertex
 10
6.148097639903426
 20
7.097886776085943
 30
0.0
  0
VERTEX
  5
1C7
330
1B3
100
AcDbEntity
  8
Layer 06$walls
  6
Continuous
370
    13
100
AcDbVertex
100
AcDb2dVertex
 10
1.144708842039108
 20
7.102060481207445
 30
0.0
  0
SEQEND
  5
1C8
330
1B3
100
AcDbEntity
  8
Layer 06$walls
  6
Continuous
370
    13
  0
POLYLINE
  5
1C9
330
1F
100
AcDbEntity
  8
Layer 06$walls
  6
Continuous
370
    13
100
AcDb2dPolyline
 66
     1
 10
0.0
 20
0.0
 30
0.0
 70
     1
  0
VERTEX
  5
1CA
330
1C9
100
AcDbEntity
  8
Layer 06$walls
  6
Continuous
370
    13
100
AcDbVertex
100
AcDb2dVertex
 10
25.04063354991376
 20
4.106589754810557
 30
0.0
  0
VERTEX
  5
1CB
330
1C9
100
AcDbEntity
  8
Layer 06$walls
  6
Continuous
370
    13
100
AcDbVertex
100
AcDb2dVertex
 10
20.77577277971432
 20
4.106619842816144
 30
0.0
  0
VERTEX
  5
1CC
330
1C9
100
AcDbEntity
  8
Layer 06$walls
  6
Continuous
370
    13
100
AcDbVertex
100
AcDb2dVertex
 10
20.77573585975915
 20
4.006647408474237
 30
0.0
  0
VERTEX
  5
1CD
330
1C9
100
AcDbEntity
  8
Layer 06$walls
  6
Continuous
370
    13
100
AcDbVertex
100
AcDb2dVertex
 10
25.04063284536824
 20
4.006617320468649
 30
0.0
  0
SEQEND
  5
1CE
330
1C9
100
AcDbEntity
  8
Layer 06$walls
  6
Continuous
370
    13
  0
POLYLINE
  5
1CF
330
1F
100
AcDbEntity
  8
Layer 06$walls
  6
Continuous
370
    13
100
AcDb2dPolyline
 66
     1
 10
0.0
 20
0.0
 30
0.0
 70
     1
  0
VERTEX
  5
1D0
330
1CF
100
AcDbEntity
  8
Layer 06$walls
  6
Continuous
370
    13
100
AcDbVertex
100
AcDb2dVertex
 10
20.67578069865704
 20
5.179740967229009
 30
0.0
  0
VERTEX
  5
1D1
330
1CF
100
AcDbEntity
  8
Layer 06$walls
  6
Continuous
370
    13
100
AcDbVertex
100
AcDb2dVertex
 10
18.22219651797786
 20
5.17975827655755
 30
0.0
  0
VERTEX
  5
1D2
330
1CF
100
AcDbEntity
  8
Layer 06$walls
  6
Continuous
370
    13
100
AcDbVertex
100
AcDb2dVertex
 10
18.22218961874023
 20
4.201793349115178
 30
0.0
  0
VERTEX
  5
1D3
330
1CF
100
AcDbEntity
  8
Layer 06$walls
  6
Continuous
370
    13
100
AcDbVertex
100
AcDb2dVertex
 10
18.3221896183677
 20
4.201754614477977
 30
0.0
  0
VERTEX
  5
1D4
330
1CF
100
AcDbEntity
  8
Layer 06$walls
  6
Continuous
370
    13
100
AcDbVertex
100
AcDb2dVertex
 10
18.32219581259415
 20
5.079757570987567
 30
0.0
  0
VERTEX
  5
1D5
330
1CF
100
AcDbEntity
  8
Layer 06$walls
  6
Continuous
370
    13
100
AcDbVertex
100
AcDb2dVertex
 10
20.67577999271452
 20
5.079740966903046
 30
0.0
  0
VERTEX
  5
1D6
330
1CF
100
AcDbEntity
  8
Layer 06$walls
  6
Continuous
370
    13
100
AcDbVertex
100
AcDb2dVertex
 10
20.67576533276588
 20
3.001776228891686
 30
0.0
  0
VERTEX
  5
1D7
330
1CF
100
AcDbEntity
  8
Layer 06$walls
  6
Continuous
370
    13
100
AcDbVertex
100
AcDb2dVertex
 10
20.77573966188356
 20
3.00177553249523
 30
0.0
  0
VERTEX
  5
1D8
330
1CF
100
AcDbEntity
  8
Layer 06$walls
  6
Continuous
370
    13
100
AcDbVertex
100
AcDb2dVertex
 10
20.77573645673692
 20
4.008228073595092
 30
0.0
  0
VERTEX
  5
1D9
330
1CF
100
AcDbEntity
  8
Layer 06$walls
  6
Continuous
370
    13
100
AcDbVertex
100
AcDb2dVertex
 10
20.77577337762341
 20
4.108200387796387
 30
0.0
  0
VERTEX
  5
1DA
330
1CF
100
AcDbEntity
  8
Layer 06$walls
  6
Continuous
370
    13
100
AcDbVertex
100
AcDb2dVertex
 10
20.77579391095787
 20
7.101921953959391
 30
0.0
  0
VERTEX
  5
1DB
330
1CF
100
AcDbEntity
  8
Layer 06$walls
  6
Continuous
370
    13
100
AcDbVertex
100
AcDb2dVertex
 10
20.67687339894474
 20
7.102137443376705
 30
0.0
  0
SEQEND
  5
1DC
330
1CF
100
AcDbEntity
  8
Layer 06$walls
  6
Continuous
370
    13
  0
POLYLINE
  5
1DD
330
1F
100
AcDbEntity
  8
Layer 06$walls
  6
Continuous
370
    13
100
AcDb2dPolyline
 66
     1
 10
0.0
 20
0.0
 30
0.0
 70
     1
  0
VERTEX
  5
1DE
330
1DD
100
AcDbEntity
  8
Layer 06$walls
  6
Continuous
370
    13
100
AcDbVertex
100
AcDb2dVertex
 10
18.22223263420165
 20
10.30156965204515
 30
0.0
  0
VERTEX
  5
1DF
330
1DD
100
AcDbEntity
  8
Layer 06$walls
  6
Continuous
370
    13
100
AcDbVertex
100
AcDb2dVertex
 10
18.32223259005696
 20
10.3016060248483
 30
0.0
  0
VERTEX
  5
1E0
330
1DD
100
AcDbEntity
  8
Layer 06$walls
  6
Continuous
370
    13
100
AcDbVertex
100
AcDb2dVertex
 10
18.32222647964954
 20
9.42676132847555
 30
0.0
  0
VERTEX
  5
1E1
330
1DD
100
AcDbEntity
  8
Layer 06$walls
  6
Continuous
370
    13
100
AcDbVertex
100
AcDb2dVertex
 10
20.67581061692908
 20
9.426744711818174
 30
0.0
  0
VERTEX
  5
1E2
330
1DD
100
AcDbEntity
  8
Layer 06$walls
  6
Continuous
370
    13
100
AcDbVertex
100
AcDb2dVertex
 10
20.67582528712228
 20
11.50246211956255
 30
0.0
  0
VERTEX
  5
1E3
330
1DD
100
AcDbEntity
  8
Layer 06$walls
  6
Continuous
370
    13
100
AcDbVertex
100
AcDb2dVertex
 10
20.77582496264949
 20
11.5024980106391
 30
0.0
  0
VERTEX
  5
1E4
330
1DD
100
AcDbEntity
  8
Layer 06$walls
  6
Continuous
370
    13
100
AcDbVertex
100
AcDb2dVertex
 10
20.77581784501672
 20
10.49850363144651
 30
0.0
  0
VERTEX
  5
1E5
330
1DD
100
AcDbEntity
  8
Layer 06$walls
  6
Continuous
370
    13
100
AcDbVertex
100
AcDb2dVertex
 10
25.04067860310897
 20
10.49847355182283
 30
0.0
  0
VERTEX
  5
1E6
330
1DD
100
AcDbEntity
  8
Layer 06$walls
  6
Continuous
370
    13
100
AcDbVertex
100
AcDb2dVertex
 10
25.04067796561867
 20
10.40008250134997
 30
0.0
  0
VERTEX
  5
1E7
330
1DD
100
AcDbEntity
  8
Layer 06$walls
  6
Continuous
370
    13
100
AcDbVertex
100
AcDb2dVertex
 10
20.77581720706075
 20
10.40011258120649
 30
0.0
  0
VERTEX
  5
1E8
330
1DD
100
AcDbEntity
  8
Layer 06$walls
  6
Continuous
370
    13
100
AcDbVertex
100
AcDb2dVertex
 10
20.77579607116058
 20
7.403072538785636
 30
0.0
  0
VERTEX
  5
1E9
330
1DD
100
AcDbEntity
  8
Layer 06$walls
  6
Continuous
370
    13
100
AcDbVertex
100
AcDb2dVertex
 10
20.67579636489972
 20
7.403073233785108
 30
0.0
  0
VERTEX
  5
1EA
330
1DD
100
AcDbEntity
  8
Layer 06$walls
  6
Continuous
370
    13
100
AcDbVertex
100
AcDb2dVertex
 10
20.67540964111686
 20
9.326991953654215
 30
0.0
  0
VERTEX
  5
1EB
330
1DD
100
AcDbEntity
  8
Layer 06$walls
  6
Continuous
370
    13
100
AcDbVertex
100
AcDb2dVertex
 10
18.22222577640787
 20
9.327009120257571
 30
0.0
  0
VERTEX
  5
1EC
330
1DD
100
AcDbEntity
  8
Layer 06$walls
  6
Continuous
370
    13
100
AcDbVertex
100
AcDb2dVertex
 10
18.22230858635157
 20
9.426762038609013
 30
0.0
  0
SEQEND
  5
1ED
330
1DD
100
AcDbEntity
  8
Layer 06$walls
  6
Continuous
370
    13
  0
POLYLINE
  5
1EE
330
1F
100
AcDbEntity
  8
Layer 06$walls
  6
Continuous
370
    13
100
AcDb2dPolyline
 66
     1
 10
0.0
 20
0.0
 30
20.98492494458333
 70
     1
  0
VERTEX
  5
1EF
330
1EE
100
AcDbEntity
  8
Layer 06$walls
  6
Continuous
370
    13
100
AcDbVertex
100
AcDb2dVertex
 10
6.391325464006513
 20
5.011698719114065
 30
20.98492494458333
  0
VERTEX
  5
1F0
330
1EE
100
AcDbEntity
  8
Layer 06$walls
  6
Continuous
370
    13
100
AcDbVertex
100
AcDb2dVertex
 10
11.54399867961183
 20
5.011667267186567
 30
20.98492494458333
  0
VERTEX
  5
1F1
330
1EE
100
AcDbEntity
  8
Layer 06$walls
  6
Continuous
370
    13
100
AcDbVertex
100
AcDb2dVertex
 10
11.54403232270852
 20
9.492817532969639
 30
20.98492494458333
  0
VERTEX
  5
1F2
330
1EE
100
AcDbEntity
  8
Layer 06$walls
  6
Continuous
370
    13
100
AcDbVertex
100
AcDb2dVertex
 10
6.393112921155989
 20
9.492846162756905
 30
20.98492494458333
  0
SEQEND
  5
1F3
330
1EE
100
AcDbEntity
  8
Layer 06$walls
  6
Continuous
370
    13
  0
POLYLINE
  5
1F5
330
1F
100
AcDbEntity
  8
Layer 06$doors
100
AcDb2dPolyline
 66
     1
 10
0.0
 20
0.0
 30
0.0
 70
     1
  0
VERTEX
  5
1F6
330
1F5
100
AcDbEntity
  8
Layer 06$doors
100
AcDbVertex
100
AcDb2dVertex
 10
15.47577810660005
 20
9.54579176637344
 30
0.0
  0
VERTEX
  5
1F7
330
1F5
100
AcDbEntity
  8
Layer 06$doors
100
AcDbVertex
100
AcDb2dVertex
 10
15.57577184168622
 20
9.54579176637344
 30
0.0
  0
VERTEX
  5
1F8
330
1F5
100
AcDbEntity
  8
Layer 06$doors
100
AcDbVertex
100
AcDb2dVertex
 10
15.57577184168622
 20
8.645790992537513
 30
0.0
  0
VERTEX
  5
1F9
330
1F5
100
AcDbEntity
  8
Layer 06$doors
100
AcDbVertex
100
AcDb2dVertex
 10
15.47577810660005
 20
8.645790992537513
 30
0.0
  0
SEQEND
  5
1FA
330
1F5
100
AcDbEntity
  8
Layer 06$doors
  0
POLYLINE
  5
1FB
330
1F
100
AcDbEntity
  8
Layer 06$doors
100
AcDb2dPolyline
 66
     1
 10
0.0
 20
0.0
 30
20.98492494458333
 70
     1
  0
VERTEX
  5
1FC
330
1FB
100
AcDbEntity
  8
Layer 06$doors
100
AcDbVertex
100
AcDb2dVertex
 10
4.245344499126077
 20
9.012638439191505
 30
20.98492494458333
  0
VERTEX
  5
1FD
330
1FB
100
AcDbEntity
  8
Layer 06$doors
100
AcDbVertex
100
AcDb2dVertex
 10
4.345045920461416
 20
9.012638439191505
 30
20.98492494458333
  0
VERTEX
  5
1FE
330
1FB
100
AcDbEntity
  8
Layer 06$doors
100
AcDbVertex
100
AcDb2dVertex
 10
4.345045920461416
 20
8.11260134796612
 30
20.98492494458333
  0
VERTEX
  5
1FF
330
1FB
100
AcDbEntity
  8
Layer 06$doors
100
AcDbVertex
100
AcDb2dVertex
 10
4.245344499126077
 20
8.11260134796612
 30
20.98492494458333
  0
SEQEND
  5
200
330
1FB
100
AcDbEntity
  8
Layer 06$doors
  0
POLYLINE
  5
201
330
1F
100
AcDbEntity
  8
Layer 06$doors
100
AcDb2dPolyline
 66
     1
 10
0.0
 20
0.0
 30
0.0
 70
     1
  0
VERTEX
  5
202
330
201
100
AcDbEntity
  8
Layer 06$doors
100
AcDbVertex
100
AcDb2dVertex
 10
20.67577206157148
 20
11.44945882656612
 30
0.0
  0
VERTEX
  5
203
330
201
100
AcDbEntity
  8
Layer 06$doors
100
AcDbVertex
100
AcDb2dVertex
 10
20.77573945885524
 20
11.44945882656612
 30
0.0
  0
VERTEX
  5
204
330
201
100
AcDbEntity
  8
Layer 06$doors
100
AcDbVertex
100
AcDb2dVertex
 10
20.77573945885524
 20
10.5494582161773
 30
0.0
  0
VERTEX
  5
205
330
201
100
AcDbEntity
  8
Layer 06$doors
100
AcDbVertex
100
AcDb2dVertex
 10
20.67577206157148
 20
10.5494582161773
 30
0.0
  0
SEQEND
  5
206
330
201
100
AcDbEntity
  8
Layer 06$doors
  0
POLYLINE
  5
207
330
1F
100
AcDbEntity
  8
Layer 06$doors
100
AcDb2dPolyline
 66
     1
 10
0.0
 20
0.0
 30
0.0
 70
     1
  0
VERTEX
  5
208
330
207
100
AcDbEntity
  8
Layer 06$doors
100
AcDbVertex
100
AcDb2dVertex
 10
20.67577964812517
 20
10.35837274370715
 30
0.0
  0
VERTEX
  5
209
330
207
100
AcDbEntity
  8
Layer 06$doors
100
AcDbVertex
100
AcDb2dVertex
 10
20.77578751882538
 20
10.35837274370715
 30
0.0
  0
VERTEX
  5
20A
330
207
100
AcDbEntity
  8
Layer 06$doors
100
AcDbVertex
100
AcDb2dVertex
 10
20.77578751882538
 20
9.474022046662867
 30
0.0
  0
VERTEX
  5
20B
330
207
100
AcDbEntity
  8
Layer 06$doors
100
AcDbVertex
100
AcDb2dVertex
 10
20.67577964812517
 20
9.474022046662867
 30
0.0
  0
SEQEND
  5
20C
330
207
100
AcDbEntity
  8
Layer 06$doors
  0
POLYLINE
  5
20D
330
1F
100
AcDbEntity
  8
Layer 06$doors
100
AcDb2dPolyline
 66
     1
 10
0.0
 20
0.0
 30
0.0
 70
     1
  0
VERTEX
  5
20E
330
20D
100
AcDbEntity
  8
Layer 06$doors
100
AcDbVertex
100
AcDb2dVertex
 10
19.55014528334141
 20
9.425191826885566
 30
0.0
  0
VERTEX
  5
20F
330
20D
100
AcDbEntity
  8
Layer 06$doors
100
AcDbVertex
100
AcDb2dVertex
 10
20.45014450885355
 20
9.425191826885566
 30
0.0
  0
VERTEX
  5
210
330
20D
100
AcDbEntity
  8
Layer 06$doors
100
AcDbVertex
100
AcDb2dVertex
 10
20.45014450885355
 20
9.325185477966443
 30
0.0
  0
VERTEX
  5
211
330
20D
100
AcDbEntity
  8
Layer 06$doors
100
AcDbVertex
100
AcDb2dVertex
 10
19.55014528334141
 20
9.325185477966443
 30
0.0
  0
SEQEND
  5
212
330
20D
100
AcDbEntity
  8
Layer 06$doors
  0
POLYLINE
  5
213
330
1F
100
AcDbEntity
  8
Layer 06$doors
100
AcDb2dPolyline
 66
     1
 10
0.0
 20
0.0
 30
0.0
 70
     1
  0
VERTEX
  5
214
330
213
100
AcDbEntity
  8
Layer 06$doors
100
AcDbVertex
100
AcDb2dVertex
 10
18.22218961874023
 20
11.50315815699287
 30
0.0
  0
VERTEX
  5
215
330
213
100
AcDbEntity
  8
Layer 06$doors
100
AcDbVertex
100
AcDb2dVertex
 10
18.32219581259415
 20
11.50315815699287
 30
0.0
  0
VERTEX
  5
216
330
213
100
AcDbEntity
  8
Layer 06$doors
100
AcDbVertex
100
AcDb2dVertex
 10
18.32219581259415
 20
10.30314103676938
 30
0.0
  0
VERTEX
  5
217
330
213
100
AcDbEntity
  8
Layer 06$doors
100
AcDbVertex
100
AcDb2dVertex
 10
18.22218961874023
 20
10.30314103676938
 30
0.0
  0
SEQEND
  5
218
330
213
100
AcDbEntity
  8
Layer 06$doors
  0
POLYLINE
  5
219
330
1F
100
AcDbEntity
  8
Layer 06$areas
100
AcDb2dPolyline
 66
     1
 10
0.0
 20
0.0
 30
0.0
 70
     1
  0
VERTEX
  5
21A
330
219
100
AcDbEntity
  8
Layer 06$areas
100
AcDbVertex
100
AcDb2dVertex
 10
13.68234822293743
 20
9.643256733892485
 30
0.0
  0
VERTEX
  5
21B
330
219
100
AcDbEntity
  8
Layer 06$areas
100
AcDbVertex
100
AcDb2dVertex
 10
15.47577810660005
 20
9.643256733892485
 30
0.0
  0
VERTEX
  5
21C
330
219
100
AcDbEntity
  8
Layer 06$areas
100
AcDbVertex
100
AcDb2dVertex
 10
15.47577810660005
 20
7.4029623887036
 30
0.0
  0
VERTEX
  5
21D
330
219
100
AcDbEntity
  8
Layer 06$areas
100
AcDbVertex
100
AcDb2dVertex
 10
13.68234822293743
 20
7.4029623887036
 30
0.0
  0
SEQEND
  5
21E
330
219
100
AcDbEntity
  8
Layer 06$areas
  0
POLYLINE
  5
21F
330
1F
100
AcDbEntity
  8
Layer 06$areas
100
AcDb2dPolyline
 66
     1
 10
0.0
 20
0.0
 30
0.0
 70
     1
  0
VERTEX
  5
220
330
21F
100
AcDbEntity
  8
Layer 06$areas
100
AcDbVertex
100
AcDb2dVertex
 10
18.13548791455105
 20
11.68321232614107
 30
0.0
  0
VERTEX
  5
221
330
21F
100
AcDbEntity
  8
Layer 06$areas
100
AcDbVertex
100
AcDb2dVertex
 10
20.21602298179641
 20
11.68321232614107
 30
0.0
  0
VERTEX
  5
222
330
21F
100
AcDbEntity
  8
Layer 06$areas
100
AcDbVertex
100
AcDb2dVertex
 10
20.21602298179641
 20
11.50315495277755
 30
0.0
  0
VERTEX
  5
223
330
21F
100
AcDbEntity
  8
Layer 06$areas
100
AcDbVertex
100
AcDb2dVertex
 10
18.13548791455105
 20
11.50315495277755
 30
0.0
  0
SEQEND
  5
224
330
21F
100
AcDbEntity
  8
Layer 06$areas
  0
POLYLINE
  5
225
330
1F
100
AcDbEntity
  8
Layer 06$areas
100
AcDb2dPolyline
 66
     1
 10
0.0
 20
0.0
 30
0.0
 70
     1
  0
VERTEX
  5
226
330
225
100
AcDbEntity
  8
Layer 06$areas
100
AcDbVertex
100
AcDb2dVertex
 10
18.32219581259415
 20
11.50315815699287
 30
0.0
  0
VERTEX
  5
227
330
225
100
AcDbEntity
  8
Layer 06$areas
100
AcDbVertex
100
AcDb2dVertex
 10
20.67576533276588
 20
11.50315815699287
 30
0.0
  0
VERTEX
  5
228
330
225
100
AcDbEntity
  8
Layer 06$areas
100
AcDbVertex
100
AcDb2dVertex
 10
20.67576533276588
 20
9.425176814896986
 30
0.0
  0
VERTEX
  5
229
330
225
100
AcDbEntity
  8
Layer 06$areas
100
AcDbVertex
100
AcDb2dVertex
 10
18.32219581259415
 20
9.425176814896986
 30
0.0
  0
SEQEND
  5
22A
330
225
100
AcDbEntity
  8
Layer 06$areas
  0
POLYLINE
  5
22B
330
1F
100
AcDbEntity
  8
Layer 06$areas
100
AcDb2dPolyline
 66
     1
 10
0.0
 20
0.0
 30
0.0
 70
     1
  0
VERTEX
  5
22C
330
22B
100
AcDbEntity
  8
Layer 06$areas
100
AcDbVertex
100
AcDb2dVertex
 10
20.77579391095787
 20
10.398344631074
 30
0.0
  0
VERTEX
  5
22D
330
22B
100
AcDbEntity
  8
Layer 06$areas
100
AcDbVertex
100
AcDb2dVertex
 10
25.04063354991376
 20
10.398344631074
 30
0.0
  0
VERTEX
  5
22E
330
22B
100
AcDbEntity
  8
Layer 06$areas
100
AcDbVertex
100
AcDb2dVertex
 10
25.04063354991376
 20
7.403012431925163
 30
0.0
  0
VERTEX
  5
22F
330
22B
100
AcDbEntity
  8
Layer 06$areas
100
AcDbVertex
100
AcDb2dVertex
 10
20.77579391095787
 20
7.403012431925163
 30
0.0
  0
SEQEND
  5
230
330
22B
100
AcDbEntity
  8
Layer 06$areas
  0
POLYLINE
  5
231
330
1F
100
AcDbEntity
  8
Layer 06$areas
100
AcDb2dPolyline
 66
     1
 10
0.0
 20
0.0
 30
0.0
 70
     1
  0
VERTEX
  5
232
330
231
100
AcDbEntity
  8
Layer 06$areas
100
AcDbVertex
100
AcDb2dVertex
 10
20.77573585975915
 20
13.83960385085084
 30
0.0
  0
VERTEX
  5
233
330
231
100
AcDbEntity
  8
Layer 06$areas
100
AcDbVertex
100
AcDb2dVertex
 10
25.04060927312821
 20
13.83960385085084
 30
0.0
  0
VERTEX
  5
234
330
231
100
AcDbEntity
  8
Layer 06$areas
100
AcDbVertex
100
AcDb2dVertex
 10
25.04060927312821
 20
10.49828697741032
 30
0.0
  0
VERTEX
  5
235
330
231
100
AcDbEntity
  8
Layer 06$areas
100
AcDbVertex
100
AcDb2dVertex
 10
20.77573585975915
 20
10.49828697741032
 30
0.0
  0
SEQEND
  5
236
330
231
100
AcDbEntity
  8
Layer 06$areas
  0
POLYLINE
  5
237
330
1F
100
AcDbEntity
  8
Layer 06$areas
100
AcDb2dPolyline
 66
     1
 10
0.0
 20
0.0
 30
0.0
 70
     1
  0
VERTEX
  5
238
330
237
100
AcDbEntity
  8
Layer 06$areas
100
AcDbVertex
100
AcDb2dVertex
 10
17.67576301004738
 20
13.83957305783406
 30
0.0
  0
VERTEX
  5
239
330
237
100
AcDbEntity
  8
Layer 06$areas
100
AcDbVertex
100
AcDb2dVertex
 10
20.67574885021895
 20
13.83957305783406
 30
0.0
  0
VERTEX
  5
23A
330
237
100
AcDbEntity
  8
Layer 06$areas
100
AcDbVertex
100
AcDb2dVertex
 10
20.67574885021895
 20
11.78320912574418
 30
0.0
  0
VERTEX
  5
23B
330
237
100
AcDbEntity
  8
Layer 06$areas
100
AcDbVertex
100
AcDb2dVertex
 10
17.67576301004738
 20
11.78320912574418
 30
0.0
  0
SEQEND
  5
23C
330
237
100
AcDbEntity
  8
Layer 06$areas
  0
POLYLINE
  5
23D
330
1F
100
AcDbEntity
  8
Layer 06$areas
100
AcDb2dPolyline
 66
     1
 10
0.0
 20
0.0
 30
0.0
  0
VERTEX
  5
23E
330
23D
100
AcDbEntity
  8
Layer 06$areas
100
AcDbVertex
100
AcDb2dVertex
 10
25.0406566937454
 20
7.403042432619259
 30
0.0
  0
VERTEX
  5
23F
330
23D
100
AcDbEntity
  8
Layer 06$areas
100
AcDbVertex
100
AcDb2dVertex
 10
25.04063354991376
 20
7.101921953959391
 30
0.0
  0
SEQEND
  5
240
330
23D
100
AcDbEntity
  8
Layer 06$areas
  0
POLYLINE
  5
241
330
1F
100
AcDbEntity
  8
Layer 06$walls
  6
Continuous
370
    13
100
AcDb2dPolyline
 66
     1
 10
0.0
 20
0.0
 30
20.98492494458333
 70
     1
  0
VERTEX
  5
242
330
241
100
AcDbEntity
  8
Layer 06$walls
  6
Continuous
370
    13
100
AcDbVertex
100
AcDb2dVertex
 10
10.14193895738572
 20
6.477105993311852
 30
20.98492494458333
  0
VERTEX
  5
243
330
241
100
AcDbEntity
  8
Layer 06$walls
  6
Continuous
370
    13
100
AcDbVertex
100
AcDb2dVertex
 10
10.14193736389279
 20
6.251993225654587
 30
20.98492494458333
  0
VERTEX
  5
244
330
241
100
AcDbEntity
  8
Layer 06$walls
  6
Continuous
370
    13
100
AcDbVertex
100
AcDb2dVertex
 10
7.791334256995469
 20
6.252009867923334
 30
20.98492494458333
  0
VERTEX
  5
245
330
241
100
AcDbEntity
  8
Layer 06$walls
  6
Continuous
370
    13
100
AcDbVertex
100
AcDb2dVertex
 10
7.791335850954056
 20
6.477122635580599
 30
20.98492494458333
  0
VERTEX
  5
246
330
241
100
AcDbEntity
  8
Layer 06$walls
  6
Continuous
370
    13
100
AcDbVertex
100
AcDb2dVertex
 10
7.991387180518359
 20
6.47708602133207
 30
20.98492494458333
  0
VERTEX
  5
247
330
241
100
AcDbEntity
  8
Layer 06$walls
  6
Continuous
370
    13
100
AcDbVertex
100
AcDb2dVertex
 10
7.991387366317213
 20
6.457080888329074
 30
20.98492494458333
  0
VERTEX
  5
248
330
241
100
AcDbEntity
  8
Layer 06$walls
  6
Continuous
370
    13
100
AcDbVertex
100
AcDb2dVertex
 10
9.941887815482914
 20
6.45709900255315
 30
20.98492494458333
  0
VERTEX
  5
249
330
241
100
AcDbEntity
  8
Layer 06$walls
  6
Continuous
370
    13
100
AcDbVertex
100
AcDb2dVertex
 10
9.94188762968406
 20
6.477104135556147
 30
20.98492494458333
  0
SEQEND
  5
24A
330
241
100
AcDbEntity
  8
Layer 06$walls
  6
Continuous
370
    13
  0
POLYLINE
  5
24B
330
1F
100
AcDbEntity
  8
Layer 06$walls
  6
Continuous
370
    13
100
AcDb2dPolyline
 66
     1
 10
0.0
 20
0.0
 30
20.98492494458333
 70
     1
  0
VERTEX
  5
24C
330
24B
100
AcDbEntity
  8
Layer 06$walls
  6
Continuous
370
    13
100
AcDbVertex
100
AcDb2dVertex
 10
10.14193571452051
 20
7.657408008584753
 30
20.98492494458333
  0
VERTEX
  5
24D
330
24B
100
AcDbEntity
  8
Layer 06$walls
  6
Continuous
370
    13
100
AcDbVertex
100
AcDb2dVertex
 10
10.14192289020866
 20
8.252506505930796
 30
20.98492494458333
  0
VERTEX
  5
24E
330
24B
100
AcDbEntity
  8
Layer 06$walls
  6
Continuous
370
    13
100
AcDbVertex
100
AcDb2dVertex
 10
7.791319783311337
 20
8.252455849433318
 30
20.98492494458333
  0
VERTEX
  5
24F
330
24B
100
AcDbEntity
  8
Layer 06$walls
  6
Continuous
370
    13
100
AcDbVertex
100
AcDb2dVertex
 10
7.791332608088851
 20
7.657355562318116
 30
20.98492494458333
  0
VERTEX
  5
250
330
24B
100
AcDbEntity
  8
Layer 06$walls
  6
Continuous
370
    13
100
AcDbVertex
100
AcDb2dVertex
 10
7.991377881728113
 20
7.657395070185885
 30
20.98492494458333
  0
VERTEX
  5
251
330
24B
100
AcDbEntity
  8
Layer 06$walls
  6
Continuous
370
    13
100
AcDbVertex
100
AcDb2dVertex
 10
7.991375860292464
 20
8.04738772357814
 30
20.98492494458333
  0
VERTEX
  5
252
330
24B
100
AcDbEntity
  8
Layer 06$walls
  6
Continuous
370
    13
100
AcDbVertex
100
AcDb2dVertex
 10
9.941876308992505
 20
8.04739783401601
 30
20.98492494458333
  0
VERTEX
  5
253
330
24B
100
AcDbEntity
  8
Layer 06$walls
  6
Continuous
370
    13
100
AcDbVertex
100
AcDb2dVertex
 10
9.941878330428153
 20
7.657406971557066
 30
20.98492494458333
  0
SEQEND
  5
254
330
24B
100
AcDbEntity
  8
Layer 06$walls
  6
Continuous
370
    13
  0
POLYLINE
  5
255
330
1F
100
AcDbEntity
  8
Layer 06$areas
100
AcDb2dPolyline
 66
     1
 10
0.0
 20
0.0
 30
20.98492494458333
 70
     1
  0
VERTEX
  5
256
330
255
100
AcDbEntity
  8
Layer 06$areas
100
AcDbVertex
100
AcDb2dVertex
 10
7.991375860292464
 20
8.04738772357814
 30
20.98492494458333
  0
VERTEX
  5
257
330
255
100
AcDbEntity
  8
Layer 06$areas
100
AcDbVertex
100
AcDb2dVertex
 10
9.941876308992505
 20
8.04739783401601
 30
20.98492494458333
  0
VERTEX
  5
258
330
255
100
AcDbEntity
  8
Layer 06$areas
100
AcDbVertex
100
AcDb2dVertex
 10
9.941887815482914
 20
6.45709900255315
 30
20.98492494458333
  0
VERTEX
  5
259
330
255
100
AcDbEntity
  8
Layer 06$areas
100
AcDbVertex
100
AcDb2dVertex
 10
7.991387366317213
 20
6.457080888329074
 30
20.98492494458333
  0
SEQEND
  5
25A
330
255
100
AcDbEntity
  8
Layer 06$areas
  0
POLYLINE
  5
25B
330
1F
100
AcDbEntity
  8
Layer 06$areas
100
AcDb2dPolyline
 66
     1
 10
0.0
 20
0.0
 30
20.98492494458333
  0
VERTEX
  5
25C
330
25B
100
AcDbEntity
  8
Layer 06$areas
100
AcDbVertex
100
AcDb2dVertex
 10
6.391820426564664
 20
6.252568111289293
 30
20.98492494458333
  0
VERTEX
  5
25D
330
25B
100
AcDbEntity
  8
Layer 06$areas
100
AcDbVertex
100
AcDb2dVertex
 10
6.391325464006513
 20
5.011698719114065
 30
20.98492494458333
  0
VERTEX
  5
25E
330
25B
100
AcDbEntity
  8
Layer 06$areas
100
AcDbVertex
100
AcDb2dVertex
 10
9.94663414824754
 20
5.011676730588078
 30
20.98492494458333
  0
VERTEX
  5
25F
330
25B
100
AcDbEntity
  8
Layer 06$areas
100
AcDbVertex
100
AcDb2dVertex
 10
9.946642929222435
 20
6.25199460843578
 30
20.98492494458333
  0
VERTEX
  5
260
330
25B
100
AcDbEntity
  8
Layer 06$areas
100
AcDbVertex
100
AcDb2dVertex
 10
6.391820763703436
 20
6.253412569640204
 30
20.98492494458333
  0
SEQEND
  5
261
330
25B
100
AcDbEntity
  8
Layer 06$areas
  0
POLYLINE
  5
262
330
1F
100
AcDbEntity
  8
Layer 06$areas
100
AcDb2dPolyline
 66
     1
 10
0.0
 20
0.0
 30
20.98492494458333
 70
     1
  0
VERTEX
  5
263
330
262
100
AcDbEntity
  8
Layer 06$areas
100
AcDbVertex
100
AcDb2dVertex
 10
6.393112921155989
 20
9.492846162756905
 30
20.98492494458333
  0
VERTEX
  5
264
330
262
100
AcDbEntity
  8
Layer 06$areas
100
AcDbVertex
100
AcDb2dVertex
 10
11.54403232270852
 20
9.492817532969639
 30
20.98492494458333
  0
VERTEX
  5
265
330
262
100
AcDbEntity
  8
Layer 06$areas
100
AcDbVertex
100
AcDb2dVertex
 10
11.54399867961183
 20
5.011667267186567
 30
20.98492494458333
  0
VERTEX
  5
266
330
262
100
AcDbEntity
  8
Layer 06$areas
100
AcDbVertex
100
AcDb2dVertex
 10
9.94663414824754
 20
5.011676730588078
 30
20.98492494458333
  0
VERTEX
  5
267
330
262
100
AcDbEntity
  8
Layer 06$areas
100
AcDbVertex
100
AcDb2dVertex
 10
9.946642929222435
 20
6.25199460843578
 30
20.98492494458333
  0
VERTEX
  5
268
330
262
100
AcDbEntity
  8
Layer 06$areas
100
AcDbVertex
100
AcDb2dVertex
 10
10.14193736389279
 20
6.251993225654587
 30
20.98492494458333
  0
VERTEX
  5
269
330
262
100
AcDbEntity
  8
Layer 06$areas
100
AcDbVertex
100
AcDb2dVertex
 10
10.14192289020866
 20
8.252506505930796
 30
20.98492494458333
  0
VERTEX
  5
26A
330
262
100
AcDbEntity
  8
Layer 06$areas
100
AcDbVertex
100
AcDb2dVertex
 10
7.791319783311337
 20
8.252455849433318
 30
20.98492494458333
  0
VERTEX
  5
26B
330
262
100
AcDbEntity
  8
Layer 06$areas
100
AcDbVertex
100
AcDb2dVertex
 10
7.791334256995469
 20
6.252009867923334
 30
20.98492494458333
  0
VERTEX
  5
26C
330
262
100
AcDbEntity
  8
Layer 06$areas
100
AcDbVertex
100
AcDb2dVertex
 10
6.391820426564664
 20
6.252568111289293
 30
20.98492494458333
  0
SEQEND
  5
26D
330
262
100
AcDbEntity
  8
Layer 06$areas
  0
POLYLINE
  5
26E
330
1F
100
AcDbEntity
  8
Layer 06$walls
100
AcDb2dPolyline
 66
     1
 10
0.0
 20
0.0
 30
0.0
 70
     1
  0
VERTEX
  5
26F
330
26E
100
AcDbEntity
  8
Layer 06$walls
100
AcDbVertex
100
AcDb2dVertex
 10
23.90827215369791
 20
14.33947528130375
 30
0.0
  0
VERTEX
  5
270
330
26E
100
AcDbEntity
  8
Layer 06$walls
100
AcDbVertex
100
AcDb2dVertex
 10
25.5406057452783
 20
14.3396253073588
 30
0.0
  0
VERTEX
  5
271
330
26E
100
AcDbEntity
  8
Layer 06$walls
100
AcDbVertex
100
AcDb2dVertex
 10
25.54068333329633
 20
13.16975438571535
 30
0.0
  0
VERTEX
  5
272
330
26E
100
AcDbEntity
  8
Layer 06$walls
100
AcDbVertex
100
AcDb2dVertex
 10
25.04069741535932
 20
13.16975438571535
 30
0.0
  0
VERTEX
  5
273
330
26E
100
AcDbEntity
  8
Layer 06$walls
100
AcDbVertex
100
AcDb2dVertex
 10
25.04070221399888
 20
13.83945319778286
 30
0.0
  0
VERTEX
  5
274
330
26E
100
AcDbEntity
  8
Layer 06$walls
100
AcDbVertex
100
AcDb2dVertex
 10
23.90827215369791
 20
13.83946119900793
 30
0.0
  0
SEQEND
  5
275
330
26E
100
AcDbEntity
  8
Layer 06$walls
  0
POLYLINE
  5
276
330
1F
100
AcDbEntity
  8
Layer 06$walls
100
AcDb2dPolyline
 66
     1
 10
0.0
 20
0.0
 30
0.0
 70
     1
  0
VERTEX
  5
277
330
276
100
AcDbEntity
  8
Layer 06$walls
100
AcDbVertex
100
AcDb2dVertex
 10
25.04063864657655
 20
3.334528274601325
 30
0.0
  0
VERTEX
  5
278
330
276
100
AcDbEntity
  8
Layer 06$walls
100
AcDbVertex
100
AcDb2dVertex
 10
25.54061397537589
 20
3.334528274601325
 30
0.0
  0
VERTEX
  5
279
330
276
100
AcDbEntity
  8
Layer 06$walls
100
AcDbVertex
100
AcDb2dVertex
 10
25.54061397537589
 20
4.85271977703087
 30
0.0
  0
VERTEX
  5
27A
330
276
100
AcDbEntity
  8
Layer 06$walls
100
AcDbVertex
100
AcDb2dVertex
 10
25.04063864657655
 20
4.85271977703087
 30
0.0
  0
SEQEND
  5
27B
330
276
100
AcDbEntity
  8
Layer 06$walls
  0
POLYLINE
  5
27C
330
1F
100
AcDbEntity
  8
Layer 06$walls
100
AcDb2dPolyline
 66
     1
 10
0.0
 20
0.0
 30
0.0
 70
     1
  0
VERTEX
  5
27D
330
27C
100
AcDbEntity
  8
Layer 06$walls
100
AcDbVertex
100
AcDb2dVertex
 10
25.04066205490381
 20
6.352719759568572
 30
0.0
  0
VERTEX
  5
27E
330
27C
100
AcDbEntity
  8
Layer 06$walls
100
AcDbVertex
100
AcDb2dVertex
 10
25.54063866473734
 20
6.352719759568572
 30
0.0
  0
VERTEX
  5
27F
330
27C
100
AcDbEntity
  8
Layer 06$walls
100
AcDbVertex
100
AcDb2dVertex
 10
25.54063866473734
 20
8.151562405750155
 30
0.0
  0
VERTEX
  5
280
330
27C
100
AcDbEntity
  8
Layer 06$walls
100
AcDbVertex
100
AcDb2dVertex
 10
25.04066205490381
 20
8.151562405750155
 30
0.0
  0
SEQEND
  5
281
330
27C
100
AcDbEntity
  8
Layer 06$walls
  0
POLYLINE
  5
282
330
1F
100
AcDbEntity
  8
Layer 06$walls
100
AcDb2dPolyline
 66
     1
 10
0.0
 20
0.0
 30
0.0
 70
     1
  0
VERTEX
  5
283
330
282
100
AcDbEntity
  8
Layer 06$walls
100
AcDbVertex
100
AcDb2dVertex
 10
25.04068331513554
 20
9.651562387822196
 30
0.0
  0
VERTEX
  5
284
330
282
100
AcDbEntity
  8
Layer 06$walls
100
AcDbVertex
100
AcDb2dVertex
 10
25.54066203720868
 20
9.651562387822196
 30
0.0
  0
VERTEX
  5
285
330
282
100
AcDbEntity
  8
Layer 06$walls
100
AcDbVertex
100
AcDb2dVertex
 10
25.54066203720868
 20
11.16975442157127
 30
0.0
  0
VERTEX
  5
286
330
282
100
AcDbEntity
  8
Layer 06$walls
100
AcDbVertex
100
AcDb2dVertex
 10
25.04068331513554
 20
11.16975442157127
 30
0.0
  0
SEQEND
  5
287
330
282
100
AcDbEntity
  8
Layer 06$walls
  0
POLYLINE
  5
288
330
1F
100
AcDbEntity
  8
Layer 06$walls
100
AcDb2dPolyline
 66
     1
 10
0.0
 20
0.0
 30
0.0
 70
     1
  0
VERTEX
  5
289
330
288
100
AcDbEntity
  8
Layer 06$walls
100
AcDbVertex
100
AcDb2dVertex
 10
16.05429431423545
 20
13.83947529876605
 30
0.0
  0
VERTEX
  5
28A
330
288
100
AcDbEntity
  8
Layer 06$walls
100
AcDbVertex
100
AcDb2dVertex
 10
21.90827219001949
 20
13.83947529876605
 30
0.0
  0
VERTEX
  5
28B
330
288
100
AcDbEntity
  8
Layer 06$walls
100
AcDbVertex
100
AcDb2dVertex
 10
21.90827219001949
 20
14.33953614369966
 30
0.0
  0
VERTEX
  5
28C
330
288
100
AcDbEntity
  8
Layer 06$walls
100
AcDbVertex
100
AcDb2dVertex
 10
16.05429431423545
 20
14.33953614369966
 30
0.0
  0
SEQEND
  5
28D
330
288
100
AcDbEntity
  8
Layer 06$walls
  0
POLYLINE
  5
28E
330
1F
100
AcDbEntity
  8
Layer 06$walls
100
AcDb2dPolyline
 66
     1
 10
0.0
 20
0.0
 30
20.98492494458333
 70
     1
  0
VERTEX
  5
28F
330
28E
100
AcDbEntity
  8
Layer 06$walls
100
AcDbVertex
100
AcDb2dVertex
 10
11.14469085773453
 20
13.83953616139479
 30
20.98492494458333
  0
VERTEX
  5
290
330
28E
100
AcDbEntity
  8
Layer 06$walls
100
AcDbVertex
100
AcDb2dVertex
 10
13.30429462436587
 20
13.83953616139479
 30
20.98492494458333
  0
VERTEX
  5
291
330
28E
100
AcDbEntity
  8
Layer 06$walls
100
AcDbVertex
100
AcDb2dVertex
 10
13.30429462436587
 20
14.33956217998639
 30
20.98492494458333
  0
VERTEX
  5
292
330
28E
100
AcDbEntity
  8
Layer 06$walls
100
AcDbVertex
100
AcDb2dVertex
 10
11.14469085773453
 20
14.33956217998639
 30
20.98492494458333
  0
SEQEND
  5
293
330
28E
100
AcDbEntity
  8
Layer 06$walls
  0
POLYLINE
  5
294
330
1F
100
AcDbEntity
  8
Layer 06$walls
100
AcDb2dPolyline
 66
     1
 10
0.0
 20
0.0
 30
20.98492494458333
 70
     1
  0
VERTEX
  5
295
330
294
100
AcDbEntity
  8
Layer 06$walls
100
AcDbVertex
100
AcDb2dVertex
 10
7.535664403345436
 20
13.83956219768152
 30
20.98492494458333
  0
VERTEX
  5
296
330
294
100
AcDbEntity
  8
Layer 06$walls
100
AcDbVertex
100
AcDb2dVertex
 10
9.644690875895321
 20
13.83956219768152
 30
20.98492494458333
  0
VERTEX
  5
297
330
294
100
AcDbEntity
  8
Layer 06$walls
100
AcDbVertex
100
AcDb2dVertex
 10
9.644690875895321
 20
14.33959094271995
 30
20.98492494458333
  0
VERTEX
  5
298
330
294
100
AcDbEntity
  8
Layer 06$walls
100
AcDbVertex
100
AcDb2dVertex
 10
7.535664403345436
 20
14.33959094271995
 30
20.98492494458333
  0
SEQEND
  5
299
330
294
100
AcDbEntity
  8
Layer 06$walls
  0
POLYLINE
  5
29A
330
1F
100
AcDbEntity
  8
Layer 06$walls
100
AcDb2dPolyline
 66
     1
 10
0.0
 20
0.0
 30
20.98492494458333
 70
     1
  0
VERTEX
  5
29B
330
29A
100
AcDbEntity
  8
Layer 06$walls
100
AcDbVertex
100
AcDb2dVertex
 10
3.34470987925306
 20
13.83959096041508
 30
20.98492494458333
  0
VERTEX
  5
29C
330
29A
100
AcDbEntity
  8
Layer 06$walls
100
AcDbVertex
100
AcDb2dVertex
 10
5.535664439201355
 20
13.83959096041508
 30
20.98492494458333
  0
VERTEX
  5
29D
330
29A
100
AcDbEntity
  8
Layer 06$walls
100
AcDbVertex
100
AcDb2dVertex
 10
5.535664439201355
 20
14.33961487491615
 30
20.98492494458333
  0
VERTEX
  5
29E
330
29A
100
AcDbEntity
  8
Layer 06$walls
100
AcDbVertex
100
AcDb2dVertex
 10
3.34470987925306
 20
14.33961487491615
 30
20.98492494458333
  0
SEQEND
  5
29F
330
29A
100
AcDbEntity
  8
Layer 06$walls
  0
POLYLINE
  5
2A0
330
1F
100
AcDbEntity
  8
Layer 06$walls
100
AcDb2dPolyline
 66
     1
 10
0.0
 20
0.0
 30
20.98492494458333
 70
     1
  0
VERTEX
  5
2A1
330
2A0
100
AcDbEntity
  8
Layer 06$walls
100
AcDbVertex
100
AcDb2dVertex
 10
0.6447379970923066
 20
3.242600769503042
 30
20.98492494458333
  0
VERTEX
  5
2A2
330
2A0
100
AcDbEntity
  8
Layer 06$walls
100
AcDbVertex
100
AcDb2dVertex
 10
1.144667602609843
 20
3.242600769503042
 30
20.98492494458333
  0
VERTEX
  5
2A3
330
2A0
100
AcDbEntity
  8
Layer 06$walls
100
AcDbVertex
100
AcDb2dVertex
 10
1.144667602609843
 20
11.26202607923187
 30
20.98492494458333
  0
VERTEX
  5
2A4
330
2A0
100
AcDbEntity
  8
Layer 06$walls
100
AcDbVertex
100
AcDb2dVertex
 10
0.6447379970923066
 20
11.26202607923187
 30
20.98492494458333
  0
SEQEND
  5
2A5
330
2A0
100
AcDbEntity
  8
Layer 06$walls
  0
POLYLINE
  5
2A6
330
1F
100
AcDbEntity
  8
Layer 06$walls
100
AcDb3dPolyline
 66
     1
 10
0.0
 20
0.0
 30
0.0
 70
     9
  0
VERTEX
  5
2A7
330
2A6
100
AcDbEntity
  8
Layer 06$walls
100
AcDbVertex
100
AcDb3dPolylineVertex
 10
0.6447520977817476
 20
13.26202604337595
 30
20.98492494458333
 70
    32
  0
VERTEX
  5
2A8
330
2A6
100
AcDbEntity
  8
Layer 06$walls
100
AcDbVertex
100
AcDb3dPolylineVertex
 10
0.6446632975712419
 20
14.33962530712597
 30
20.98492494458333
 70
    32
  0
VERTEX
  5
2A9
330
2A6
100
AcDbEntity
  8
Layer 06$walls
100
AcDbVertex
100
AcDb3dPolylineVertex
 10
2.144713618792593
 20
14.33961487491615
 30
20.98492494458333
 70
    32
  0
VERTEX
  5
2AA
330
2A6
100
AcDbEntity
  8
Layer 06$walls
100
AcDbVertex
100
AcDb3dPolylineVertex
 10
2.144710225984454
 20
13.83961489284411
 30
20.98492494458333
 70
    32
  0
VERTEX
  5
2AB
330
2A6
100
AcDbEntity
  8
Layer 06$walls
100
AcDbVertex
100
AcDb3dPolylineVertex
 10
1.144756238441914
 20
13.83962177927606
 30
0.0
 70
    32
  0
VERTEX
  5
2AC
330
2A6
100
AcDbEntity
  8
Layer 06$walls
100
AcDbVertex
100
AcDb3dPolylineVertex
 10
1.144737979397178
 20
13.26202604337595
 30
20.98492494458333
 70
    32
  0
SEQEND
  5
2AD
330
2A6
100
AcDbEntity
  8
Layer 06$walls
  0
POLYLINE
  5
2AE
330
1F
100
AcDbEntity
  8
Layer 06$walls
100
AcDb3dPolyline
 66
     1
 10
0.0
 20
0.0
 30
0.0
 70
     8
  0
VERTEX
  5
2AF
330
2AE
100
AcDbEntity
  8
Layer 06$walls
100
AcDbVertex
100
AcDb3dPolylineVertex
 10
2.144617131911218
 20
0.6654922275338322
 30
20.98492494458333
 70
    32
  0
VERTEX
  5
2B0
330
2AE
100
AcDbEntity
  8
Layer 06$walls
100
AcDbVertex
100
AcDb3dPolylineVertex
 10
1.144663297105581
 20
0.665499116294086
 30
0.0
 70
    32
  0
VERTEX
  5
2B1
330
2AE
100
AcDbEntity
  8
Layer 06$walls
100
AcDbVertex
100
AcDb3dPolylineVertex
 10
1.144667602609843
 20
1.242596881696954
 30
20.98492494458333
 70
    32
  0
VERTEX
  5
2B2
330
2AE
100
AcDbEntity
  8
Layer 06$walls
100
AcDbVertex
100
AcDb3dPolylineVertex
 10
0.6446632975712419
 20
1.242596881696954
 30
0.0
 70
    32
  0
VERTEX
  5
2B3
330
2AE
100
AcDbEntity
  8
Layer 06$walls
100
AcDbVertex
100
AcDb3dPolylineVertex
 10
0.6446632975712419
 20
0.1655024595092982
 30
20.98492494458333
 70
    32
  0
VERTEX
  5
2B4
330
2AE
100
AcDbEntity
  8
Layer 06$walls
100
AcDbVertex
100
AcDb3dPolylineVertex
 10
2.14461320778355
 20
0.1654922098387033
 30
20.98492494458333
 70
    32
  0
VERTEX
  5
2B5
330
2AE
100
AcDbEntity
  8
Layer 06$walls
100
AcDbVertex
100
AcDb3dPolylineVertex
 10
2.144616736099124
 20
0.6654920617584139
 30
0.0
 70
    32
  0
SEQEND
  5
2B6
330
2AE
100
AcDbEntity
  8
Layer 06$walls
  0
POLYLINE
  5
2B7
330
1F
100
AcDbEntity
  8
Layer 06$walls
100
AcDb2dPolyline
 66
     1
 10
0.0
 20
0.0
 30
20.98492494458333
 70
     1
  0
VERTEX
  5
2B8
330
2B7
100
AcDbEntity
  8
Layer 06$walls
100
AcDbVertex
100
AcDb2dVertex
 10
3.344613392371684
 20
0.1654683134984225
 30
20.98492494458333
  0
VERTEX
  5
2B9
330
2B7
100
AcDbEntity
  8
Layer 06$walls
100
AcDbVertex
100
AcDb2dVertex
 10
5.53556795231998
 20
0.1654683134984225
 30
20.98492494458333
  0
VERTEX
  5
2BA
330
2B7
100
AcDbEntity
  8
Layer 06$walls
100
AcDbVertex
100
AcDb2dVertex
 10
5.53556795231998
 20
0.6654922275338322
 30
20.98492494458333
  0
VERTEX
  5
2BB
330
2B7
100
AcDbEntity
  8
Layer 06$walls
100
AcDbVertex
100
AcDb2dVertex
 10
3.344613392371684
 20
0.6654922275338322
 30
20.98492494458333
  0
SEQEND
  5
2BC
330
2B7
100
AcDbEntity
  8
Layer 06$walls
  0
POLYLINE
  5
2BD
330
1F
100
AcDbEntity
  8
Layer 06$walls
100
AcDb2dPolyline
 66
     1
 10
0.0
 20
0.0
 30
20.98492494458333
 70
     1
  0
VERTEX
  5
2BE
330
2BD
100
AcDbEntity
  8
Layer 06$walls
100
AcDbVertex
100
AcDb2dVertex
 10
7.535567916464061
 20
0.1646528907585889
 30
20.98492494458333
  0
VERTEX
  5
2BF
330
2BD
100
AcDbEntity
  8
Layer 06$walls
100
AcDbVertex
100
AcDb2dVertex
 10
9.643975497689098
 20
0.1646528907585889
 30
20.98492494458333
  0
VERTEX
  5
2C0
330
2BD
100
AcDbEntity
  8
Layer 06$walls
100
AcDbVertex
100
AcDb2dVertex
 10
9.643975497689098
 20
0.6654682953376323
 30
20.98492494458333
  0
VERTEX
  5
2C1
330
2BD
100
AcDbEntity
  8
Layer 06$walls
100
AcDbVertex
100
AcDb2dVertex
 10
7.535567916464061
 20
0.6654682953376323
 30
20.98492494458333
  0
SEQEND
  5
2C2
330
2BD
100
AcDbEntity
  8
Layer 06$walls
  0
POLYLINE
  5
2C3
330
1F
100
AcDbEntity
  8
Layer 06$walls
100
AcDb2dPolyline
 66
     1
 10
0.0
 20
0.0
 30
20.98492494458333
 70
     1
  0
VERTEX
  5
2C4
330
2C3
100
AcDbEntity
  8
Layer 06$walls
100
AcDbVertex
100
AcDb2dVertex
 10
11.14397547347471
 20
0.1654135140124708
 30
20.98492494458333
  0
VERTEX
  5
2C5
330
2C3
100
AcDbEntity
  8
Layer 06$walls
100
AcDbVertex
100
AcDb2dVertex
 10
13.30419813701883
 20
0.1654135140124708
 30
20.98492494458333
  0
VERTEX
  5
2C6
330
2C3
100
AcDbEntity
  8
Layer 06$walls
100
AcDbVertex
100
AcDb2dVertex
 10
13.30419813701883
 20
0.6646528712008148
 30
20.98492494458333
  0
VERTEX
  5
2C7
330
2C3
100
AcDbEntity
  8
Layer 06$walls
100
AcDbVertex
100
AcDb2dVertex
 10
11.14397547347471
 20
0.6646528712008148
 30
20.98492494458333
  0
SEQEND
  5
2C8
330
2C3
100
AcDbEntity
  8
Layer 06$walls
  0
POLYLINE
  5
2C9
330
1F
100
AcDbEntity
  8
Layer 06$walls
100
AcDb2dPolyline
 66
     1
 10
0.0
 20
0.0
 30
0.0
 70
     1
  0
VERTEX
  5
2CA
330
2C9
100
AcDbEntity
  8
Layer 06$walls
100
AcDbVertex
100
AcDb2dVertex
 10
16.05419782735407
 20
0.1653526155278087
 30
0.0
  0
VERTEX
  5
2CB
330
2C9
100
AcDbEntity
  8
Layer 06$walls
100
AcDbVertex
100
AcDb2dVertex
 10
21.90817517228425
 20
0.1653526155278087
 30
0.0
  0
VERTEX
  5
2CC
330
2C9
100
AcDbEntity
  8
Layer 06$walls
100
AcDbVertex
100
AcDb2dVertex
 10
21.90817517228425
 20
0.6654134963173419
 30
0.0
  0
VERTEX
  5
2CD
330
2C9
100
AcDbEntity
  8
Layer 06$walls
100
AcDbVertex
100
AcDb2dVertex
 10
16.05419782735407
 20
0.6654134963173419
 30
0.0
  0
SEQEND
  5
2CE
330
2C9
100
AcDbEntity
  8
Layer 06$walls
  0
POLYLINE
  5
2CF
330
1F
100
AcDbEntity
  8
Layer 06$doors
100
AcDb2dPolyline
 66
     1
 10
0.0
 20
0.0
 30
0.0
 70
     1
  0
VERTEX
  5
2D0
330
2CF
100
AcDbEntity
  8
Layer 06$doors
100
AcDbVertex
100
AcDb2dVertex
 10
13.30420152982697
 20
0.1653940426185727
 30
0.0
  0
VERTEX
  5
2D1
330
2CF
100
AcDbEntity
  8
Layer 06$doors
100
AcDbVertex
100
AcDb2dVertex
 10
16.05419782735407
 20
0.1653940426185727
 30
0.0
  0
VERTEX
  5
2D2
330
2CF
100
AcDbEntity
  8
Layer 06$doors
100
AcDbVertex
100
AcDb2dVertex
 10
16.05419782735407
 20
0.6654134963173419
 30
0.0
  0
VERTEX
  5
2D3
330
2CF
100
AcDbEntity
  8
Layer 06$doors
100
AcDbVertex
100
AcDb2dVertex
 10
13.30420152982697
 20
0.6654134963173419
 30
0.0
  0
SEQEND
  5
2D4
330
2CF
100
AcDbEntity
  8
Layer 06$doors
  0
POLYLINE
  5
2D5
330
1F
100
AcDbEntity
  8
Layer 06$doors
100
AcDb2dPolyline
 66
     1
 10
0.0
 20
0.0
 30
0.0
 70
     1
  0
VERTEX
  5
2D6
330
2D5
100
AcDbEntity
  8
Layer 06$doors
100
AcDbVertex
100
AcDb2dVertex
 10
13.30429801624268
 20
13.83951669000089
 30
0.0
  0
VERTEX
  5
2D7
330
2D5
100
AcDbEntity
  8
Layer 06$doors
100
AcDbVertex
100
AcDb2dVertex
 10
16.05429431423545
 20
13.83951669000089
 30
0.0
  0
VERTEX
  5
2D8
330
2D5
100
AcDbEntity
  8
Layer 06$doors
100
AcDbVertex
100
AcDb2dVertex
 10
16.05429431423545
 20
14.33953614369966
 30
0.0
  0
VERTEX
  5
2D9
330
2D5
100
AcDbEntity
  8
Layer 06$doors
100
AcDbVertex
100
AcDb2dVertex
 10
13.30429801624268
 20
14.33953614369966
 30
0.0
  0
SEQEND
  5
2DA
330
2D5
100
AcDbEntity
  8
Layer 06$doors
  0
POLYLINE
  5
2DB
330
1F
100
AcDbEntity
  8
Layer 06$doors
100
AcDb2dPolyline
 66
     1
 10
0.0
 20
0.0
 30
0.0
 70
     1
  0
VERTEX
  5
2DC
330
2DB
100
AcDbEntity
  8
Layer 06$doors
100
AcDbVertex
100
AcDb2dVertex
 10
15.47577810660005
 20
4.959142619511113
 30
0.0
  0
VERTEX
  5
2DD
330
2DB
100
AcDbEntity
  8
Layer 06$doors
100
AcDbVertex
100
AcDb2dVertex
 10
15.57577184168622
 20
4.959142619511113
 30
0.0
  0
VERTEX
  5
2DE
330
2DB
100
AcDbEntity
  8
Layer 06$doors
100
AcDbVertex
100
AcDb2dVertex
 10
15.57577184168622
 20
5.85914339334704
 30
0.0
  0
VERTEX
  5
2DF
330
2DB
100
AcDbEntity
  8
Layer 06$doors
100
AcDbVertex
100
AcDb2dVertex
 10
15.47577810660005
 20
5.85914339334704
 30
0.0
  0
SEQEND
  5
2E0
330
2DB
100
AcDbEntity
  8
Layer 06$doors
  0
POLYLINE
  5
2E1
330
1F
100
AcDbEntity
  8
Layer 06$areas
100
AcDb2dPolyline
 66
     1
 10
0.0
 20
0.0
 30
0.0
 70
     1
  0
VERTEX
  5
2E2
330
2E1
100
AcDbEntity
  8
Layer 06$areas
100
AcDbVertex
100
AcDb2dVertex
 10
1.144708842039108
 20
4.739313633646816
 30
0.0
  0
VERTEX
  5
2E3
330
2E1
100
AcDbEntity
  8
Layer 06$areas
100
AcDbVertex
100
AcDb2dVertex
 10
4.245781395118684
 20
4.739313633646816
 30
0.0
  0
VERTEX
  5
2E4
330
2E1
100
AcDbEntity
  8
Layer 06$areas
100
AcDbVertex
100
AcDb2dVertex
 10
4.245781395118684
 20
7.102060481207445
 30
0.0
  0
VERTEX
  5
2E5
330
2E1
100
AcDbEntity
  8
Layer 06$areas
100
AcDbVertex
100
AcDb2dVertex
 10
1.144708842039108
 20
7.102060481207445
 30
0.0
  0
SEQEND
  5
2E6
330
2E1
100
AcDbEntity
  8
Layer 06$areas
  0
POLYLINE
  5
2E7
330
1F
100
AcDbEntity
  8
Layer 06$doors
100
AcDb2dPolyline
 66
     1
 10
0.0
 20
0.0
 30
20.98492494458333
 70
     1
  0
VERTEX
  5
2E8
330
2E7
100
AcDbEntity
  8
Layer 06$doors
100
AcDbVertex
100
AcDb2dVertex
 10
4.245344499126077
 20
5.492295946693048
 30
20.98492494458333
  0
VERTEX
  5
2E9
330
2E7
100
AcDbEntity
  8
Layer 06$doors
100
AcDbVertex
100
AcDb2dVertex
 10
4.345045920461416
 20
5.492295946693048
 30
20.98492494458333
  0
VERTEX
  5
2EA
330
2E7
100
AcDbEntity
  8
Layer 06$doors
100
AcDbVertex
100
AcDb2dVertex
 10
4.345045920461416
 20
6.392333037918434
 30
20.98492494458333
  0
VERTEX
  5
2EB
330
2E7
100
AcDbEntity
  8
Layer 06$doors
100
AcDbVertex
100
AcDb2dVertex
 10
4.245344499126077
 20
6.392333037918434
 30
20.98492494458333
  0
SEQEND
  5
2EC
330
2E7
100
AcDbEntity
  8
Layer 06$doors
  0
POLYLINE
  5
2ED
330
1F
100
AcDbEntity
  8
Layer 06$doors
100
AcDb2dPolyline
 66
     1
 10
0.0
 20
0.0
 30
20.98492494458333
 70
     1
  0
VERTEX
  5
2EE
330
2ED
100
AcDbEntity
  8
Layer 06$doors
100
AcDbVertex
100
AcDb2dVertex
 10
6.148091560229659
 20
5.252019874518737
 30
20.98492494458333
  0
VERTEX
  5
2EF
330
2ED
100
AcDbEntity
  8
Layer 06$doors
100
AcDbVertex
100
AcDb2dVertex
 10
6.390466012060642
 20
5.252019874518737
 30
20.98492494458333
  0
VERTEX
  5
2F0
330
2ED
100
AcDbEntity
  8
Layer 06$doors
100
AcDbVertex
100
AcDb2dVertex
 10
6.390466012060642
 20
6.252021606778726
 30
20.98492494458333
  0
VERTEX
  5
2F1
330
2ED
100
AcDbEntity
  8
Layer 06$doors
100
AcDbVertex
100
AcDb2dVertex
 10
6.148091560229659
 20
6.252021606778726
 30
20.98492494458333
  0
SEQEND
  5
2F2
330
2ED
100
AcDbEntity
  8
Layer 06$doors
  0
POLYLINE
  5
2F3
330
1F
100
AcDbEntity
  8
Layer 06$doors
100
AcDb2dPolyline
 66
     1
 10
0.0
 20
0.0
 30
20.98492494458333
 70
     1
  0
VERTEX
  5
2F4
330
2F3
100
AcDbEntity
  8
Layer 06$doors
100
AcDbVertex
100
AcDb2dVertex
 10
6.148112753406167
 20
8.252465713536367
 30
20.98492494458333
  0
VERTEX
  5
2F5
330
2F3
100
AcDbEntity
  8
Layer 06$doors
100
AcDbVertex
100
AcDb2dVertex
 10
6.393105698749423
 20
8.252465713536367
 30
20.98492494458333
  0
VERTEX
  5
2F6
330
2F3
100
AcDbEntity
  8
Layer 06$doors
100
AcDbVertex
100
AcDb2dVertex
 10
6.393105698749423
 20
9.252369965426624
 30
20.98492494458333
  0
VERTEX
  5
2F7
330
2F3
100
AcDbEntity
  8
Layer 06$doors
100
AcDbVertex
100
AcDb2dVertex
 10
6.148112753406167
 20
9.252369965426624
 30
20.98492494458333
  0
SEQEND
  5
2F8
330
2F3
100
AcDbEntity
  8
Layer 06$doors
  0
POLYLINE
  5
2F9
330
1F
100
AcDbEntity
  8
Layer 06$doors
100
AcDb2dPolyline
 66
     1
 10
0.0
 20
0.0
 30
20.98492494458333
 70
     1
  0
VERTEX
  5
2FA
330
2F9
100
AcDbEntity
  8
Layer 06$doors
100
AcDbVertex
100
AcDb2dVertex
 10
11.54403052292764
 20
8.252406047889963
 30
20.98492494458333
  0
VERTEX
  5
2FB
330
2F9
100
AcDbEntity
  8
Layer 06$doors
100
AcDbVertex
100
AcDb2dVertex
 10
11.78270783880726
 20
8.252406047889963
 30
20.98492494458333
  0
VERTEX
  5
2FC
330
2F9
100
AcDbEntity
  8
Layer 06$doors
100
AcDbVertex
100
AcDb2dVertex
 10
11.78270783880726
 20
9.252495968947187
 30
20.98492494458333
  0
VERTEX
  5
2FD
330
2F9
100
AcDbEntity
  8
Layer 06$doors
100
AcDbVertex
100
AcDb2dVertex
 10
11.54403052292764
 20
9.252495968947187
 30
20.98492494458333
  0
SEQEND
  5
2FE
330
2F9
100
AcDbEntity
  8
Layer 06$doors
  0
POLYLINE
  5
2FF
330
1F
100
AcDbEntity
  8
Layer 06$doors
100
AcDb2dPolyline
 66
     1
 10
0.0
 20
0.0
 30
20.98492494458333
 70
     1
  0
VERTEX
  5
300
330
2FF
100
AcDbEntity
  8
Layer 06$doors
100
AcDbVertex
100
AcDb2dVertex
 10
11.54400946339592
 20
5.252077858196571
 30
20.98492494458333
  0
VERTEX
  5
301
330
2FF
100
AcDbEntity
  8
Layer 06$doors
100
AcDbVertex
100
AcDb2dVertex
 10
11.78268674202263
 20
5.252077858196571
 30
20.98492494458333
  0
VERTEX
  5
302
330
2FF
100
AcDbEntity
  8
Layer 06$doors
100
AcDbVertex
100
AcDb2dVertex
 10
11.78268674202263
 20
6.251983334077522
 30
20.98492494458333
  0
VERTEX
  5
303
330
2FF
100
AcDbEntity
  8
Layer 06$doors
100
AcDbVertex
100
AcDb2dVertex
 10
11.54400946339592
 20
6.251983334077522
 30
20.98492494458333
  0
SEQEND
  5
304
330
2FF
100
AcDbEntity
  8
Layer 06$doors
  0
POLYLINE
  5
305
330
1F
100
AcDbEntity
  8
Layer 06$doors
100
AcDb2dPolyline
 66
     1
 10
0.0
 20
0.0
 30
0.0
 70
     1
  0
VERTEX
  5
306
330
305
100
AcDbEntity
  8
Layer 06$doors
100
AcDbVertex
100
AcDb2dVertex
 10
20.67577206157148
 20
3.055475559318438
 30
0.0
  0
VERTEX
  5
307
330
305
100
AcDbEntity
  8
Layer 06$doors
100
AcDbVertex
100
AcDb2dVertex
 10
20.77573945885524
 20
3.055475559318438
 30
0.0
  0
VERTEX
  5
308
330
305
100
AcDbEntity
  8
Layer 06$doors
100
AcDbVertex
100
AcDb2dVertex
 10
20.77573945885524
 20
3.955476169707254
 30
0.0
  0
VERTEX
  5
309
330
305
100
AcDbEntity
  8
Layer 06$doors
100
AcDbVertex
100
AcDb2dVertex
 10
20.67577206157148
 20
3.955476169707254
 30
0.0
  0
SEQEND
  5
30A
330
305
100
AcDbEntity
  8
Layer 06$doors
  0
POLYLINE
  5
30B
330
1F
100
AcDbEntity
  8
Layer 06$doors
100
AcDb2dPolyline
 66
     1
 10
0.0
 20
0.0
 30
0.0
 70
     1
  0
VERTEX
  5
30C
330
30B
100
AcDbEntity
  8
Layer 06$doors
100
AcDbVertex
100
AcDb2dVertex
 10
20.67577964812517
 20
4.146561642177403
 30
0.0
  0
VERTEX
  5
30D
330
30B
100
AcDbEntity
  8
Layer 06$doors
100
AcDbVertex
100
AcDb2dVertex
 10
20.77578751882538
 20
4.146561642177403
 30
0.0
  0
VERTEX
  5
30E
330
30B
100
AcDbEntity
  8
Layer 06$doors
100
AcDbVertex
100
AcDb2dVertex
 10
20.77578751882538
 20
5.030912339221686
 30
0.0
  0
VERTEX
  5
30F
330
30B
100
AcDbEntity
  8
Layer 06$doors
100
AcDbVertex
100
AcDb2dVertex
 10
20.67577964812517
 20
5.030912339221686
 30
0.0
  0
SEQEND
  5
310
330
30B
100
AcDbEntity
  8
Layer 06$doors
  0
POLYLINE
  5
311
330
1F
100
AcDbEntity
  8
Layer 06$doors
100
AcDb2dPolyline
 66
     1
 10
0.0
 20
0.0
 30
0.0
 70
     1
  0
VERTEX
  5
312
330
311
100
AcDbEntity
  8
Layer 06$doors
100
AcDbVertex
100
AcDb2dVertex
 10
19.55014528334141
 20
5.079742558998987
 30
0.0
  0
VERTEX
  5
313
330
311
100
AcDbEntity
  8
Layer 06$doors
100
AcDbVertex
100
AcDb2dVertex
 10
20.45014450885355
 20
5.079742558998987
 30
0.0
  0
VERTEX
  5
314
330
311
100
AcDbEntity
  8
Layer 06$doors
100
AcDbVertex
100
AcDb2dVertex
 10
20.45014450885355
 20
5.17974890791811
 30
0.0
  0
VERTEX
  5
315
330
311
100
AcDbEntity
  8
Layer 06$doors
100
AcDbVertex
100
AcDb2dVertex
 10
19.55014528334141
 20
5.17974890791811
 30
0.0
  0
SEQEND
  5
316
330
311
100
AcDbEntity
  8
Layer 06$doors
  0
POLYLINE
  5
317
330
1F
100
AcDbEntity
  8
Layer 06$doors
100
AcDb2dPolyline
 66
     1
 10
0.0
 20
0.0
 30
0.0
 70
     1
  0
VERTEX
  5
318
330
317
100
AcDbEntity
  8
Layer 06$doors
100
AcDbVertex
100
AcDb2dVertex
 10
18.22218961874023
 20
3.001776228891686
 30
0.0
  0
VERTEX
  5
319
330
317
100
AcDbEntity
  8
Layer 06$doors
100
AcDbVertex
100
AcDb2dVertex
 10
18.32219581259415
 20
3.001776228891686
 30
0.0
  0
VERTEX
  5
31A
330
317
100
AcDbEntity
  8
Layer 06$doors
100
AcDbVertex
100
AcDb2dVertex
 10
18.32219581259415
 20
4.201793349115178
 30
0.0
  0
VERTEX
  5
31B
330
317
100
AcDbEntity
  8
Layer 06$doors
100
AcDbVertex
100
AcDb2dVertex
 10
18.22218961874023
 20
4.201793349115178
 30
0.0
  0
SEQEND
  5
31C
330
317
100
AcDbEntity
  8
Layer 06$doors
  0
POLYLINE
  5
31D
330
1F
100
AcDbEntity
  8
Layer 06$areas
100
AcDb2dPolyline
 66
     1
 10
0.0
 20
0.0
 30
0.0
 70
     1
  0
VERTEX
  5
31E
330
31D
100
AcDbEntity
  8
Layer 06$areas
100
AcDbVertex
100
AcDb2dVertex
 10
13.68234822293743
 20
4.861677651992068
 30
0.0
  0
VERTEX
  5
31F
330
31D
100
AcDbEntity
  8
Layer 06$areas
100
AcDbVertex
100
AcDb2dVertex
 10
15.47577810660005
 20
4.861677651992068
 30
0.0
  0
VERTEX
  5
320
330
31D
100
AcDbEntity
  8
Layer 06$areas
100
AcDbVertex
100
AcDb2dVertex
 10
15.47577810660005
 20
7.101971997180954
 30
0.0
  0
VERTEX
  5
321
330
31D
100
AcDbEntity
  8
Layer 06$areas
100
AcDbVertex
100
AcDb2dVertex
 10
13.68234822293743
 20
7.101971997180954
 30
0.0
  0
SEQEND
  5
322
330
31D
100
AcDbEntity
  8
Layer 06$areas
  0
POLYLINE
  5
324
330
1F
100
AcDbEntity
  8
Layer 06$windows
100
AcDb2dPolyline
 66
     1
 10
0.0
 20
0.0
 30
20.98492494458333
 70
     1
  0
VERTEX
  5
325
330
324
100
AcDbEntity
  8
Layer 06$windows
100
AcDbVertex
100
AcDb2dVertex
 10
0.6447520977817476
 20
11.26202268712223
 30
20.98492494458333
  0
VERTEX
  5
326
330
324
100
AcDbEntity
  8
Layer 06$windows
100
AcDbVertex
100
AcDb2dVertex
 10
1.144737979397178
 20
11.26202268712223
 30
20.98492494458333
  0
VERTEX
  5
327
330
324
100
AcDbEntity
  8
Layer 06$windows
100
AcDbVertex
100
AcDb2dVertex
 10
1.144737979397178
 20
13.26202604337595
 30
20.98492494458333
  0
VERTEX
  5
328
330
324
100
AcDbEntity
  8
Layer 06$windows
100
AcDbVertex
100
AcDb2dVertex
 10
0.6447520977817476
 20
13.26202604337595
 30
20.98492494458333
  0
SEQEND
  5
329
330
324
100
AcDbEntity
  8
Layer 06$windows
  0
POLYLINE
  5
32A
330
1F
100
AcDbEntity
  8
Layer 06$windows
100
AcDb2dPolyline
 66
     1
 10
0.0
 20
0.0
 30
20.98492494458333
 70
     1
  0
VERTEX
  5
32B
330
32A
100
AcDbEntity
  8
Layer 06$windows
100
AcDbVertex
100
AcDb2dVertex
 10
0.6446816846728325
 20
1.242596881696954
 30
20.98492494458333
  0
VERTEX
  5
32C
330
32A
100
AcDbEntity
  8
Layer 06$windows
100
AcDbVertex
100
AcDb2dVertex
 10
1.144667602609843
 20
1.242596881696954
 30
20.98492494458333
  0
VERTEX
  5
32D
330
32A
100
AcDbEntity
  8
Layer 06$windows
100
AcDbVertex
100
AcDb2dVertex
 10
1.144667602609843
 20
3.242600769503042
 30
20.98492494458333
  0
VERTEX
  5
32E
330
32A
100
AcDbEntity
  8
Layer 06$windows
100
AcDbVertex
100
AcDb2dVertex
 10
0.6446816846728325
 20
3.242600769503042
 30
20.98492494458333
  0
SEQEND
  5
32F
330
32A
100
AcDbEntity
  8
Layer 06$windows
  0
POLYLINE
  5
330
330
1F
100
AcDbEntity
  8
Layer 06$doors
100
AcDb2dPolyline
 66
     1
 10
0.0
 20
0.0
 30
20.98492494458333
 70
     1
  0
VERTEX
  5
331
330
330
100
AcDbEntity
  8
Layer 06$doors
100
AcDbVertex
100
AcDb2dVertex
 10
2.144617131911218
 20
0.1654838703107089
 30
20.98492494458333
  0
VERTEX
  5
332
330
330
100
AcDbEntity
  8
Layer 06$doors
100
AcDbVertex
100
AcDb2dVertex
 10
3.344613392371684
 20
0.1654838703107089
 30
20.98492494458333
  0
VERTEX
  5
333
330
330
100
AcDbEntity
  8
Layer 06$doors
100
AcDbVertex
100
AcDb2dVertex
 10
3.344613392371684
 20
0.6654922275338322
 30
20.98492494458333
  0
VERTEX
  5
334
330
330
100
AcDbEntity
  8
Layer 06$doors
100
AcDbVertex
100
AcDb2dVertex
 10
2.144617131911218
 20
0.6654922275338322
 30
20.98492494458333
  0
SEQEND
  5
335
330
330
100
AcDbEntity
  8
Layer 06$doors
  0
POLYLINE
  5
336
330
1F
100
AcDbEntity
  8
Layer 06$windows
100
AcDb2dPolyline
 66
     1
 10
0.0
 20
0.0
 30
20.98492494458333
 70
     1
  0
VERTEX
  5
337
330
336
100
AcDbEntity
  8
Layer 06$windows
100
AcDbVertex
100
AcDb2dVertex
 10
5.535571344196796
 20
0.1654542132746428
 30
20.98492494458333
  0
VERTEX
  5
338
330
336
100
AcDbEntity
  8
Layer 06$windows
100
AcDbVertex
100
AcDb2dVertex
 10
7.535567916464061
 20
0.1654542132746428
 30
20.98492494458333
  0
VERTEX
  5
339
330
336
100
AcDbEntity
  8
Layer 06$windows
100
AcDbVertex
100
AcDb2dVertex
 10
7.535567916464061
 20
0.6654682953376323
 30
20.98492494458333
  0
VERTEX
  5
33A
330
336
100
AcDbEntity
  8
Layer 06$windows
100
AcDbVertex
100
AcDb2dVertex
 10
5.535571344196796
 20
0.6654682953376323
 30
20.98492494458333
  0
SEQEND
  5
33B
330
336
100
AcDbEntity
  8
Layer 06$windows
  0
POLYLINE
  5
33C
330
1F
100
AcDbEntity
  8
Layer 06$windows
100
AcDb2dPolyline
 66
     1
 10
0.0
 20
0.0
 30
20.98492494458333
 70
     1
  0
VERTEX
  5
33D
330
33C
100
AcDbEntity
  8
Layer 06$windows
100
AcDbVertex
100
AcDb2dVertex
 10
9.644022812601179
 20
0.1645114768762141
 30
20.98492494458333
  0
VERTEX
  5
33E
330
33C
100
AcDbEntity
  8
Layer 06$windows
100
AcDbVertex
100
AcDb2dVertex
 10
11.14397547347471
 20
0.1645114768762141
 30
20.98492494458333
  0
VERTEX
  5
33F
330
33C
100
AcDbEntity
  8
Layer 06$windows
100
AcDbVertex
100
AcDb2dVertex
 10
11.14397547347471
 20
0.6646528712008148
 30
20.98492494458333
  0
VERTEX
  5
340
330
33C
100
AcDbEntity
  8
Layer 06$windows
100
AcDbVertex
100
AcDb2dVertex
 10
9.644022812601179
 20
0.6646528712008148
 30
20.98492494458333
  0
SEQEND
  5
341
330
33C
100
AcDbEntity
  8
Layer 06$windows
  0
POLYLINE
  5
342
330
1F
100
AcDbEntity
  8
Layer 06$windows
100
AcDb2dPolyline
 66
     1
 10
0.0
 20
0.0
 30
0.0
 70
     1
  0
VERTEX
  5
343
330
342
100
AcDbEntity
  8
Layer 06$windows
100
AcDbVertex
100
AcDb2dVertex
 10
25.04069741535932
 20
11.16975049790926
 30
0.0
  0
VERTEX
  5
344
330
342
100
AcDbEntity
  8
Layer 06$windows
100
AcDbVertex
100
AcDb2dVertex
 10
25.54068333329633
 20
11.16975049790926
 30
0.0
  0
VERTEX
  5
345
330
342
100
AcDbEntity
  8
Layer 06$windows
100
AcDbVertex
100
AcDb2dVertex
 10
25.54068333329633
 20
13.16975438571535
 30
0.0
  0
VERTEX
  5
346
330
342
100
AcDbEntity
  8
Layer 06$windows
100
AcDbVertex
100
AcDb2dVertex
 10
25.04069741535932
 20
13.16975438571535
 30
0.0
  0
SEQEND
  5
347
330
342
100
AcDbEntity
  8
Layer 06$windows
  0
POLYLINE
  5
348
330
1F
100
AcDbEntity
  8
Layer 06$windows
100
AcDb2dPolyline
 66
     1
 10
0.0
 20
0.0
 30
0.0
 70
     1
  0
VERTEX
  5
349
330
348
100
AcDbEntity
  8
Layer 06$windows
100
AcDbVertex
100
AcDb2dVertex
 10
25.04067276278511
 20
8.151559013174847
 30
0.0
  0
VERTEX
  5
34A
330
348
100
AcDbEntity
  8
Layer 06$windows
100
AcDbVertex
100
AcDb2dVertex
 10
25.54066203720868
 20
8.151559013174847
 30
0.0
  0
VERTEX
  5
34B
330
348
100
AcDbEntity
  8
Layer 06$windows
100
AcDbVertex
100
AcDb2dVertex
 10
25.54066203720868
 20
9.651562387822196
 30
0.0
  0
VERTEX
  5
34C
330
348
100
AcDbEntity
  8
Layer 06$windows
100
AcDbVertex
100
AcDb2dVertex
 10
25.04067276278511
 20
9.651562387822196
 30
0.0
  0
SEQEND
  5
34D
330
348
100
AcDbEntity
  8
Layer 06$windows
  0
POLYLINE
  5
34E
330
1F
100
AcDbEntity
  8
Layer 06$windows
100
AcDb2dPolyline
 66
     1
 10
0.0
 20
0.0
 30
0.0
 70
     1
  0
VERTEX
  5
34F
330
34E
100
AcDbEntity
  8
Layer 06$windows
100
AcDbVertex
100
AcDb2dVertex
 10
25.04064935538918
 20
4.852715854300186
 30
0.0
  0
VERTEX
  5
350
330
34E
100
AcDbEntity
  8
Layer 06$windows
100
AcDbVertex
100
AcDb2dVertex
 10
25.54063866473734
 20
4.852715854300186
 30
0.0
  0
VERTEX
  5
351
330
34E
100
AcDbEntity
  8
Layer 06$windows
100
AcDbVertex
100
AcDb2dVertex
 10
25.54063866473734
 20
6.352719759568572
 30
0.0
  0
VERTEX
  5
352
330
34E
100
AcDbEntity
  8
Layer 06$windows
100
AcDbVertex
100
AcDb2dVertex
 10
25.04064935538918
 20
6.352719759568572
 30
0.0
  0
SEQEND
  5
353
330
34E
100
AcDbEntity
  8
Layer 06$windows
  0
POLYLINE
  5
354
330
1F
100
AcDbEntity
  8
Layer 06$windows
100
AcDb2dPolyline
 66
     1
 10
0.0
 20
0.0
 30
0.0
 70
     1
  0
VERTEX
  5
355
330
354
100
AcDbEntity
  8
Layer 06$windows
100
AcDbVertex
100
AcDb2dVertex
 10
25.0406280583702
 20
1.334524387260899
 30
0.0
  0
VERTEX
  5
356
330
354
100
AcDbEntity
  8
Layer 06$windows
100
AcDbVertex
100
AcDb2dVertex
 10
25.54061397537589
 20
1.334524387260899
 30
0.0
  0
VERTEX
  5
357
330
354
100
AcDbEntity
  8
Layer 06$windows
100
AcDbVertex
100
AcDb2dVertex
 10
25.54061397537589
 20
3.334528274601325
 30
0.0
  0
VERTEX
  5
358
330
354
100
AcDbEntity
  8
Layer 06$windows
100
AcDbVertex
100
AcDb2dVertex
 10
25.0406280583702
 20
3.334528274601325
 30
0.0
  0
SEQEND
  5
359
330
354
100
AcDbEntity
  8
Layer 06$windows
  0
POLYLINE
  5
35A
330
1F
100
AcDbEntity
  8
Layer 06$windows
100
AcDb2dPolyline
 66
     1
 10
0.0
 20
0.0
 30
0.0
 70
     1
  0
VERTEX
  5
35B
330
35A
100
AcDbEntity
  8
Layer 06$windows
100
AcDbVertex
100
AcDb2dVertex
 10
21.90817909501493
 20
0.1653385513927788
 30
0.0
  0
VERTEX
  5
35C
330
35A
100
AcDbEntity
  8
Layer 06$windows
100
AcDbVertex
100
AcDb2dVertex
 10
23.90817566728219
 20
0.1653385513927788
 30
0.0
  0
VERTEX
  5
35D
330
35A
100
AcDbEntity
  8
Layer 06$windows
100
AcDbVertex
100
AcDb2dVertex
 10
23.90817566728219
 20
0.6653526334557682
 30
0.0
  0
VERTEX
  5
35E
330
35A
100
AcDbEntity
  8
Layer 06$windows
100
AcDbVertex
100
AcDb2dVertex
 10
21.90817909501493
 20
0.6653526334557682
 30
0.0
  0
SEQEND
  5
35F
330
35A
100
AcDbEntity
  8
Layer 06$windows
  0
POLYLINE
  5
360
330
1F
100
AcDbEntity
  8
Layer 06$areas
100
AcDb2dPolyline
 66
     1
 10
0.0
 20
0.0
 30
0.0
 70
     1
  0
VERTEX
  5
361
330
360
100
AcDbEntity
  8
Layer 06$areas
100
AcDbVertex
100
AcDb2dVertex
 10
18.13548791455105
 20
2.821722059743479
 30
0.0
  0
VERTEX
  5
362
330
360
100
AcDbEntity
  8
Layer 06$areas
100
AcDbVertex
100
AcDb2dVertex
 10
20.21602298179641
 20
2.821722059743479
 30
0.0
  0
VERTEX
  5
363
330
360
100
AcDbEntity
  8
Layer 06$areas
100
AcDbVertex
100
AcDb2dVertex
 10
20.21602298179641
 20
3.001779433107004
 30
0.0
  0
VERTEX
  5
364
330
360
100
AcDbEntity
  8
Layer 06$areas
100
AcDbVertex
100
AcDb2dVertex
 10
18.13548791455105
 20
3.001779433107004
 30
0.0
  0
SEQEND
  5
365
330
360
100
AcDbEntity
  8
Layer 06$areas
  0
POLYLINE
  5
366
330
1F
100
AcDbEntity
  8
Layer 06$areas
100
AcDb2dPolyline
 66
     1
 10
0.0
 20
0.0
 30
0.0
 70
     1
  0
VERTEX
  5
367
330
366
100
AcDbEntity
  8
Layer 06$areas
100
AcDbVertex
100
AcDb2dVertex
 10
18.32219581259415
 20
3.001776228891686
 30
0.0
  0
VERTEX
  5
368
330
366
100
AcDbEntity
  8
Layer 06$areas
100
AcDbVertex
100
AcDb2dVertex
 10
20.67576533276588
 20
3.001776228891686
 30
0.0
  0
VERTEX
  5
369
330
366
100
AcDbEntity
  8
Layer 06$areas
100
AcDbVertex
100
AcDb2dVertex
 10
20.67576533276588
 20
5.079757570987567
 30
0.0
  0
VERTEX
  5
36A
330
366
100
AcDbEntity
  8
Layer 06$areas
100
AcDbVertex
100
AcDb2dVertex
 10
18.32219581259415
 20
5.079757570987567
 30
0.0
  0
SEQEND
  5
36B
330
366
100
AcDbEntity
  8
Layer 06$areas
  0
POLYLINE
  5
36C
330
1F
100
AcDbEntity
  8
Layer 06$areas
100
AcDb2dPolyline
 66
     1
 10
0.0
 20
0.0
 30
0.0
 70
     1
  0
VERTEX
  5
36D
330
36C
100
AcDbEntity
  8
Layer 06$areas
100
AcDbVertex
100
AcDb2dVertex
 10
20.77579391095787
 20
4.106589754810557
 30
0.0
  0
VERTEX
  5
36E
330
36C
100
AcDbEntity
  8
Layer 06$areas
100
AcDbVertex
100
AcDb2dVertex
 10
25.04063354991376
 20
4.106589754810557
 30
0.0
  0
VERTEX
  5
36F
330
36C
100
AcDbEntity
  8
Layer 06$areas
100
AcDbVertex
100
AcDb2dVertex
 10
25.04063354991376
 20
7.101921953959391
 30
0.0
  0
VERTEX
  5
370
330
36C
100
AcDbEntity
  8
Layer 06$areas
100
AcDbVertex
100
AcDb2dVertex
 10
20.77579391095787
 20
7.101921953959391
 30
0.0
  0
SEQEND
  5
371
330
36C
100
AcDbEntity
  8
Layer 06$areas
  0
POLYLINE
  5
372
330
1F
100
AcDbEntity
  8
Layer 06$areas
100
AcDb2dPolyline
 66
     1
 10
0.0
 20
0.0
 30
0.0
 70
     1
  0
VERTEX
  5
373
330
372
100
AcDbEntity
  8
Layer 06$areas
100
AcDbVertex
100
AcDb2dVertex
 10
20.77573585975915
 20
0.6653305350337178
 30
0.0
  0
VERTEX
  5
374
330
372
100
AcDbEntity
  8
Layer 06$areas
100
AcDbVertex
100
AcDb2dVertex
 10
25.04060927312821
 20
0.6653305350337178
 30
0.0
  0
VERTEX
  5
375
330
372
100
AcDbEntity
  8
Layer 06$areas
100
AcDbVertex
100
AcDb2dVertex
 10
25.04060927312821
 20
4.006647408474237
 30
0.0
  0
VERTEX
  5
376
330
372
100
AcDbEntity
  8
Layer 06$areas
100
AcDbVertex
100
AcDb2dVertex
 10
20.77573585975915
 20
4.006647408474237
 30
0.0
  0
SEQEND
  5
377
330
372
100
AcDbEntity
  8
Layer 06$areas
  0
POLYLINE
  5
378
330
1F
100
AcDbEntity
  8
Layer 06$areas
100
AcDb2dPolyline
 66
     1
 10
0.0
 20
0.0
 30
0.0
 70
     1
  0
VERTEX
  5
379
330
378
100
AcDbEntity
  8
Layer 06$areas
100
AcDbVertex
100
AcDb2dVertex
 10
17.67576301004738
 20
0.6653613280504942
 30
0.0
  0
VERTEX
  5
37A
330
378
100
AcDbEntity
  8
Layer 06$areas
100
AcDbVertex
100
AcDb2dVertex
 10
20.67574885021895
 20
0.6653613280504942
 30
0.0
  0
VERTEX
  5
37B
330
378
100
AcDbEntity
  8
Layer 06$areas
100
AcDbVertex
100
AcDb2dVertex
 10
20.67574885021895
 20
2.721725260140374
 30
0.0
  0
VERTEX
  5
37C
330
378
100
AcDbEntity
  8
Layer 06$areas
100
AcDbVertex
100
AcDb2dVertex
 10
17.67576301004738
 20
2.721725260140374
 30
0.0
  0
SEQEND
  5
37D
330
378
100
AcDbEntity
  8
Layer 06$areas
  0
POLYLINE
  5
37E
330
1F
100
AcDbEntity
  8
Layer 06$areas
100
AcDb2dPolyline
 66
     1
 10
0.0
 20
0.0
 30
20.98492494458333
 70
     1
  0
VERTEX
  5
37F
330
37E
100
AcDbEntity
  8
Layer 06$areas
100
AcDbVertex
100
AcDb2dVertex
 10
0.6446632975712419
 20
-1.837225662311539
 30
20.98492494458333
  0
VERTEX
  5
380
330
37E
100
AcDbEntity
  8
Layer 06$areas
100
AcDbVertex
100
AcDb2dVertex
 10
4.344663297757506
 20
-1.837225662311539
 30
20.98492494458333
  0
VERTEX
  5
381
330
37E
100
AcDbEntity
  8
Layer 06$areas
100
AcDbVertex
100
AcDb2dVertex
 10
4.344663297757506
 20
0.1655024595092982
 30
20.98492494458333
  0
VERTEX
  5
382
330
37E
100
AcDbEntity
  8
Layer 06$areas
100
AcDbVertex
100
AcDb2dVertex
 10
0.6446632975712419
 20
0.1655024595092982
 30
20.98492494458333
  0
SEQEND
  5
383
330
37E
100
AcDbEntity
  8
Layer 06$areas
  0
POLYLINE
  5
384
330
1F
100
AcDbEntity
  8
Layer 06$areas
100
AcDb2dPolyline
 66
     1
 10
0.0
 20
0.0
 30
0.0
 70
     1
  0
VERTEX
  5
385
330
384
100
AcDbEntity
  8
Layer 06$areas
100
AcDbVertex
100
AcDb2dVertex
 10
11.78265078458935
 20
-1.837318933801726
 30
0.0
  0
VERTEX
  5
386
330
384
100
AcDbEntity
  8
Layer 06$areas
100
AcDbVertex
100
AcDb2dVertex
 10
17.57573084626347
 20
-1.837318933801726
 30
0.0
  0
VERTEX
  5
387
330
384
100
AcDbEntity
  8
Layer 06$areas
100
AcDbVertex
100
AcDb2dVertex
 10
17.57573084626347
 20
0.1654227676335722
 30
0.0
  0
VERTEX
  5
388
330
384
100
AcDbEntity
  8
Layer 06$areas
100
AcDbVertex
100
AcDb2dVertex
 10
11.78265078458935
 20
0.1654227676335722
 30
0.0
  0
SEQEND
  5
389
330
384
100
AcDbEntity
  8
Layer 06$areas
  0
POLYLINE
  5
38A
330
1F
100
AcDbEntity
  8
Layer 06$areas
100
AcDb2dPolyline
 66
     1
 10
0.0
 20
0.0
 30
0.0
 70
     1
  0
VERTEX
  5
38B
330
38A
100
AcDbEntity
  8
Layer 06$areas
100
AcDbVertex
100
AcDb2dVertex
 10
11.7827648697421
 20
14.33950586081482
 30
0.0
  0
VERTEX
  5
38C
330
38A
100
AcDbEntity
  8
Layer 06$areas
100
AcDbVertex
100
AcDb2dVertex
 10
17.57584497099742
 20
14.33950586081482
 30
0.0
  0
VERTEX
  5
38D
330
38A
100
AcDbEntity
  8
Layer 06$areas
100
AcDbVertex
100
AcDb2dVertex
 10
17.57584497099742
 20
16.33670896780677
 30
0.0
  0
VERTEX
  5
38E
330
38A
100
AcDbEntity
  8
Layer 06$areas
100
AcDbVertex
100
AcDb2dVertex
 10
11.7827648697421
 20
16.33670896780677
 30
0.0
  0
SEQEND
  5
38F
330
38A
100
AcDbEntity
  8
Layer 06$areas
  0
POLYLINE
  5
390
330
1F
100
AcDbEntity
  8
Layer 06$areas
100
AcDb2dPolyline
 66
     1
 10
0.0
 20
0.0
 30
20.98492494458333
 70
     1
  0
VERTEX
  5
391
330
390
100
AcDbEntity
  8
Layer 06$areas
100
AcDbVertex
100
AcDb2dVertex
 10
0.6440538102760911
 20
14.3409701732453
 30
20.98492494458333
  0
VERTEX
  5
392
330
390
100
AcDbEntity
  8
Layer 06$areas
100
AcDbVertex
100
AcDb2dVertex
 10
4.34174770116806
 20
14.3409701732453
 30
20.98492494458333
  0
VERTEX
  5
393
330
390
100
AcDbEntity
  8
Layer 06$areas
100
AcDbVertex
100
AcDb2dVertex
 10
4.34174770116806
 20
16.33962517417967
 30
20.98492494458333
  0
VERTEX
  5
394
330
390
100
AcDbEntity
  8
Layer 06$areas
100
AcDbVertex
100
AcDb2dVertex
 10
0.6440538102760911
 20
16.33962517417967
 30
20.98492494458333
  0
SEQEND
  5
395
330
390
100
AcDbEntity
  8
Layer 06$areas
  0
POLYLINE
  5
396
330
1F
100
AcDbEntity
  8
Layer 06$windows
100
AcDb2dPolyline
 66
     1
 10
0.0
 20
0.0
 30
0.0
 70
     1
  0
VERTEX
  5
397
330
396
100
AcDbEntity
  8
Layer 06$windows
100
AcDbVertex
100
AcDb2dVertex
 10
21.90827558143064
 20
13.83946119900793
 30
0.0
  0
VERTEX
  5
398
330
396
100
AcDbEntity
  8
Layer 06$windows
100
AcDbVertex
100
AcDb2dVertex
 10
23.90827215369791
 20
13.83946119900793
 30
0.0
  0
VERTEX
  5
399
330
396
100
AcDbEntity
  8
Layer 06$windows
100
AcDbVertex
100
AcDb2dVertex
 10
23.90827215369791
 20
14.33947528130375
 30
0.0
  0
VERTEX
  5
39A
330
396
100
AcDbEntity
  8
Layer 06$windows
100
AcDbVertex
100
AcDb2dVertex
 10
21.90827558143064
 20
14.33947528130375
 30
0.0
  0
SEQEND
  5
39B
330
396
100
AcDbEntity
  8
Layer 06$windows
  0
POLYLINE
  5
39C
330
1F
100
AcDbEntity
  8
Layer 06$windows
100
AcDb2dPolyline
 66
     1
 10
0.0
 20
0.0
 30
20.98492494458333
 70
     1
  0
VERTEX
  5
39D
330
39C
100
AcDbEntity
  8
Layer 06$windows
100
AcDbVertex
100
AcDb2dVertex
 10
9.644694267772138
 20
13.83955149003305
 30
20.98492494458333
  0
VERTEX
  5
39E
330
39C
100
AcDbEntity
  8
Layer 06$windows
100
AcDbVertex
100
AcDb2dVertex
 10
11.14469085773453
 20
13.83955149003305
 30
20.98492494458333
  0
VERTEX
  5
39F
330
39C
100
AcDbEntity
  8
Layer 06$windows
100
AcDbVertex
100
AcDb2dVertex
 10
11.14469085773453
 20
14.33956217998639
 30
20.98492494458333
  0
VERTEX
  5
3A0
330
39C
100
AcDbEntity
  8
Layer 06$windows
100
AcDbVertex
100
AcDb2dVertex
 10
9.644694267772138
 20
14.33956217998639
 30
20.98492494458333
  0
SEQEND
  5
3A1
330
39C
100
AcDbEntity
  8
Layer 06$windows
  0
POLYLINE
  5
3A2
330
1F
100
AcDbEntity
  8
Layer 06$windows
100
AcDb2dPolyline
 66
     1
 10
0.0
 20
0.0
 30
20.98492494458333
 70
     1
  0
VERTEX
  5
3A3
330
3A2
100
AcDbEntity
  8
Layer 06$windows
100
AcDbVertex
100
AcDb2dVertex
 10
5.535667831078172
 20
13.8395768601913
 30
20.98492494458333
  0
VERTEX
  5
3A4
330
3A2
100
AcDbEntity
  8
Layer 06$windows
100
AcDbVertex
100
AcDb2dVertex
 10
7.535664403345436
 20
13.8395768601913
 30
20.98492494458333
  0
VERTEX
  5
3A5
330
3A2
100
AcDbEntity
  8
Layer 06$windows
100
AcDbVertex
100
AcDb2dVertex
 10
7.535664403345436
 20
14.33959094271995
 30
20.98492494458333
  0
VERTEX
  5
3A6
330
3A2
100
AcDbEntity
  8
Layer 06$windows
100
AcDbVertex
100
AcDb2dVertex
 10
5.535667831078172
 20
14.33959094271995
 30
20.98492494458333
  0
SEQEND
  5
3A7
330
3A2
100
AcDbEntity
  8
Layer 06$windows
  0
POLYLINE
  5
3A8
330
1F
100
AcDbEntity
  8
Layer 06$doors
100
AcDb2dPolyline
 66
     1
 10
0.0
 20
0.0
 30
20.98492494458333
 70
     1
  0
VERTEX
  5
3A9
330
3A8
100
AcDbEntity
  8
Layer 06$doors
100
AcDbVertex
100
AcDb2dVertex
 10
2.144713618792593
 20
13.83960651769303
 30
20.98492494458333
  0
VERTEX
  5
3AA
330
3A8
100
AcDbEntity
  8
Layer 06$doors
100
AcDbVertex
100
AcDb2dVertex
 10
3.34470987925306
 20
13.83960651769303
 30
20.98492494458333
  0
VERTEX
  5
3AB
330
3A8
100
AcDbEntity
  8
Layer 06$doors
100
AcDbVertex
100
AcDb2dVertex
 10
3.34470987925306
 20
14.33961487491615
 30
20.98492494458333
  0
VERTEX
  5
3AC
330
3A8
100
AcDbEntity
  8
Layer 06$doors
100
AcDbVertex
100
AcDb2dVertex
 10
2.144713618792593
 20
14.33961487491615
 30
20.98492494458333
  0
SEQEND
  5
3AD
330
3A8
100
AcDbEntity
  8
Layer 06$doors
  0
ENDSEC
  0
SECTION
  2
OBJECTS
  0
DICTIONARY
  5
C
330
0
100
AcDbDictionary
281
     1
  3
ACAD_DETAILVIEWSTYLE
350
3B5
  3
ACAD_GROUP
350
D
  3
ACAD_LAYOUT
350
1A
  3
ACAD_MATERIAL
350
43
  3
ACAD_MLEADERSTYLE
350
5B
  3
ACAD_MLINESTYLE
350
17
  3
ACAD_PLOTSETTINGS
350
19
  3
ACAD_PLOTSTYLENAME
350
E
  3
ACAD_SCALELIST
350
47
  3
ACAD_SECTIONVIEWSTYLE
350
3B6
  3
ACAD_TABLESTYLE
350
59
  3
ACAD_VISUALSTYLE
350
2A
  3
ACDB_RECOMPOSE_DATA
350
3B2
  3
AcDbVariableDictionary
350
3AE
  0
SUN
  5
5D
330
29
100
AcDbSun
 90
        1
290
     0
 63
     7
421
 16777215
 40
1.0
291
     1
 91
  2455826
 92
 54000000
292
     0
 70
     2
 71
   256
280
     1
  0
DICTIONARY
  5
3B5
102
{ACAD_REACTORS
330
C
102
}
330
C
100
AcDbDictionary
281
     1
  0
DICTIONARY
  5
D
102
{ACAD_REACTORS
330
C
102
}
330
C
100
AcDbDictionary
281
     1
  0
DICTIONARY
  5
1A
102
{ACAD_REACTORS
330
C
102
}
330
C
100
AcDbDictionary
281
     1
  3
Layout1
350
1E
  3
Layout2
350
26
  3
Model
350
22
  0
DICTIONARY
  5
43
102
{ACAD_REACTORS
330
C
102
}
330
C
100
AcDbDictionary
281
     1
  3
ByBlock
350
45
  3
ByLayer
350
44
  3
Global
350
46
  0
DICTIONARY
  5
5B
102
{ACAD_REACTORS
330
C
102
}
330
C
100
AcDbDictionary
281
     1
  3
Standard
350
5C
  0
DICTIONARY
  5
17
102
{ACAD_REACTORS
330
C
102
}
330
C
100
AcDbDictionary
281
     1
  3
Standard
350
18
  0
DICTIONARY
  5
19
102
{ACAD_REACTORS
330
C
102
}
330
C
100
AcDbDictionary
281
     1
  0
ACDBDICTIONARYWDFLT
  5
E
102
{ACAD_REACTORS
330
C
102
}
330
C
100
AcDbDictionary
281
     1
  3
Normal
350
F
100
AcDbDictionaryWithDefault
340
F
  0
DICTIONARY
  5
47
102
{ACAD_REACTORS
330
C
102
}
330
C
100
AcDbDictionary
281
     1
  3
A0
350
48
  3
A1
350
49
  3
A2
350
4A
  3
A3
350
4B
  3
A4
350
4C
  3
A5
350
4D
  3
A6
350
4E
  3
A7
350
4F
  3
A8
350
50
  3
A9
350
51
  3
B1
350
52
  3
B2
350
53
  3
B3
350
54
  3
B4
350
55
  3
B5
350
56
  3
B6
350
57
  3
B7
350
58
  0
DICTIONARY
  5
3B6
102
{ACAD_REACTORS
330
C
102
}
330
C
100
AcDbDictionary
281
     1
  0
DICTIONARY
  5
59
102
{ACAD_REACTORS
330
C
102
}
330
C
100
AcDbDictionary
281
     1
  3
Standard
350
5A
  0
DICTIONARY
  5
2A
102
{ACAD_REACTORS
330
C
102
}
330
C
100
AcDbDictionary
281
     1
  3
2dWireframe
350
2F
  3
Basic
350
32
  3
Brighten
350
36
  3
ColorChange
350
3A
  3
Conceptual
350
34
  3
Dim
350
35
  3
EdgeColorOff
350
3D
  3
Facepattern
350
39
  3
Flat
350
2B
  3
FlatWithEdges
350
2C
  3
Gouraud
350
2D
  3
GouraudWithEdges
350
2E
  3
Hidden
350
31
  3
JitterOff
350
3B
  3
Linepattern
350
38
  3
OverhangOff
350
3C
  3
Realistic
350
33
  3
Shaded
350
42
  3
Shaded with edges
350
41
  3
Shades of Gray
350
3E
  3
Sketchy
350
3F
  3
Thicken
350
37
  3
Wireframe
350
30
  3
X-Ray
350
40
  0
XRECORD
  5
3B2
102
{ACAD_REACTORS
330
C
102
}
330
C
100
AcDbXrecord
280
     1
 90
        1
330
5A
  0
DICTIONARY
  5
3AE
102
{ACAD_REACTORS
330
C
102
}
330
C
100
AcDbDictionary
281
     1
  3
CANNOSCALE
350
3AF
  3
CMLEADERSTYLE
350
3B4
  3
CTABLESTYLE
350
3B3
  0
LAYOUT
  5
1E
102
{ACAD_REACTORS
330
1A
102
}
330
1A
100
AcDbPlotSettings
  1

  2
none_device
  4

  6

 40
0.0
 41
0.0
 42
0.0
 43
0.0
 44
0.0
 45
0.0
 46
0.0
 47
0.0
 48
0.0
 49
0.0
140
0.0
141
0.0
142
1.0
143
1.0
 70
   688
 72
     0
 73
     0
 74
     5
  7

 75
    16
 76
     0
 77
     2
 78
   300
147
1.0
148
0.0
149
0.0
100
AcDbLayout
  1
Layout1
 70
     1
 71
     1
 10
0.0
 20
0.0
 11
12.0
 21
9.0
 12
0.0
 22
0.0
 32
0.0
 14
1.000000000000000E+20
 24
1.000000000000000E+20
 34
1.000000000000000E+20
 15
-1.000000000000000E+20
 25
-1.000000000000000E+20
 35
-1.000000000000000E+20
146
0.0
 13
0.0
 23
0.0
 33
0.0
 16
1.0
 26
0.0
 36
0.0
 17
0.0
 27
1.0
 37
0.0
 76
     0
330
1B
  0
LAYOUT
  5
26
102
{ACAD_REACTORS
330
1A
102
}
330
1A
100
AcDbPlotSettings
  1

  2
none_device
  4

  6

 40
0.0
 41
0.0
 42
0.0
 43
0.0
 44
0.0
 45
0.0
 46
0.0
 47
0.0
 48
0.0
 49
0.0
140
0.0
141
0.0
142
1.0
143
1.0
 70
   688
 72
     0
 73
     0
 74
     5
  7

 75
    16
 76
     0
 77
     2
 78
   300
147
1.0
148
0.0
149
0.0
100
AcDbLayout
  1
Layout2
 70
     1
 71
     2
 10
0.0
 20
0.0
 11
0.0
 21
0.0
 12
0.0
 22
0.0
 32
0.0
 14
0.0
 24
0.0
 34
0.0
 15
0.0
 25
0.0
 35
0.0
146
0.0
 13
0.0
 23
0.0
 33
0.0
 16
1.0
 26
0.0
 36
0.0
 17
0.0
 27
1.0
 37
0.0
 76
     0
330
23
  0
LAYOUT
  5
22
102
{ACAD_REACTORS
330
1A
102
}
330
1A
100
AcDbPlotSettings
  1

  2
none_device
  4
Letter_(8.50_x_11.00_Inches)
  6

 40
6.35
 41
6.35
 42
6.35000508
 43
6.35000508
 44
215.9
 45
279.4
 46
0.0
 47
0.0
 48
0.0
 49
0.0
140
0.0
141
0.0
142
1.0
143
1.0
 70
  1712
 72
     0
 73
     0
 74
     0
  7

 75
     0
 76
     0
 77
     2
 78
   300
147
1.0
148
0.0
149
0.0
100
AcDbLayout
  1
Model
 70
     1
 71
     0
 10
0.0
 20
0.0
 11
12.0
 21
9.0
 12
0.0
 22
0.0
 32
0.0
 14
0.6440538102760911
 24
-1.837318933801726
 34
0.0
 15
26.18723635413967
 25
16.33962517417967
 35
20.98492494458333
146
0.0
 13
0.0
 23
0.0
 33
0.0
 16
1.0
 26
0.0
 36
0.0
 17
0.0
 27
1.0
 37
0.0
 76
     0
330
1F
331
29
  0
MATERIAL
  5
45
102
{ACAD_REACTORS
330
43
102
}
330
43
100
AcDbMaterial
  1
ByBlock
 72
     1
 94
      127
  0
MATERIAL
  5
44
102
{ACAD_REACTORS
330
43
102
}
330
43
100
AcDbMaterial
  1
ByLayer
 72
     1
 94
      127
  0
MATERIAL
  5
46
102
{ACAD_REACTORS
330
43
102
}
330
43
100
AcDbMaterial
  1
Global
 72
     1
 94
      127
  0
MLEADERSTYLE
  5
5C
102
{ACAD_REACTORS
330
5B
102
}
330
5B
100
AcDbMLeaderStyle
179
     2
170
     2
171
     1
172
     0
 90
        2
 40
0.0
 41
0.0
173
     1
 91
-1056964608
340
14
 92
       -2
290
     1
 42
0.09
291
     1
 43
0.36
  3
Standard
341
0
 44
0.18
300

342
11
174
     1
178
     6
175
     1
176
     0
 93
-1056964608
 45
0.18
292
     0
297
     0
 46
0.18
343
0
 94
-1056964608
 47
1.0
 49
1.0
140
1.0
293
     1
141
0.0
294
     1
177
     0
142
1.0
295
     0
296
     0
143
0.125
271
     0
272
     9
273
     9
298
     0
  0
MLINESTYLE
  5
18
102
{ACAD_REACTORS
330
17
102
}
330
17
100
AcDbMlineStyle
  2
Standard
 70
     0
  3

 62
   256
 51
90.0
 52
90.0
 71
     2
 49
0.5
 62
   256
  6
BYLAYER
 49
-0.5
 62
   256
  6
BYLAYER
  0
ACDBPLACEHOLDER
  5
F
102
{ACAD_REACTORS
330
E
102
}
330
E
  0
SCALE
  5
48
102
{ACAD_REACTORS
330
47
102
}
330
47
100
AcDbScale
 70
     0
300
1:1
140
1.0
141
1.0
290
     1
  0
SCALE
  5
49
102
{ACAD_REACTORS
330
47
102
}
330
47
100
AcDbScale
 70
     0
300
1/128" = 1'-0"
140
0.0078125
141
12.0
290
     0
  0
SCALE
  5
4A
102
{ACAD_REACTORS
330
47
102
}
330
47
100
AcDbScale
 70
     0
300
1/64" = 1'-0"
140
0.015625
141
12.0
290
     0
  0
SCALE
  5
4B
102
{ACAD_REACTORS
330
47
102
}
330
47
100
AcDbScale
 70
     0
300
1/32" = 1'-0"
140
0.03125
141
12.0
290
     0
  0
SCALE
  5
4C
102
{ACAD_REACTORS
330
47
102
}
330
47
100
AcDbScale
 70
     0
300
1/16" = 1'-0"
140
0.0625
141
12.0
290
     0
  0
SCALE
  5
4D
102
{ACAD_REACTORS
330
47
102
}
330
47
100
AcDbScale
 70
     0
300
3/32" = 1'-0"
140
0.09375
141
12.0
290
     0
  0
SCALE
  5
4E
102
{ACAD_REACTORS
330
47
102
}
330
47
100
AcDbScale
 70
     0
300
1/8" = 1'-0"
140
0.125
141
12.0
290
     0
  0
SCALE
  5
4F
102
{ACAD_REACTORS
330
47
102
}
330
47
100
AcDbScale
 70
     0
300
3/16" = 1'-0"
140
0.1875
141
12.0
290
     0
  0
SCALE
  5
50
102
{ACAD_REACTORS
330
47
102
}
330
47
100
AcDbScale
 70
     0
300
1/4" = 1'-0"
140
0.25
141
12.0
290
     0
  0
SCALE
  5
51
102
{ACAD_REACTORS
330
47
102
}
330
47
100
AcDbScale
 70
     0
300
3/8" = 1'-0"
140
0.375
141
12.0
290
     0
  0
SCALE
  5
52
102
{ACAD_REACTORS
330
47
102
}
330
47
100
AcDbScale
 70
     0
300
1/2" = 1'-0"
140
0.5
141
12.0
290
     0
  0
SCALE
  5
53
102
{ACAD_REACTORS
330
47
102
}
330
47
100
AcDbScale
 70
     0
300
3/4" = 1'-0"
140
0.75
141
12.0
290
     0
  0
SCALE
  5
54
102
{ACAD_REACTORS
330
47
102
}
330
47
100
AcDbScale
 70
     0
300
1" = 1'-0"
140
1.0
141
12.0
290
     0
  0
SCALE
  5
55
102
{ACAD_REACTORS
330
47
102
}
330
47
100
AcDbScale
 70
     0
300
1-1/2" = 1'-0"
140
1.5
141
12.0
290
     0
  0
SCALE
  5
56
102
{ACAD_REACTORS
330
47
102
}
330
47
100
AcDbScale
 70
     0
300
3" = 1'-0"
140
3.0
141
12.0
290
     0
  0
SCALE
  5
57
102
{ACAD_REACTORS
330
47
102
}
330
47
100
AcDbScale
 70
     0
300
6" = 1'-0"
140
6.0
141
12.0
290
     0
  0
SCALE
  5
58
102
{ACAD_REACTORS
330
47
102
}
330
47
100
AcDbScale
 70
     0
300
1'-0" = 1'-0"
140
12.0
141
12.0
290
     0
  0
TABLESTYLE
  5
5A
102
{ACAD_REACTORS
330
59
102
}
102
{ACAD_XDICTIONARY
360
3B0
102
}
330
59
100
AcDbTableStyle
  3
Standard
 70
     0
 71
     0
 40
0.06
 41
0.06
280
     0
281
     0
  7
Standard
140
0.18
170
     2
 62
     0
 63
   257
283
     0
 90
        4
 91
        0
  1

274
    -2
284
     1
 64
     0
275
    -2
285
     1
 65
     0
276
    -2
286
     1
 66
     0
277
    -2
287
     1
 67
     0
278
    -2
288
     1
 68
     0
279
    -2
289
     1
 69
     0
  7
Standard
140
0.25
170
     5
 62
     0
 63
   257
283
     0
 90
        4
 91
        0
  1

274
    -2
284
     1
 64
     0
275
    -2
285
     1
 65
     0
276
    -2
286
     1
 66
     0
277
    -2
287
     1
 67
     0
278
    -2
288
     1
 68
     0
279
    -2
289
     1
 69
     0
  7
Standard
140
0.18
170
     5
 62
     0
 63
   257
283
     0
 90
        4
 91
        0
  1

274
    -2
284
     1
 64
     0
275
    -2
285
     1
 65
     0
276
    -2
286
     1
 66
     0
277
    -2
287
     1
 67
     0
278
    -2
288
     1
 68
     0
279
    -2
289
     1
 69
     0
  0
VISUALSTYLE
  5
2F
102
{ACAD_REACTORS
330
2A
102
}
330
2A
100
AcDbVisualStyle
  2
2dWireframe
 70
     4
177
     3
291
     0
 70
    58
 90
        0
176
     1
 90
        2
176
     1
 90
        0
176
     1
 90
        0
176
     1
 40
0.6
176
     1
 40
30.0
176
     1
 62
     7
420
 16777215
176
     1
 90
        1
176
     1
 90
        4
176
     1
 62
     7
176
     1
 62
   257
176
     1
 90
        1
176
     1
 90
        1
176
     1
 40
1.0
176
     1
 90
        0
176
     1
 62
   257
176
     1
 40
1.0
176
     1
 90
        1
176
     1
 90
        6
176
     1
 90
        2
176
     1
 62
     7
176
     1
 90
        5
176
     1
 90
        0
176
     1
 90
        0
176
     1
290
     0
176
     1
 90
        1
176
     1
 40
0.0
176
     1
 90
        0
176
     1
290
     1
176
     1
290
     1
176
     1
290
     0
176
     1
290
     0
176
     1
290
     0
176
     1
290
     0
176
     1
290
     0
176
     1
290
     0
176
     1
290
     0
176
     1
 90
       50
176
     1
 40
0.0
176
     1
 40
1.0
176
     1
 90
        0
176
     1
 62
    18
420
        0
176
     1
 90
       50
176
     1
 90
        3
176
     1
 62
     5
420
      255
176
     1
290
     0
176
     1
 90
       50
176
     1
 90
       50
176
     1
 90
       50
176
     1
290
     0
176
     1
 90
       50
176
     1
 62
   256
176
     0
 40
1.0
176
     0
 90
        2
176
     1
  1
strokes_ogs.tif
176
     1
290
     0
176
     1
 40
1.0
176
     1
 40
1.0
176
     1
  0
VISUALSTYLE
  5
32
102
{ACAD_REACTORS
330
2A
102
}
330
2A
100
AcDbVisualStyle
  2
Basic
 70
     7
177
     3
291
     1
 70
    58
 90
        1
176
     1
 90
        0
176
     1
 90
        1
176
     1
 90
        0
176
     1
 40
0.6
176
     1
 40
30.0
176
     1
 62
     7
420
 16777215
176
     1
 90
        0
176
     1
 90
        4
176
     1
 62
     7
176
     1
 62
   257
176
     1
 90
        1
176
     1
 90
        1
176
     1
 40
1.0
176
     1
 90
        8
176
     1
 62
     7
176
     1
 40
1.0
176
     1
 90
        1
176
     1
 90
        6
176
     1
 90
        2
176
     1
 62
     7
176
     1
 90
        5
176
     1
 90
        0
176
     1
 90
        0
176
     1
290
     0
176
     1
 90
        1
176
     1
 40
0.0
176
     1
 90
        0
176
     1
290
     0
176
     1
290
     1
176
     1
290
     1
176
     1
290
     0
176
     1
290
     0
176
     1
290
     0
176
     1
290
     0
176
     1
290
     0
176
     1
290
     0
176
     1
 90
       50
176
     1
 40
0.0
176
     1
 40
1.0
176
     1
 90
        0
176
     1
 62
    18
420
        0
176
     1
 90
       50
176
     1
 90
        3
176
     1
 62
     5
420
      255
176
     1
290
     0
176
     1
 90
       50
176
     1
 90
       50
176
     1
 90
       50
176
     1
290
     0
176
     1
 90
       50
176
     1
 62
   256
176
     0
 40
1.0
176
     0
 90
        2
176
     1
  1
strokes_ogs.tif
176
     1
290
     0
176
     1
 40
1.0
176
     1
 40
1.0
176
     1
  0
VISUALSTYLE
  5
36
102
{ACAD_REACTORS
330
2A
102
}
330
2A
100
AcDbVisualStyle
  2
Brighten
 70
    12
177
     3
291
     1
 70
    58
 90
        2
176
     1
 90
        2
176
     1
 90
        0
176
     1
 90
        0
176
     1
 40
0.6
176
     1
 40
30.0
176
     1
 62
     7
420
 16777215
176
     1
 90
        1
176
     1
 90
        4
176
     1
 62
     7
176
     1
 62
   257
176
     1
 90
        1
176
     1
 90
        1
176
     1
 40
1.0
176
     1
 90
        8
176
     1
 62
     7
176
     1
 40
1.0
176
     1
 90
        1
176
     1
 90
        6
176
     1
 90
        2
176
     1
 62
     7
176
     1
 90
        5
176
     1
 90
        0
176
     1
 90
        0
176
     1
290
     0
176
     1
 90
        1
176
     1
 40
50.0
176
     1
 90
        0
176
     1
290
     0
176
     1
290
     1
176
     1
290
     1
176
     1
290
     0
176
     1
290
     0
176
     1
290
     0
176
     1
290
     0
176
     1
290
     0
176
     1
290
     0
176
     1
 90
       50
176
     1
 40
0.0
176
     1
 40
1.0
176
     1
 90
        0
176
     1
 62
    18
420
        0
176
     1
 90
       50
176
     1
 90
        3
176
     1
 62
     5
420
      255
176
     1
290
     0
176
     1
 90
       50
176
     1
 90
       50
176
     1
 90
       50
176
     1
290
     0
176
     1
 90
       50
176
     1
 62
   256
176
     0
 40
1.0
176
     0
 90
        2
176
     1
  1
strokes_ogs.tif
176
     1
290
     0
176
     1
 40
1.0
176
     1
 40
1.0
176
     1
  0
VISUALSTYLE
  5
3A
102
{ACAD_REACTORS
330
2A
102
}
330
2A
100
AcDbVisualStyle
  2
ColorChange
 70
    16
177
     3
291
     1
 70
    58
 90
        2
176
     1
 90
        2
176
     1
 90
        3
176
     1
 90
        0
176
     1
 40
0.6
176
     1
 40
30.0
176
     1
 62
     8
420
  8421504
176
     1
 90
        1
176
     1
 90
        4
176
     1
 62
     7
176
     1
 62
   257
176
     1
 90
        1
176
     1
 90
        1
176
     1
 40
1.0
176
     1
 90
        8
176
     1
 62
     8
420
  8421504
176
     1
 40
1.0
176
     1
 90
        1
176
     1
 90
        6
176
     1
 90
        2
176
     1
 62
     7
176
     1
 90
        5
176
     1
 90
        0
176
     1
 90
        0
176
     1
290
     0
176
     1
 90
        1
176
     1
 40
0.0
176
     1
 90
        0
176
     1
290
     0
176
     1
290
     1
176
     1
290
     1
176
     1
290
     0
176
     1
290
     0
176
     1
290
     0
176
     1
290
     0
176
     1
290
     0
176
     1
290
     0
176
     1
 90
       50
176
     1
 40
0.0
176
     1
 40
1.0
176
     1
 90
        0
176
     1
 62
    18
420
        0
176
     1
 90
       50
176
     1
 90
        3
176
     1
 62
     5
420
      255
176
     1
290
     0
176
     1
 90
       50
176
     1
 90
       50
176
     1
 90
       50
176
     1
290
     0
176
     1
 90
       50
176
     1
 62
   256
176
     0
 40
1.0
176
     0
 90
        2
176
     1
  1
strokes_ogs.tif
176
     1
290
     0
176
     1
 40
1.0
176
     1
 40
1.0
176
     1
  0
VISUALSTYLE
  5
34
102
{ACAD_REACTORS
330
2A
102
}
330
2A
100
AcDbVisualStyle
  2
Conceptual
 70
     9
177
     3
291
     0
 70
    58
 90
        3
176
     1
 90
        2
176
     1
 90
        0
176
     1
 90
        0
176
     1
 40
0.6
176
     1
 40
30.0
176
     1
 62
     7
420
 16777215
176
     1
 90
        2
176
     1
 90
        2
176
     1
 62
     7
176
     1
 62
   257
176
     1
 90
        1
176
     1
 90
        1
176
     1
 40
179.0
176
     1
 90
        8
176
     1
 62
     7
176
     1
 40
1.0
176
     1
 90
        1
176
     1
 90
        6
176
     1
 90
        2
176
     1
 62
     7
176
     1
 90
        3
176
     1
 90
        0
176
     1
 90
        0
176
     1
290
     0
176
     1
 90
        1
176
     1
 40
0.0
176
     1
 90
        0
176
     1
290
     0
176
     1
290
     1
176
     1
290
     1
176
     1
290
     0
176
     1
290
     0
176
     1
290
     0
176
     1
290
     0
176
     1
290
     0
176
     1
290
     0
176
     1
 90
       50
176
     1
 40
0.0
176
     1
 40
1.0
176
     1
 90
        0
176
     1
 62
    18
420
        0
176
     1
 90
       50
176
     1
 90
        3
176
     1
 62
     5
420
      255
176
     1
290
     0
176
     1
 90
       50
176
     1
 90
       50
176
     1
 90
       50
176
     1
290
     0
176
     1
 90
       50
176
     1
 62
   256
176
     0
 40
1.0
176
     0
 90
        2
176
     1
  1
strokes_ogs.tif
176
     1
290
     0
176
     1
 40
1.0
176
     1
 40
1.0
176
     1
  0
VISUALSTYLE
  5
35
102
{ACAD_REACTORS
330
2A
102
}
330
2A
100
AcDbVisualStyle
  2
Dim
 70
    11
177
     3
291
     1
 70
    58
 90
        2
176
     1
 90
        2
176
     1
 90
        0
176
     1
 90
        0
176
     1
 40
0.6
176
     1
 40
30.0
176
     1
 62
     7
420
 16777215
176
     1
 90
        1
176
     1
 90
        4
176
     1
 62
     7
176
     1
 62
   257
176
     1
 90
        1
176
     1
 90
        1
176
     1
 40
1.0
176
     1
 90
        8
176
     1
 62
     7
176
     1
 40
1.0
176
     1
 90
        1
176
     1
 90
        6
176
     1
 90
        2
176
     1
 62
     7
176
     1
 90
        5
176
     1
 90
        0
176
     1
 90
        0
176
     1
290
     0
176
     1
 90
        1
176
     1
 40
-50.0
176
     1
 90
        0
176
     1
290
     0
176
     1
290
     1
176
     1
290
     1
176
     1
290
     0
176
     1
290
     0
176
     1
290
     0
176
     1
290
     0
176
     1
290
     0
176
     1
290
     0
176
     1
 90
       50
176
     1
 40
0.0
176
     1
 40
1.0
176
     1
 90
        0
176
     1
 62
    18
420
        0
176
     1
 90
       50
176
     1
 90
        3
176
     1
 62
     5
420
      255
176
     1
290
     0
176
     1
 90
       50
176
     1
 90
       50
176
     1
 90
       50
176
     1
290
     0
176
     1
 90
       50
176
     1
 62
   256
176
     0
 40
1.0
176
     0
 90
        2
176
     1
  1
strokes_ogs.tif
176
     1
290
     0
176
     1
 40
1.0
176
     1
 40
1.0
176
     1
  0
VISUALSTYLE
  5
3D
102
{ACAD_REACTORS
330
2A
102
}
330
2A
100
AcDbVisualStyle
  2
EdgeColorOff
 70
    22
177
     3
291
     1
 70
    58
 90
        2
176
     0
 90
        2
176
     0
 90
        0
176
     0
 90
        0
176
     0
 40
0.6
176
     0
 40
30.0
176
     0
 62
     7
420
 16777215
176
     0
 90
        1
176
     0
 90
        4
176
     0
 62
     7
176
     0
 62
   257
176
     0
 90
        1
176
     0
 90
        1
176
     0
 40
1.0
176
     0
 90
        8
176
     2
 62
     7
176
     0
 40
1.0
176
     0
 90
        1
176
     0
 90
        6
176
     0
 90
        2
176
     0
 62
     7
176
     0
 90
        5
176
     0
 90
        0
176
     0
 90
        0
176
     0
290
     0
176
     0
 90
        1
176
     0
 40
0.0
176
     0
 90
        0
176
     0
290
     0
176
     0
290
     1
176
     0
290
     1
176
     0
290
     0
176
     0
290
     0
176
     0
290
     0
176
     0
290
     0
176
     0
290
     0
176
     0
290
     0
176
     0
 90
       50
176
     0
 40
0.0
176
     0
 40
1.0
176
     0
 90
        0
176
     0
 62
    18
420
        0
176
     0
 90
       50
176
     0
 90
        3
176
     0
 62
     5
420
      255
176
     0
290
     0
176
     0
 90
       50
176
     0
 90
       50
176
     0
 90
       50
176
     0
290
     0
176
     0
 90
       50
176
     0
 62
   256
176
     0
 40
1.0
176
     0
 90
        2
176
     0
  1
strokes_ogs.tif
176
     0
290
     0
176
     0
 40
1.0
176
     0
 40
1.0
176
     0
  0
VISUALSTYLE
  5
39
102
{ACAD_REACTORS
330
2A
102
}
330
2A
100
AcDbVisualStyle
  2
Facepattern
 70
    15
177
     3
291
     1
 70
    58
 90
        2
176
     1
 90
        2
176
     1
 90
        0
176
     1
 90
        0
176
     1
 40
0.6
176
     1
 40
30.0
176
     1
 62
     7
420
 16777215
176
     1
 90
        1
176
     1
 90
        4
176
     1
 62
     7
176
     1
 62
   257
176
     1
 90
        1
176
     1
 90
        1
176
     1
 40
1.0
176
     1
 90
        8
176
     1
 62
     7
176
     1
 40
1.0
176
     1
 90
        1
176
     1
 90
        6
176
     1
 90
        2
176
     1
 62
     7
176
     1
 90
        5
176
     1
 90
        0
176
     1
 90
        0
176
     1
290
     0
176
     1
 90
        1
176
     1
 40
0.0
176
     1
 90
        0
176
     1
290
     0
176
     1
290
     1
176
     1
290
     1
176
     1
290
     0
176
     1
290
     0
176
     1
290
     0
176
     1
290
     0
176
     1
290
     0
176
     1
290
     0
176
     1
 90
       50
176
     1
 40
0.0
176
     1
 40
1.0
176
     1
 90
        0
176
     1
 62
    18
420
        0
176
     1
 90
       50
176
     1
 90
        3
176
     1
 62
     5
420
      255
176
     1
290
     0
176
     1
 90
       50
176
     1
 90
       50
176
     1
 90
       50
176
     1
290
     0
176
     1
 90
       50
176
     1
 62
   256
176
     0
 40
1.0
176
     0
 90
        2
176
     1
  1
strokes_ogs.tif
176
     1
290
     0
176
     1
 40
1.0
176
     1
 40
1.0
176
     1
  0
VISUALSTYLE
  5
2B
102
{ACAD_REACTORS
330
2A
102
}
330
2A
100
AcDbVisualStyle
  2
Flat
 70
     0
177
     3
291
     1
 70
    58
 90
        2
176
     1
 90
        1
176
     1
 90
        1
176
     1
 90
        2
176
     1
 40
0.6
176
     1
 40
30.0
176
     1
 62
     7
420
 16777215
176
     1
 90
        0
176
     1
 90
        0
176
     1
 62
     7
176
     1
 62
   257
176
     1
 90
        1
176
     1
 90
        1
176
     1
 40
1.0
176
     1
 90
        8
176
     1
 62
     7
176
     1
 40
1.0
176
     1
 90
        1
176
     1
 90
        6
176
     1
 90
        2
176
     1
 62
     7
176
     1
 90
        5
176
     1
 90
        0
176
     1
 90
        0
176
     1
290
     0
176
     1
 90
       13
176
     1
 40
0.0
176
     1
 90
        0
176
     1
290
     0
176
     1
290
     1
176
     1
290
     1
176
     1
290
     0
176
     1
290
     0
176
     1
290
     0
176
     1
290
     0
176
     1
290
     0
176
     1
290
     0
176
     1
 90
       50
176
     1
 40
0.0
176
     1
 40
1.0
176
     1
 90
        0
176
     1
 62
    18
420
        0
176
     1
 90
       50
176
     1
 90
        3
176
     1
 62
     5
420
      255
176
     1
290
     0
176
     1
 90
       50
176
     1
 90
       50
176
     1
 90
       50
176
     1
290
     0
176
     1
 90
       50
176
     1
 62
   256
176
     0
 40
1.0
176
     0
 90
        2
176
     1
  1
strokes_ogs.tif
176
     1
290
     0
176
     1
 40
1.0
176
     1
 40
1.0
176
     1
  0
VISUALSTYLE
  5
2C
102
{ACAD_REACTORS
330
2A
102
}
330
2A
100
AcDbVisualStyle
  2
FlatWithEdges
 70
     1
177
     3
291
     1
 70
    58
 90
        2
176
     1
 90
        1
176
     1
 90
        1
176
     1
 90
        2
176
     1
 40
0.6
176
     1
 40
30.0
176
     1
 62
     7
420
 16777215
176
     1
 90
        1
176
     1
 90
        0
176
     1
 62
     7
176
     1
 62
   257
176
     1
 90
        1
176
     1
 90
        1
176
     1
 40
1.0
176
     1
 90
        0
176
     1
 62
   257
176
     1
 40
1.0
176
     1
 90
        1
176
     1
 90
        6
176
     1
 90
        2
176
     1
 62
     7
176
     1
 90
        5
176
     1
 90
        0
176
     1
 90
        0
176
     1
290
     0
176
     1
 90
       13
176
     1
 40
0.0
176
     1
 90
        0
176
     1
290
     0
176
     1
290
     1
176
     1
290
     1
176
     1
290
     0
176
     1
290
     0
176
     1
290
     0
176
     1
290
     0
176
     1
290
     0
176
     1
290
     0
176
     1
 90
       50
176
     1
 40
0.0
176
     1
 40
1.0
176
     1
 90
        0
176
     1
 62
    18
420
        0
176
     1
 90
       50
176
     1
 90
        3
176
     1
 62
     5
420
      255
176
     1
290
     0
176
     1
 90
       50
176
     1
 90
       50
176
     1
 90
       50
176
     1
290
     0
176
     1
 90
       50
176
     1
 62
   256
176
     0
 40
1.0
176
     0
 90
        2
176
     1
  1
strokes_ogs.tif
176
     1
290
     0
176
     1
 40
1.0
176
     1
 40
1.0
176
     1
  0
VISUALSTYLE
  5
2D
102
{ACAD_REACTORS
330
2A
102
}
330
2A
100
AcDbVisualStyle
  2
Gouraud
 70
     2
177
     3
291
     1
 70
    58
 90
        2
176
     1
 90
        2
176
     1
 90
        1
176
     1
 90
        2
176
     1
 40
0.6
176
     1
 40
30.0
176
     1
 62
     7
420
 16777215
176
     1
 90
        0
176
     1
 90
        0
176
     1
 62
     7
176
     1
 62
   257
176
     1
 90
        1
176
     1
 90
        1
176
     1
 40
1.0
176
     1
 90
        0
176
     1
 62
     7
176
     1
 40
1.0
176
     1
 90
        1
176
     1
 90
        6
176
     1
 90
        2
176
     1
 62
     7
176
     1
 90
        5
176
     1
 90
        0
176
     1
 90
        0
176
     1
290
     0
176
     1
 90
       13
176
     1
 40
0.0
176
     1
 90
        0
176
     1
290
     0
176
     1
290
     1
176
     1
290
     1
176
     1
290
     0
176
     1
290
     0
176
     1
290
     0
176
     1
290
     0
176
     1
290
     0
176
     1
290
     0
176
     1
 90
       50
176
     1
 40
0.0
176
     1
 40
1.0
176
     1
 90
        0
176
     1
 62
    18
420
        0
176
     1
 90
       50
176
     1
 90
        3
176
     1
 62
     5
420
      255
176
     1
290
     0
176
     1
 90
       50
176
     1
 90
       50
176
     1
 90
       50
176
     1
290
     0
176
     1
 90
       50
176
     1
 62
   256
176
     0
 40
1.0
176
     0
 90
        2
176
     1
  1
strokes_ogs.tif
176
     1
290
     0
176
     1
 40
1.0
176
     1
 40
1.0
176
     1
  0
VISUALSTYLE
  5
2E
102
{ACAD_REACTORS
330
2A
102
}
330
2A
100
AcDbVisualStyle
  2
GouraudWithEdges
 70
     3
177
     3
291
     1
 70
    58
 90
        2
176
     1
 90
        2
176
     1
 90
        1
176
     1
 90
        2
176
     1
 40
0.6
176
     1
 40
30.0
176
     1
 62
     7
420
 16777215
176
     1
 90
        1
176
     1
 90
        0
176
     1
 62
     7
176
     1
 62
   257
176
     1
 90
        1
176
     1
 90
        1
176
     1
 40
1.0
176
     1
 90
        0
176
     1
 62
   257
176
     1
 40
1.0
176
     1
 90
        1
176
     1
 90
        6
176
     1
 90
        2
176
     1
 62
     7
176
     1
 90
        5
176
     1
 90
        0
176
     1
 90
        0
176
     1
290
     0
176
     1
 90
       13
176
     1
 40
0.0
176
     1
 90
        0
176
     1
290
     0
176
     1
290
     1
176
     1
290
     1
176
     1
290
     0
176
     1
290
     0
176
     1
290
     0
176
     1
290
     0
176
     1
290
     0
176
     1
290
     0
176
     1
 90
       50
176
     1
 40
0.0
176
     1
 40
1.0
176
     1
 90
        0
176
     1
 62
    18
420
        0
176
     1
 90
       50
176
     1
 90
        3
176
     1
 62
     5
420
      255
176
     1
290
     0
176
     1
 90
       50
176
     1
 90
       50
176
     1
 90
       50
176
     1
290
     0
176
     1
 90
       50
176
     1
 62
   256
176
     0
 40
1.0
176
     0
 90
        2
176
     1
  1
strokes_ogs.tif
176
     1
290
     0
176
     1
 40
1.0
176
     1
 40
1.0
176
     1
  0
VISUALSTYLE
  5
31
102
{ACAD_REACTORS
330
2A
102
}
330
2A
100
AcDbVisualStyle
  2
Hidden
 70
     6
177
     3
291
     0
 70
    58
 90
        1
176
     1
 90
        2
176
     1
 90
        2
176
     1
 90
        0
176
     1
 40
0.6
176
     1
 40
30.0
176
     1
 62
     7
420
 16777215
176
     1
 90
        2
176
     1
 90
        2
176
     1
 62
     7
176
     1
 62
   257
176
     1
 90
        2
176
     1
 90
        1
176
     1
 40
40.0
176
     1
 90
        0
176
     1
 62
   257
176
     1
 40
1.0
176
     1
 90
        1
176
     1
 90
        6
176
     1
 90
        2
176
     1
 62
     7
176
     1
 90
        3
176
     1
 90
        0
176
     1
 90
        0
176
     1
290
     0
176
     1
 90
        1
176
     1
 40
0.0
176
     1
 90
        0
176
     1
290
     0
176
     1
290
     1
176
     1
290
     1
176
     1
290
     0
176
     1
290
     0
176
     1
290
     0
176
     1
290
     0
176
     1
290
     0
176
     1
290
     0
176
     1
 90
       50
176
     1
 40
0.0
176
     1
 40
1.0
176
     1
 90
        0
176
     1
 62
    18
420
        0
176
     1
 90
       50
176
     1
 90
        3
176
     1
 62
     5
420
      255
176
     1
290
     0
176
     1
 90
       50
176
     1
 90
       50
176
     1
 90
       50
176
     1
290
     0
176
     1
 90
       50
176
     1
 62
   256
176
     0
 40
1.0
176
     0
 90
        2
176
     1
  1
strokes_ogs.tif
176
     1
290
     0
176
     1
 40
1.0
176
     1
 40
1.0
176
     1
  0
VISUALSTYLE
  5
3B
102
{ACAD_REACTORS
330
2A
102
}
330
2A
100
AcDbVisualStyle
  2
JitterOff
 70
    20
177
     3
291
     1
 70
    58
 90
        2
176
     0
 90
        2
176
     0
 90
        0
176
     0
 90
        0
176
     0
 40
0.6
176
     0
 40
30.0
176
     0
 62
     7
420
 16777215
176
     0
 90
        1
176
     0
 90
        4
176
     0
 62
     7
176
     0
 62
   257
176
     0
 90
        1
176
     0
 90
        1
176
     0
 40
1.0
176
     0
 90
       10
176
     2
 62
     7
176
     0
 40
1.0
176
     0
 90
        1
176
     0
 90
        6
176
     0
 90
        2
176
     0
 62
     7
176
     0
 90
        5
176
     0
 90
        0
176
     0
 90
        0
176
     0
290
     0
176
     0
 90
        1
176
     0
 40
0.0
176
     0
 90
        0
176
     0
290
     0
176
     0
290
     1
176
     0
290
     1
176
     0
290
     0
176
     0
290
     0
176
     0
290
     0
176
     0
290
     0
176
     0
290
     0
176
     0
290
     0
176
     0
 90
       50
176
     0
 40
0.0
176
     0
 40
1.0
176
     0
 90
        0
176
     0
 62
    18
420
        0
176
     0
 90
       50
176
     0
 90
        3
176
     0
 62
     5
420
      255
176
     0
290
     0
176
     0
 90
       50
176
     0
 90
       50
176
     0
 90
       50
176
     0
290
     0
176
     0
 90
       50
176
     0
 62
   256
176
     0
 40
1.0
176
     0
 90
        2
176
     0
  1
strokes_ogs.tif
176
     0
290
     0
176
     0
 40
1.0
176
     0
 40
1.0
176
     0
  0
VISUALSTYLE
  5
38
102
{ACAD_REACTORS
330
2A
102
}
330
2A
100
AcDbVisualStyle
  2
Linepattern
 70
    14
177
     3
291
     1
 70
    58
 90
        2
176
     1
 90
        2
176
     1
 90
        0
176
     1
 90
        0
176
     1
 40
0.6
176
     1
 40
30.0
176
     1
 62
     7
420
 16777215
176
     1
 90
        1
176
     1
 90
        4
176
     1
 62
     7
176
     1
 62
   257
176
     1
 90
        7
176
     1
 90
        7
176
     1
 40
1.0
176
     1
 90
        8
176
     1
 62
     7
176
     1
 40
1.0
176
     1
 90
        1
176
     1
 90
        6
176
     1
 90
        2
176
     1
 62
     7
176
     1
 90
        5
176
     1
 90
        0
176
     1
 90
        0
176
     1
290
     0
176
     1
 90
        1
176
     1
 40
0.0
176
     1
 90
        0
176
     1
290
     0
176
     1
290
     1
176
     1
290
     1
176
     1
290
     0
176
     1
290
     0
176
     1
290
     0
176
     1
290
     0
176
     1
290
     0
176
     1
290
     0
176
     1
 90
       50
176
     1
 40
0.0
176
     1
 40
1.0
176
     1
 90
        0
176
     1
 62
    18
420
        0
176
     1
 90
       50
176
     1
 90
        3
176
     1
 62
     5
420
      255
176
     1
290
     0
176
     1
 90
       50
176
     1
 90
       50
176
     1
 90
       50
176
     1
290
     0
176
     1
 90
       50
176
     1
 62
   256
176
     0
 40
1.0
176
     0
 90
        2
176
     1
  1
strokes_ogs.tif
176
     1
290
     0
176
     1
 40
1.0
176
     1
 40
1.0
176
     1
  0
VISUALSTYLE
  5
3C
102
{ACAD_REACTORS
330
2A
102
}
330
2A
100
AcDbVisualStyle
  2
OverhangOff
 70
    21
177
     3
291
     1
 70
    58
 90
        2
176
     0
 90
        2
176
     0
 90
        0
176
     0
 90
        0
176
     0
 40
0.6
176
     0
 40
30.0
176
     0
 62
     7
420
 16777215
176
     0
 90
        1
176
     0
 90
        4
176
     0
 62
     7
176
     0
 62
   257
176
     0
 90
        1
176
     0
 90
        1
176
     0
 40
1.0
176
     0
 90
        9
176
     2
 62
     7
176
     0
 40
1.0
176
     0
 90
        1
176
     0
 90
        6
176
     0
 90
        2
176
     0
 62
     7
176
     0
 90
        5
176
     0
 90
        0
176
     0
 90
        0
176
     0
290
     0
176
     0
 90
        1
176
     0
 40
0.0
176
     0
 90
        0
176
     0
290
     0
176
     0
290
     1
176
     0
290
     1
176
     0
290
     0
176
     0
290
     0
176
     0
290
     0
176
     0
290
     0
176
     0
290
     0
176
     0
290
     0
176
     0
 90
       50
176
     0
 40
0.0
176
     0
 40
1.0
176
     0
 90
        0
176
     0
 62
    18
420
        0
176
     0
 90
       50
176
     0
 90
        3
176
     0
 62
     5
420
      255
176
     0
290
     0
176
     0
 90
       50
176
     0
 90
       50
176
     0
 90
       50
176
     0
290
     0
176
     0
 90
       50
176
     0
 62
   256
176
     0
 40
1.0
176
     0
 90
        2
176
     0
  1
strokes_ogs.tif
176
     0
290
     0
176
     0
 40
1.0
176
     0
 40
1.0
176
     0
  0
VISUALSTYLE
  5
33
102
{ACAD_REACTORS
330
2A
102
}
330
2A
100
AcDbVisualStyle
  2
Realistic
 70
     8
177
     3
291
     0
 70
    58
 90
        2
176
     1
 90
        3
176
     1
 90
        0
176
     1
 90
        2
176
     1
 40
0.6
176
     1
 40
30.0
176
     1
 62
     7
420
 16777215
176
     1
 90
        0
176
     1
 90
        0
176
     1
 62
     7
176
     1
 62
   257
176
     1
 90
        1
176
     1
 90
        1
176
     1
 40
1.0
176
     1
 90
        8
176
     1
 62
   257
176
     1
 40
1.0
176
     1
 90
        1
176
     1
 90
        6
176
     1
 90
        2
176
     1
 62
     7
176
     1
 90
        3
176
     1
 90
        0
176
     1
 90
        0
176
     1
290
     0
176
     1
 90
       13
176
     1
 40
0.0
176
     1
 90
        0
176
     1
290
     0
176
     1
290
     1
176
     1
290
     1
176
     1
290
     0
176
     1
290
     0
176
     1
290
     0
176
     1
290
     0
176
     1
290
     0
176
     1
290
     0
176
     1
 90
       50
176
     1
 40
0.0
176
     1
 40
1.0
176
     1
 90
        0
176
     1
 62
    18
420
        0
176
     1
 90
       50
176
     1
 90
        3
176
     1
 62
     5
420
      255
176
     1
290
     0
176
     1
 90
       50
176
     1
 90
       50
176
     1
 90
       50
176
     1
290
     0
176
     1
 90
       50
176
     1
 62
   256
176
     0
 40
1.0
176
     0
 90
        2
176
     1
  1
strokes_ogs.tif
176
     1
290
     0
176
     1
 40
1.0
176
     1
 40
1.0
176
     1
  0
VISUALSTYLE
  5
42
102
{ACAD_REACTORS
330
2A
102
}
330
2A
100
AcDbVisualStyle
  2
Shaded
 70
    27
177
     3
291
     0
 70
    58
 90
        2
176
     1
 90
        2
176
     1
 90
        1
176
     1
 90
        2
176
     1
 40
0.6
176
     1
 40
30.0
176
     1
 62
     7
420
 16777215
176
     1
 90
        0
176
     1
 90
        4
176
     1
 62
     7
176
     1
 62
   257
176
     1
 90
        1
176
     1
 90
        1
176
     1
 40
1.0
176
     1
 90
        8
176
     1
 62
   257
176
     1
 40
1.0
176
     1
 90
        1
176
     1
 90
        6
176
     1
 90
        2
176
     1
 62
     8
420
  7895160
176
     1
 90
        3
176
     1
 90
        0
176
     1
 90
        0
176
     1
290
     0
176
     1
 90
        5
176
     1
 40
0.0
176
     1
 90
        0
176
     1
290
     0
176
     1
290
     1
176
     1
290
     1
176
     1
290
     0
176
     1
290
     0
176
     1
290
     0
176
     1
290
     0
176
     1
290
     0
176
     1
290
     0
176
     1
 90
       50
176
     1
 40
0.0
176
     1
 40
1.0
176
     1
 90
        0
176
     1
 62
    18
420
        0
176
     1
 90
       50
176
     1
 90
        3
176
     1
 62
     5
420
      255
176
     1
290
     0
176
     1
 90
       50
176
     1
 90
       50
176
     1
 90
       50
176
     1
290
     0
176
     1
 90
       50
176
     1
 62
   256
176
     0
 40
1.0
176
     0
 90
        2
176
     1
  1
strokes_ogs.tif
176
     1
290
     0
176
     1
 40
1.0
176
     1
 40
1.0
176
     1
  0
VISUALSTYLE
  5
41
102
{ACAD_REACTORS
330
2A
102
}
330
2A
100
AcDbVisualStyle
  2
Shaded with edges
 70
    26
177
     3
291
     0
 70
    58
 90
        2
176
     1
 90
        2
176
     1
 90
        1
176
     1
 90
        2
176
     1
 40
0.6
176
     1
 40
30.0
176
     1
 62
     7
420
 16777215
176
     1
 90
        1
176
     1
 90
       10
176
     1
 62
     7
176
     1
 62
   257
176
     1
 90
        2
176
     1
 90
        1
176
     1
 40
1.0
176
     1
 90
        8
176
     1
 62
   257
176
     1
 40
1.0
176
     1
 90
        1
176
     1
 90
        6
176
     1
 90
        2
176
     1
 62
     7
176
     1
 90
        3
176
     1
 90
        0
176
     1
 90
        0
176
     1
290
     0
176
     1
 90
        5
176
     1
 40
0.0
176
     1
 90
        0
176
     1
290
     0
176
     1
290
     1
176
     1
290
     1
176
     1
290
     0
176
     1
290
     0
176
     1
290
     0
176
     1
290
     0
176
     1
290
     0
176
     1
290
     0
176
     1
 90
       50
176
     1
 40
0.0
176
     1
 40
1.0
176
     1
 90
        0
176
     1
 62
    18
420
        0
176
     1
 90
       50
176
     1
 90
        3
176
     1
 62
     5
420
      255
176
     1
290
     0
176
     1
 90
       50
176
     1
 90
       50
176
     1
 90
       50
176
     1
290
     0
176
     1
 90
       50
176
     1
 62
   256
176
     0
 40
1.0
176
     0
 90
        2
176
     1
  1
strokes_ogs.tif
176
     1
290
     0
176
     1
 40
1.0
176
     1
 40
1.0
176
     1
  0
VISUALSTYLE
  5
3E
102
{ACAD_REACTORS
330
2A
102
}
330
2A
100
AcDbVisualStyle
  2
Shades of Gray
 70
    23
177
     3
291
     0
 70
    58
 90
        2
176
     1
 90
        2
176
     1
 90
        3
176
     1
 90
        0
176
     1
 40
0.6
176
     1
 40
30.0
176
     1
 62
     7
420
 16777215
176
     1
 90
        2
176
     1
 90
        2
176
     1
 62
     7
176
     1
 62
     7
176
     1
 90
        1
176
     1
 90
        1
176
     1
 40
40.0
176
     1
 90
        8
176
     1
 62
     7
176
     1
 40
1.0
176
     1
 90
        1
176
     1
 90
        6
176
     1
 90
        2
176
     1
 62
     7
176
     1
 90
        3
176
     1
 90
        0
176
     1
 90
        0
176
     1
290
     0
176
     1
 90
        1
176
     1
 40
0.0
176
     1
 90
        0
176
     1
290
     0
176
     1
290
     1
176
     1
290
     1
176
     1
290
     0
176
     1
290
     0
176
     1
290
     0
176
     1
290
     0
176
     1
290
     0
176
     1
290
     0
176
     1
 90
       50
176
     1
 40
0.0
176
     1
 40
1.0
176
     1
 90
        0
176
     1
 62
    18
420
        0
176
     1
 90
       50
176
     1
 90
        3
176
     1
 62
     5
420
      255
176
     1
290
     0
176
     1
 90
       50
176
     1
 90
       50
176
     1
 90
       50
176
     1
290
     0
176
     1
 90
       50
176
     1
 62
   256
176
     0
 40
1.0
176
     0
 90
        2
176
     1
  1
strokes_ogs.tif
176
     1
290
     0
176
     1
 40
1.0
176
     1
 40
1.0
176
     1
  0
VISUALSTYLE
  5
3F
102
{ACAD_REACTORS
330
2A
102
}
330
2A
100
AcDbVisualStyle
  2
Sketchy
 70
    24
177
     3
291
     0
 70
    58
 90
        1
176
     1
 90
        2
176
     1
 90
        2
176
     1
 90
        0
176
     1
 40
0.6
176
     1
 40
30.0
176
     1
 62
     7
420
 16777215
176
     1
 90
        2
176
     1
 90
        2
176
     1
 62
     7
176
     1
 62
     7
176
     1
 90
        1
176
     1
 90
        1
176
     1
 40
40.0
176
     1
 90
       11
176
     1
 62
     7
176
     1
 40
1.0
176
     1
 90
        1
176
     1
 90
        6
176
     1
 90
        2
176
     1
 62
     7
176
     1
 90
        6
176
     1
 90
        0
176
     1
 90
        0
176
     1
290
     0
176
     1
 90
        1
176
     1
 40
0.0
176
     1
 90
        0
176
     1
290
     0
176
     1
290
     1
176
     1
290
     1
176
     1
290
     0
176
     1
290
     0
176
     1
290
     0
176
     1
290
     0
176
     1
290
     0
176
     1
290
     0
176
     1
 90
       50
176
     1
 40
0.0
176
     1
 40
1.0
176
     1
 90
        0
176
     1
 62
    18
420
        0
176
     1
 90
       50
176
     1
 90
        3
176
     1
 62
     5
420
      255
176
     1
290
     0
176
     1
 90
       50
176
     1
 90
       50
176
     1
 90
       50
176
     1
290
     0
176
     1
 90
       50
176
     1
 62
   256
176
     0
 40
1.0
176
     0
 90
        2
176
     1
  1
strokes_ogs.tif
176
     1
290
     0
176
     1
 40
1.0
176
     1
 40
1.0
176
     1
  0
VISUALSTYLE
  5
37
102
{ACAD_REACTORS
330
2A
102
}
330
2A
100
AcDbVisualStyle
  2
Thicken
 70
    13
177
     3
291
     1
 70
    58
 90
        2
176
     1
 90
        2
176
     1
 90
        0
176
     1
 90
        0
176
     1
 40
0.6
176
     1
 40
30.0
176
     1
 62
     7
420
 16777215
176
     1
 90
        1
176
     1
 90
        4
176
     1
 62
     7
176
     1
 62
   257
176
     1
 90
        1
176
     1
 90
        1
176
     1
 40
1.0
176
     1
 90
       12
176
     1
 62
     7
176
     1
 40
1.0
176
     1
 90
        1
176
     1
 90
        6
176
     1
 90
        2
176
     1
 62
     7
176
     1
 90
        5
176
     1
 90
        0
176
     1
 90
        0
176
     1
290
     0
176
     1
 90
        1
176
     1
 40
0.0
176
     1
 90
        0
176
     1
290
     0
176
     1
290
     1
176
     1
290
     1
176
     1
290
     0
176
     1
290
     0
176
     1
290
     0
176
     1
290
     0
176
     1
290
     0
176
     1
290
     0
176
     1
 90
       50
176
     1
 40
0.0
176
     1
 40
1.0
176
     1
 90
        0
176
     1
 62
    18
420
        0
176
     1
 90
       50
176
     1
 90
        3
176
     1
 62
     5
420
      255
176
     1
290
     0
176
     1
 90
       50
176
     1
 90
       50
176
     1
 90
       50
176
     1
290
     0
176
     1
 90
       50
176
     1
 62
   256
176
     0
 40
1.0
176
     0
 90
        2
176
     1
  1
strokes_ogs.tif
176
     1
290
     0
176
     1
 40
1.0
176
     1
 40
1.0
176
     1
  0
VISUALSTYLE
  5
30
102
{ACAD_REACTORS
330
2A
102
}
330
2A
100
AcDbVisualStyle
  2
Wireframe
 70
     5
177
     3
291
     0
 70
    58
 90
        0
176
     1
 90
        2
176
     1
 90
        0
176
     1
 90
        0
176
     1
 40
0.6
176
     1
 40
30.0
176
     1
 62
     7
420
 16777215
176
     1
 90
        1
176
     1
 90
        4
176
     1
 62
     7
176
     1
 62
   257
176
     1
 90
        1
176
     1
 90
        1
176
     1
 40
1.0
176
     1
 90
        0
176
     1
 62
   257
176
     1
 40
1.0
176
     1
 90
        1
176
     1
 90
        6
176
     1
 90
        2
176
     1
 62
     7
176
     1
 90
        3
176
     1
 90
        0
176
     1
 90
        0
176
     1
290
     0
176
     1
 90
        1
176
     1
 40
0.0
176
     1
 90
        0
176
     1
290
     0
176
     1
290
     1
176
     1
290
     1
176
     1
290
     0
176
     1
290
     0
176
     1
290
     0
176
     1
290
     0
176
     1
290
     0
176
     1
290
     0
176
     1
 90
       50
176
     1
 40
0.0
176
     1
 40
1.0
176
     1
 90
        0
176
     1
 62
    18
420
        0
176
     1
 90
       50
176
     1
 90
        3
176
     1
 62
     5
420
      255
176
     1
290
     0
176
     1
 90
       50
176
     1
 90
       50
176
     1
 90
       50
176
     1
290
     0
176
     1
 90
       50
176
     1
 62
   256
176
     0
 40
1.0
176
     0
 90
        2
176
     1
  1
strokes_ogs.tif
176
     1
290
     0
176
     1
 40
1.0
176
     1
 40
1.0
176
     1
  0
VISUALSTYLE
  5
40
102
{ACAD_REACTORS
330
2A
102
}
330
2A
100
AcDbVisualStyle
  2
X-Ray
 70
    25
177
     3
291
     0
 70
    58
 90
        2
176
     1
 90
        2
176
     1
 90
        1
176
     1
 90
        1
176
     1
 40
0.5
176
     1
 40
30.0
176
     1
 62
     7
420
 16777215
176
     1
 90
        1
176
     1
 90
        0
176
     1
 62
     7
176
     1
 62
   257
176
     1
 90
        1
176
     1
 90
        1
176
     1
 40
1.0
176
     1
 90
        8
176
     1
 62
     7
176
     1
 40
1.0
176
     1
 90
        1
176
     1
 90
        6
176
     1
 90
        2
176
     1
 62
     7
176
     1
 90
        3
176
     1
 90
        0
176
     1
 90
        0
176
     1
290
     0
176
     1
 90
       13
176
     1
 40
0.0
176
     1
 90
        0
176
     1
290
     0
176
     1
290
     1
176
     1
290
     1
176
     1
290
     0
176
     1
290
     0
176
     1
290
     0
176
     1
290
     0
176
     1
290
     0
176
     1
290
     0
176
     1
 90
       50
176
     1
 40
0.0
176
     1
 40
1.0
176
     1
 90
        0
176
     1
 62
    18
420
        0
176
     1
 90
       50
176
     1
 90
        3
176
     1
 62
     5
420
      255
176
     1
290
     0
176
     1
 90
       50
176
     1
 90
       50
176
     1
 90
       50
176
     1
290
     0
176
     1
 90
       50
176
     1
 62
   256
176
     0
 40
1.0
176
     0
 90
        2
176
     1
  1
strokes_ogs.tif
176
     1
290
     0
176
     1
 40
1.0
176
     1
 40
1.0
176
     1
  0
DICTIONARYVAR
  5
3AF
102
{ACAD_REACTORS
330
3AE
102
}
330
3AE
100
DictionaryVariables
280
     0
  1
1:1
  0
DICTIONARYVAR
  5
3B4
102
{ACAD_REACTORS
330
3AE
102
}
330
3AE
100
DictionaryVariables
280
     0
  1
Standard
  0
DICTIONARYVAR
  5
3B3
102
{ACAD_REACTORS
330
3AE
102
}
330
3AE
100
DictionaryVariables
280
     0
  1
Standard
  0
DICTIONARY
  5
3B0
330
5A
100
AcDbDictionary
280
     1
281
     1
  3
ACAD_ROUNDTRIP_2008_TABLESTYLE_CELLSTYLEMAP
360
3B1
  0
CELLSTYLEMAP
  5
3B1
102
{ACAD_REACTORS
330
3B0
102
}
330
3B0
100
AcDbCellStyleMap
 90
        3
300
CELLSTYLE
  1
TABLEFORMAT_BEGIN
 90
        5
170
     1
 91
        0
 92
    32768
 62
   257
 93
        1
300
CONTENTFORMAT
  1
CONTENTFORMAT_BEGIN
 90
        0
 91
        0
 92
        4
 93
        0
300

 40
0.0
140
1.0
 94
        5
 62
     0
340
11
144
0.25
309
CONTENTFORMAT_END
171
     1
301
MARGIN
  1
CELLMARGIN_BEGIN
 40
0.06
 40
0.06
 40
0.06
 40
0.06
 40
0.06
 40
0.06
309
CELLMARGIN_END
 94
        6
 95
        1
302
GRIDFORMAT
  1
GRIDFORMAT_BEGIN
 90
        0
 91
        1
 62
     0
 92
       -2
340
14
 93
        0
 40
0.045
309
GRIDFORMAT_END
 95
        2
302
GRIDFORMAT
  1
GRIDFORMAT_BEGIN
 90
        0
 91
        1
 62
     0
 92
       -2
340
14
 93
        0
 40
0.045
309
GRIDFORMAT_END
 95
        4
302
GRIDFORMAT
  1
GRIDFORMAT_BEGIN
 90
        0
 91
        1
 62
     0
 92
       -2
340
14
 93
        0
 40
0.045
309
GRIDFORMAT_END
 95
        8
302
GRIDFORMAT
  1
GRIDFORMAT_BEGIN
 90
        0
 91
        1
 62
     0
 92
       -2
340
14
 93
        0
 40
0.045
309
GRIDFORMAT_END
 95
       16
302
GRIDFORMAT
  1
GRIDFORMAT_BEGIN
 90
        0
 91
        1
 62
     0
 92
       -2
340
14
 93
        0
 40
0.045
309
GRIDFORMAT_END
 95
       32
302
GRIDFORMAT
  1
GRIDFORMAT_BEGIN
 90
        0
 91
        1
 62
     0
 92
       -2
340
14
 93
        0
 40
0.045
309
GRIDFORMAT_END
309
TABLEFORMAT_END
  1
CELLSTYLE_BEGIN
 90
        1
 91
        1
300
_TITLE
309
CELLSTYLE_END
300
CELLSTYLE
  1
TABLEFORMAT_BEGIN
 90
        5
170
     1
 91
        0
 92
        0
 62
   257
 93
        1
300
CONTENTFORMAT
  1
CONTENTFORMAT_BEGIN
 90
        0
 91
        0
 92
        4
 93
        0
300

 40
0.0
140
1.0
 94
        5
 62
     0
340
11
144
0.18
309
CONTENTFORMAT_END
171
     1
301
MARGIN
  1
CELLMARGIN_BEGIN
 40
0.06
 40
0.06
 40
0.06
 40
0.06
 40
0.06
 40
0.06
309
CELLMARGIN_END
 94
        6
 95
        1
302
GRIDFORMAT
  1
GRIDFORMAT_BEGIN
 90
        0
 91
        1
 62
     0
 92
       -2
340
14
 93
        0
 40
0.045
309
GRIDFORMAT_END
 95
        2
302
GRIDFORMAT
  1
GRIDFORMAT_BEGIN
 90
        0
 91
        1
 62
     0
 92
       -2
340
14
 93
        0
 40
0.045
309
GRIDFORMAT_END
 95
        4
302
GRIDFORMAT
  1
GRIDFORMAT_BEGIN
 90
        0
 91
        1
 62
     0
 92
       -2
340
14
 93
        0
 40
0.045
309
GRIDFORMAT_END
 95
        8
302
GRIDFORMAT
  1
GRIDFORMAT_BEGIN
 90
        0
 91
        1
 62
     0
 92
       -2
340
14
 93
        0
 40
0.045
309
GRIDFORMAT_END
 95
       16
302
GRIDFORMAT
  1
GRIDFORMAT_BEGIN
 90
        0
 91
        1
 62
     0
 92
       -2
340
14
 93
        0
 40
0.045
309
GRIDFORMAT_END
 95
       32
302
GRIDFORMAT
  1
GRIDFORMAT_BEGIN
 90
        0
 91
        1
 62
     0
 92
       -2
340
14
 93
        0
 40
0.045
309
GRIDFORMAT_END
309
TABLEFORMAT_END
  1
CELLSTYLE_BEGIN
 90
        2
 91
        1
300
_HEADER
309
CELLSTYLE_END
300
CELLSTYLE
  1
TABLEFORMAT_BEGIN
 90
        5
170
     1
 91
        0
 92
        0
 62
   257
 93
        1
300
CONTENTFORMAT
  1
CONTENTFORMAT_BEGIN
 90
        0
 91
        0
 92
        4
 93
        0
300

 40
0.0
140
1.0
 94
        2
 62
     0
340
11
144
0.18
309
CONTENTFORMAT_END
171
     1
301
MARGIN
  1
CELLMARGIN_BEGIN
 40
0.06
 40
0.06
 40
0.06
 40
0.06
 40
0.06
 40
0.06
309
CELLMARGIN_END
 94
        6
 95
        1
302
GRIDFORMAT
  1
GRIDFORMAT_BEGIN
 90
        0
 91
        1
 62
     0
 92
       -2
340
14
 93
        0
 40
0.045
309
GRIDFORMAT_END
 95
        2
302
GRIDFORMAT
  1
GRIDFORMAT_BEGIN
 90
        0
 91
        1
 62
     0
 92
       -2
340
14
 93
        0
 40
0.045
309
GRIDFORMAT_END
 95
        4
302
GRIDFORMAT
  1
GRIDFORMAT_BEGIN
 90
        0
 91
        1
 62
     0
 92
       -2
340
14
 93
        0
 40
0.045
309
GRIDFORMAT_END
 95
        8
302
GRIDFORMAT
  1
GRIDFORMAT_BEGIN
 90
        0
 91
        1
 62
     0
 92
       -2
340
14
 93
        0
 40
0.045
309
GRIDFORMAT_END
 95
       16
302
GRIDFORMAT
  1
GRIDFORMAT_BEGIN
 90
        0
 91
        1
 62
     0
 92
       -2
340
14
 93
        0
 40
0.045
309
GRIDFORMAT_END
 95
       32
302
GRIDFORMAT
  1
GRIDFORMAT_BEGIN
 90
        0
 91
        1
 62
     0
 92
       -2
340
14
 93
        0
 40
0.045
309
GRIDFORMAT_END
309
TABLEFORMAT_END
  1
CELLSTYLE_BEGIN
 90
        3
 91
        2
300
_DATA
309
CELLSTYLE_END
  0
ENDSEC
  0
EOF
