<?xml version="1.0" encoding="UTF-8"?>
<svg id="Layer_1" data-name="Layer 1" xmlns="http://www.w3.org/2000/svg" version="1.1" viewBox="0 0 300 301.5">
  <defs>
    <style>
      .cls-1 {
        fill: #000;
        stroke-width: 0px;
      }
    </style>
  </defs>
  <path class="cls-1" d="M202.6,227.1c-4.1,16.2-7.8,31-11.6,45.7-.6,2.6-1.3,5.2-2,7.8-2.5,9.5-10,15.8-19.6,16.5-9.5.6-18.5-4.6-21.5-13.9-6.7-20.2-12.8-40.7-19-61.1-2.3-7.3-4.6-14.6-6.4-22.1-1.8-7.5-.3-14.4,6.3-19.1,9.7-6.9,22.9-2.3,25.9,9.4,4.7,18.4,9,36.9,13.4,55.4.4,1.8.9,3.7,2.6,5.4,2.1-9.8,4.2-19.7,6.4-29.5,2-9.1,3.9-18.3,6-27.3,2.4-9.8,9.9-16.1,19.4-16.5,9.6-.4,18.1,5.4,20.6,15.5,4.4,17.4,7.9,35.1,11.8,52.7.4,1.8.8,3.6,2,5.5.4-1.4.8-2.9,1.2-4.3,4.3-18.8,8.5-37.7,12.9-56.5,1.9-7.9,8.2-12.7,15.8-12.9,7.2-.2,14.7,4.5,16.2,11.6.9,4.4.8,9.4-.4,13.7-7.8,26.4-16,52.6-24.2,78.8-3,9.6-11.6,15.5-21.1,15.2-9.9-.3-17.7-6.2-20.4-16.1-4.4-16.2-8.4-32.6-12.6-48.9-.3-1.2-.8-2.4-1.7-5h0Z"/>
  <path class="cls-1" d="M210.7,61.5c2.2-1.6,3.4-2.6,4.8-3.5,14.8-10.2,30.8-11.6,47-4.8,14.5,6,20.8,18.6,21.3,33.5.7,22,.4,44,.2,66,0,9.2-8.2,16.2-17.6,16.2s-17.1-7.1-17.3-16.5c-.2-16,0-32-.1-48,0-1.8,0-3.7,0-5.5-.2-12.8-5.6-19.6-16-20.1-11.2-.5-21.1,8.1-22.1,19.4-.3,3.6-.2,7.3-.2,11,0,13.5,0,27,0,40.5,0,11.4-7.2,19.2-17.3,19.2s-18-7.5-18-19c0-41.2,0-82.3,0-123.5,0-10.7,7.5-18.4,17.6-18.6,9.4-.1,17.2,7.2,17.6,17.5.4,10.1.1,20.3.1,30.5v5.7h0Z"/>
  <path class="cls-1" d="M83.7,281.3c-12.2,11.5-26.4,15.8-42.2,15.4-15.9-.4-29.8-10.6-33.6-24.5-5.3-19.6,5-37.1,25.7-42,11.8-2.8,24-3.7,36-5.5,1.6-.2,3.3-.5,4.9-.8,4.3-.8,6.9-3.3,7.3-7.7.4-4.5-1.8-7.6-5.8-9.6-9.4-4.9-23.6-2.6-32.1,5.2-2.5,2.2-4.8,4.7-7.5,6.6-5.5,3.9-12.2,3.7-17.2-.2-5-3.9-6.9-11-4.2-17.2,4.6-10.8,13.9-15.9,24.3-19.2,17.7-5.5,35.5-5.2,53.2.1,16.2,4.9,23.5,15.3,23.5,32.3,0,15.5-.2,31,.1,46.5.1,6.1,1.1,12.2,2.4,18.2,1.6,7.8-1,13.5-8.3,16.5-10.2,4.2-21.5-.8-25.2-11.1-.3-.8-.6-1.5-1.2-3h0ZM83.6,242.2c-6,1.3-11.4,2.6-16.9,3.7-5.7,1.2-11.5,1.9-17,3.5-7.4,2.2-11.2,7.8-10.4,13.8.8,6,6,10.4,13.4,11.3,14.5,1.8,32.7-6.1,30.9-27.1-.2-1.8,0-3.6,0-5.3h0Z"/>
  <path class="cls-1" d="M118.1,82.9h-11.7c-9.7,0-19.3.2-29-.2-7.4-.3-12.6-6-13-13.3-.4-7,4.7-13.2,11.9-14.3,1.6-.2,3.3-.3,5-.3,22.7,0,45.3,0,68,0,6.9,0,13.1,1.1,16.2,8.2,3.2,7.3,1.1,13.7-4,19.3-15.9,17.3-31.7,34.7-47.6,52-1.6,1.7-3.1,3.4-5.4,6.1,2.7.1,4.4.3,6.1.3,13,0,26,0,39,0,7.4,0,12.7,4.4,14.2,11,1.4,6.4-1.2,12.8-7.1,15.6-2.3,1.1-5.1,1.6-7.7,1.6-26,.1-52,.1-78,0-6.5,0-11.9-2.4-14.5-8.7-2.8-6.9-1.2-13.1,3.7-18.5,16.9-18.4,33.8-36.8,50.8-55.2.8-.8,1.4-1.7,3.1-3.7h0Z"/>
</svg>