<?xml version="1.0" encoding="utf-8"?>
<svg xmlns="http://www.w3.org/2000/svg" xmlns:xlink="http://www.w3.org/1999/xlink"  x="0" y="0" width="18329.9995mm" height="11902.9986mm" viewBox = " 0 0 18329.9995 11902.9986"  style="enable-background:new 0 0 18329.9995 11902.9986; " preserveAspectRatio="xMinYMin meet"  xml:space="preserve" >
<g id="main ">
<g id=" area">
<polyline id="069c9dd5-6606-419f-8752-f68df5f56af9" points="32389.9988 13717.9989 36869.9984 13717.9989 36869.9984 8367.998 32389.9988 8367.998 32389.9988 13717.9989 "  data-thisiscircle="Key 1" class="cls-470968843" >  </polyline>
<polyline id="76668615-8bd3-496d-b4cb-cbc5724f4ce8" points="13290 13717.9989 17769.9996 13717.9989 17769.9996 8367.998 13290 8367.998 13290 13717.9989 "  data-thisiscircle="Key 1" class="cls-470968843" >  </polyline>
<polyline id="f088b0c5-136b-42ed-a42f-80839341ce83" points="35429.9989 12017.998 35429.9989 10067.998 33829.9989 10067.998 33829.9989 12017.998 35429.9989 12017.998 "  data-thisiscircle="Key 1" class="cls-470968843" >  </polyline>
<polyline id="77cd5e62-75b5-4ce3-b969-4f0d1fbbd33c" points="16330.0001 12017.998 16330.0001 10067.998 14730.0001 10067.998 14730.0001 12017.998 16330.0001 12017.998 "  data-thisiscircle="Key 1" class="cls-470968843" >  </polyline>
<polyline id="209e2fd6-6997-4842-92b6-452d7d2cbd69" points="6984.0036 10902.9986 7300 10902.9986 7300 9088.9981 6984.0042 9088.9981 6984.0067 10713.0008 6984.0036 10902.9986 "  data-thisiscircle="Key 1" class="cls-470968843" >  </polyline>
<polyline id="883deb78-c419-4117-9dce-4fd0b4984196" points="13960 3695.9986 13960 8117.998 17329.9995 8117.998 17329.9995 3695.9986 13960 3695.9986 "  data-thisiscircle="Key 1" class="cls-470968843" >  </polyline>
<polyline id="01918d39-3068-4daf-946d-cdfaa3db77d7" points="9500.002 9498.0003 9500.002 10902.9986 11550 10902.9986 11550 8207.998 10099.9998 8207.998 10099.9998 9498.0003 9500.002 9498.0003 "  data-thisiscircle="Key 1" class="cls-470968843" >  </polyline>
<polyline id="f5a032ca-078e-4f49-98e4-eae17406adf1" points="7059.9995 6407.4987 5050 6407.4987 5050 7592.9986 5090 7592.9986 5090 7832.9986 5050 7832.9986 5050 9063.9981 7299.9999 9063.9981 7299.9999 7582.9982 7049.9971 7582.9981 7049.9971 7542.9982 8009.196 7542.9983 8009.9645 6457.4987 7049.9994 6457.4985 7049.9994 6417.4985 7059.9995 6417.4985 7059.9995 6407.4987 "  data-thisiscircle="Key 1" class="cls-470968843" >  </polyline>
<polyline id="f4856638-a67a-4e86-9a88-154995af3a1c" points="6984.0028 3695.9986 6984.0028 6382.4987 7299.0003 6382.4987 7299.0003 3695.9986 6984.0028 3695.9986 "  data-thisiscircle="Key 1" class="cls-470968843" >  </polyline>
<polyline id="ea2428e7-6941-4bfd-bdfb-4a598ad8a6f1" points="13639.9999 3695.9986 7389.0003 3695.9986 7389.0003 6417.4989 8009.9929 6417.4989 8009.1868 7582.9971 7390 7582.9971 7390 7842.9987 8010.0041 7842.9987 8010.0041 7882.9986 7390 7882.9986 7390 10902.9986 7770.002 10902.9986 7770.002 10792.9986 8010.002 10792.9986 8010.002 10902.9986 9410.002 10902.9986 9410.002 9408.0004 10009.9999 9408.0004 10009.9999 8207.9981 9409.9978 8207.9981 9409.9978 8117.998 11639.9999 8117.998 11639.9999 10902.9986 13040 10902.9986 13040 8117.998 13639.9999 8117.998 13639.9999 3695.9986 "  data-thisiscircle="Key 1" class="cls-470968843" >  </polyline>
<polyline id="f76bbdd4-eff9-4c28-9126-93ed232b83d5" points="1000 10902.9986 4810.0002 10902.9986 4810.0002 10792.9985 4959.9999 10792.9985 4959.9999 7832.9986 4809.9999 7832.9986 4810.0003 7757.9986 1000 7757.9986 1000 10902.9986 "  data-thisiscircle="Key 1" class="cls-470968843" >  </polyline>
<polyline id="565e204f-eeea-409d-b9c3-c08f5af284ca" points="1000 3695.9986 1000 7667.9986 4810.0003 7667.9986 4810 7592.9985 4959.9999 7592.9985 4959.9999 3695.9986 1000 3695.9986 "  data-thisiscircle="Key 1" class="cls-470968843" >  </polyline>
<polyline id="a854fdef-caa7-4031-b4f9-aed80f97ace2" points="5107.0031 9145.9979 5107.0031 10845.9984 6957.0045 10845.9974 6957.0018 9145.9979 5107.0031 9145.9979 "  data-thisiscircle="Key 1" class="cls-470968843" >  </polyline>
<polyline id="590c1f1f-6588-47c6-a714-1ab5e694d051" points="5107.0028 3695.9986 5107.0028 6325.4987 6957.0028 6325.4987 6957.0028 3695.9986 5107.0028 3695.9986 "  data-thisiscircle="Key 1" class="cls-470968843" >  </polyline>
<polyline id="3460038f-4da3-4e42-b1a7-821ace3e692e" points="8479.9999 3189.4986 12569.9999 3189.4986 12569.9999 1000 8479.9999 1000.0003 8479.9999 3189.4986 "  data-thisiscircle="Key 1" class="cls-470968843" >  </polyline>
<polyline id="0558b029-6322-4708-b227-5177c73ccfe6" points="6984.0036 11182.9992 6984.0067 11372.9969 6984.0042 12996.9997 7300 12996.9997 7300 11182.9992 6984.0036 11182.9992 "  data-thisiscircle="Key 1" class="cls-470968843" >  </polyline>
<polyline id="80846030-2454-4754-8674-b66b99847cc2" points="8479.9999 18896.4991 8479.9999 21085.998 12569.9999 21085.9983 12569.9999 18896.4991 8479.9999 18896.4991 "  data-thisiscircle="Key 1" class="cls-470968843" >  </polyline>
<polyline id="cf0be0ab-80d2-4a5b-be8a-f96e92298600" points="13960 13967.9989 13960 18389.9991 17329.9995 18389.9991 17329.9995 13967.9989 13960 13967.9989 "  data-thisiscircle="Key 1" class="cls-470968843" >  </polyline>
<polyline id="f6e0f2ac-e0a2-45d6-864a-bf56a0c93a1c" points="9499.9999 11182.9992 9499.9999 12587.9977 10099.9998 12587.9977 10099.9998 13877.9974 11550 13877.9974 11550 11182.9992 9499.9999 11182.9992 "  data-thisiscircle="Key 1" class="cls-470968843" >  </polyline>
<polyline id="8304ce4a-d1c4-4913-a70d-ffa0f82502a3" points="5050 13021.9997 5050 14252.9985 5090 14252.9985 5090 14492.9986 5050 14492.9986 5050 15678.4991 7060 15678.4991 7060 15668.499 7050 15668.499 7050 15628.499 8010 15628.499 8010 14550.1852 8010 14542.9994 7049.9979 14542.9994 7049.9979 14502.9994 7299.9999 14502.9994 7299.9999 13021.9997 5050 13021.9997 "  data-thisiscircle="Key 1" class="cls-470968843" >  </polyline>
<polyline id="01feb3ef-eae9-48b6-9ad8-daffee92d4f0" points="6984.0028 15703.4991 6984.0028 18389.9991 7300 18389.9991 7300 15703.4991 6984.0028 15703.4991 "  data-thisiscircle="Key 1" class="cls-470968843" >  </polyline>
<polyline id="9ec2e974-317f-46ad-878e-fa84e0cae05e" points="7390 11182.9991 7390 14202.9994 8010.0021 14202.9994 8010.0021 14242.9993 7390 14242.9993 7390 14502.9995 8010 14502.9995 8010 14542.9994 8010 14550.1852 8010.0021 15678.4991 7390 15678.4991 7390 18339.9991 8010 18339.9991 8010 18379.9992 8000 18379.9992 8000 18389.9991 13640 18389.9991 13640 13967.9989 13040 13967.9989 13040 11182.9991 11640 11182.9991 11640 13967.9974 9409.9979 13967.9974 9409.9979 13877.9975 10009.9999 13877.9975 10009.9999 12677.9977 9409.9999 12677.9977 9409.9999 11182.9991 8010.002 11182.9991 8010.002 11292.9991 7770.002 11292.9991 7770.002 11182.9991 7390 11182.9991 "  data-thisiscircle="Key 1" class="cls-470968843" >  </polyline>
<polyline id="aff5f381-126a-44a2-ae4d-e3e565c82ac1" points="5107.0031 11239.9993 5107.0031 12939.9998 6957.0018 12939.9998 6957.0021 12739.9997 6937.0053 12739.9997 6937.0053 12719.9997 6957.0022 12719.9997 6957.0032 12059.9997 6937.0053 12059.9997 6937.0053 12039.9997 6957.0032 12039.9997 6957.0043 11360.0037 6937.0053 11360.0037 6937.0053 11340.0037 6957.0043 11340.0037 6957.0045 11240.0002 5107.0031 11239.9993 "  data-thisiscircle="Key 1" class="cls-470968843" >  </polyline>
<polyline id="c7bc57cc-a7d5-4951-a051-8f39083ea21f" points="5107.0028 15760.499 5107.0028 18389.9991 6957.0028 18389.9991 6957.0028 17360.5037 6937.0063 17360.5037 6937.0063 17340.5037 6957.0028 17340.5037 6957.0028 16770.514 6937.0063 16770.514 6937.0063 16750.514 6957.0028 16750.514 6957.0028 15880.5038 6937.0063 15880.5038 6937.0063 15860.5038 6957.0028 15860.5038 6957.0028 15760.499 5107.0028 15760.499 "  data-thisiscircle="Key 1" class="cls-470968843" >  </polyline>
<polyline id="69f44247-42ba-40c7-8535-635aac72ce54" points="1000 11182.9992 1000 14327.9986 4810.0003 14327.9986 4809.9999 14252.9985 4959.9999 14252.9985 4959.9999 11292.9992 4810.0002 11292.9992 4810.0002 11182.9992 1000 11182.9992 "  data-thisiscircle="Key 1" class="cls-470968843" >  </polyline>
<polyline id="6a8f3049-b2e7-4e35-8bac-ff3a19b5bd23" points="1000 18389.9991 4959.9999 18389.9991 4959.9999 14492.9986 4810 14492.9986 4810.0003 14417.9986 1000 14417.9986 1000 18389.9991 "  data-thisiscircle="Key 1" class="cls-470968843" >  </polyline>
<polyline id="ea8eb6d1-4a21-4dcb-9d28-7cfe7baef630" points="6984.0036 11182.9992 6984.0067 11372.9969 6984.0042 12996.9997 7300 12996.9997 7300 11182.9992 6984.0036 11182.9992 "  data-thisiscircle="Key 1" class="cls-470968843" >  </polyline>
<polyline id="cc768a10-78c8-468a-9cba-a404b6b83de7" points="8479.9999 18896.4991 8479.9999 21085.998 12569.9999 21085.9983 12569.9999 18896.4991 8479.9999 18896.4991 "  data-thisiscircle="Key 1" class="cls-470968843" >  </polyline>
<polyline id="84663eb0-d7ef-4ee5-9e1e-cbcd15c8523f" points="13960 13967.9989 13960 18389.9991 17329.9995 18389.9991 17329.9995 13967.9989 13960 13967.9989 "  data-thisiscircle="Key 1" class="cls-470968843" >  </polyline>
<polyline id="38fce738-6203-4a96-8d65-6b330c628837" points="9499.9999 11182.9992 9499.9999 12587.9977 10099.9998 12587.9977 10099.9998 13877.9974 11550 13877.9974 11550 11182.9992 9499.9999 11182.9992 "  data-thisiscircle="Key 1" class="cls-470968843" >  </polyline>
<polyline id="aea2bd9f-bf5d-46e9-ab60-e0dd0a9fa249" points="5050 13021.9997 5050 14252.9985 5090 14252.9985 5090 14492.9986 5050 14492.9986 5050 15678.4991 7060 15678.4991 7060 15668.499 7050 15668.499 7050 15628.499 8010 15628.499 8010 14550.1852 8010 14542.9994 7049.9979 14542.9994 7049.9979 14502.9994 7299.9999 14502.9994 7299.9999 13021.9997 5050 13021.9997 "  data-thisiscircle="Key 1" class="cls-470968843" >  </polyline>
<polyline id="ee62e30f-a80f-43d8-9f42-dbbec0d78827" points="6984.0028 15703.4991 6984.0028 18389.9991 7300 18389.9991 7300 15703.4991 6984.0028 15703.4991 "  data-thisiscircle="Key 1" class="cls-470968843" >  </polyline>
<polyline id="1153f81b-f6f5-473e-9c6b-b049e1fa2099" points="7390 11182.9991 7390 14202.9994 8010.0021 14202.9994 8010.0021 14242.9993 7390 14242.9993 7390 14502.9995 8010 14502.9995 8010 14542.9994 8010 14550.1852 8010.0021 15678.4991 7390 15678.4991 7390 18339.9991 8010 18339.9991 8010 18379.9992 8000 18379.9992 8000 18389.9991 13640 18389.9991 13640 13967.9989 13040 13967.9989 13040 11182.9991 11640 11182.9991 11640 13967.9974 9409.9979 13967.9974 9409.9979 13877.9975 10009.9999 13877.9975 10009.9999 12677.9977 9409.9999 12677.9977 9409.9999 11182.9991 8010.002 11182.9991 8010.002 11292.9991 7770.002 11292.9991 7770.002 11182.9991 7390 11182.9991 "  data-thisiscircle="Key 1" class="cls-470968843" >  </polyline>
<polyline id="2fbf02da-a651-428d-a8f0-4100877b080c" points="5107.0031 11239.9993 5107.0031 12939.9998 6957.0018 12939.9998 6957.0021 12739.9997 6937.0053 12739.9997 6937.0053 12719.9997 6957.0022 12719.9997 6957.0032 12059.9997 6937.0053 12059.9997 6937.0053 12039.9997 6957.0032 12039.9997 6957.0043 11360.0037 6937.0053 11360.0037 6937.0053 11340.0037 6957.0043 11340.0037 6957.0045 11240.0002 5107.0031 11239.9993 "  data-thisiscircle="Key 1" class="cls-470968843" >  </polyline>
<polyline id="9e31ddb1-52f9-4f08-9c3e-ce99a5e0d305" points="5107.0028 15760.499 5107.0028 18389.9991 6957.0028 18389.9991 6957.0028 17360.5037 6937.0063 17360.5037 6937.0063 17340.5037 6957.0028 17340.5037 6957.0028 16770.514 6937.0063 16770.514 6937.0063 16750.514 6957.0028 16750.514 6957.0028 15880.5038 6937.0063 15880.5038 6937.0063 15860.5038 6957.0028 15860.5038 6957.0028 15760.499 5107.0028 15760.499 "  data-thisiscircle="Key 1" class="cls-470968843" >  </polyline>
<polyline id="06ab6091-553e-44fd-9924-b6f3c4f8bdbd" points="1000 11182.9992 1000 14327.9986 4810.0003 14327.9986 4809.9999 14252.9985 4959.9999 14252.9985 4959.9999 11292.9992 4810.0002 11292.9992 4810.0002 11182.9992 1000 11182.9992 "  data-thisiscircle="Key 1" class="cls-470968843" >  </polyline>
<polyline id="9b6dd055-ee95-41f8-a572-c7ac0430a42d" points="1000 18389.9991 4959.9999 18389.9991 4959.9999 14492.9986 4810 14492.9986 4810.0003 14417.9986 1000 14417.9986 1000 18389.9991 "  data-thisiscircle="Key 1" class="cls-470968843" >  </polyline>
<polyline id="75a9ef30-31ac-4efd-9543-858dc8efe5f4" points="22590 11182.9977 22590 13852.9992 22879.9983 13852.9992 22880 11182.9977 22590 11182.9977 "  data-thisiscircle="Key 1" class="cls-470968843" >  </polyline>
<polyline id="5e2cc7e2-9a31-42e1-b89d-542ed89705e0" points="22580 15703.4991 22588.5083 18389.9991 22895.9984 18389.9991 22895.9984 15703.4991 22580 15703.4991 "  data-thisiscircle="Key 1" class="cls-470968843" >  </polyline>
<polyline id="49e92f9b-ced2-417e-9e09-a39f7c0918a5" points="22237.9992 18896.4991 18147.9992 18896.4991 18147.9992 21085.9983 22237.9992 21085.998 22237.9992 18896.4991 "  data-thisiscircle="Key 1" class="cls-470968843" >  </polyline>
<polyline id="34d01ae4-4723-4099-8a72-3acd2c3cb7d3" points="17419.9995 18389.9991 21890.0008 18389.9991 21890.0008 18379.9991 21880.0008 18379.9991 21880.0008 18339.9992 22500 18339.9992 22500 15678.4991 22500.0008 15668.499 21880.0008 15668.499 21880.0008 14542.9993 21880.0008 14502.9994 22500 14502.9994 22500 14243.0014 21880 14243.0014 21880 14203.0014 22500 14203.0014 22500 11182.9977 22119.9991 11182.9977 22119.9991 11292.9978 21879.9992 11292.9978 21879.9992 11182.9977 18019.9995 11182.9977 18019.9995 13967.9989 17419.9995 13967.9989 17419.9995 18389.9991 "  data-thisiscircle="Key 1" class="cls-470968843" >  </polyline>
<polyline id="014c8810-4c30-43d2-aff2-d3c95ab9a6cb" points="21880.0008 14542.9994 21880.0008 15628.499 22840.0008 15628.499 22840.0008 15668.4991 22830.0007 15668.4991 22830.0007 15678.4991 24919.9983 15678.4991 24919.9983 14492.9986 24829.9984 14492.9986 24829.9984 14252.9986 24919.9983 14252.9986 24919.9983 13942.9992 22590 13942.9992 22590 14502.9994 22840.0028 14502.9994 22840.0028 14542.9994 21880.0008 14542.9994 "  data-thisiscircle="Key 1" class="cls-470968843" >  </polyline>
<polyline id="78e1068c-fe9e-4974-a93f-44955deafe01" points="22907 11182.9985 22907 13852.9992 23839.3924 13852.9992 24919.9993 13852.9992 24919.9992 11292.9985 24829.9984 11292.9985 24829.9984 11182.9986 22907 11182.9985 "  data-thisiscircle="Key 1" class="cls-470968843" >  </polyline>
<polyline id="88d7dd2e-56e7-4797-bc98-0d66d1dafdc1" points="22922.9984 16770.514 22922.9984 17340.5037 22942.9949 17340.5037 22942.9949 17360.5037 22922.9984 17360.5037 22922.9984 18389.9991 24772.9984 18389.9991 24772.9984 15760.499 22922.9984 15760.499 22922.9984 15860.5038 22942.9949 15860.5038 22942.9949 15880.5038 22922.9984 15880.5038 22922.9984 16750.514 22942.9949 16750.514 22942.9949 16770.514 22922.9984 16770.514 "  data-thisiscircle="Key 1" class="cls-470968843" >  </polyline>
</g>
</g>
<defs>
<style> .cls-470968843{stroke:#000000 ; stroke-opacity:1; stroke-width:6; stroke-dasharray:10; fill:none; } </style>
</defs>
</svg>